<mxfile modified="2022-02-04T17:54:54.764Z" host="app.diagrams.net" agent="5.0 (Windows NT 10.0; Win64; x64) AppleWebKit/537.36 (KHTML, like Gecko) Chrome/98.0.4758.80 Safari/537.36" etag="8_KKZSa4wrvspuC--weD" version="16.5.3" type="github">
  <diagram id="Ht1M8jgEwFfnCIfOTk4-" name="Page-1">
    <mxGraphModel dx="2842" dy="908" grid="1" gridSize="10" guides="1" tooltips="1" connect="1" arrows="1" fold="1" page="1" pageScale="1" pageWidth="1169" pageHeight="827" math="0" shadow="0">
      <root>
        <mxCell id="0" />
        <mxCell id="1" parent="0" />
        <mxCell id="UEzPUAAOIrF-is8g5C7q-128" style="edgeStyle=orthogonalEdgeStyle;rounded=0;orthogonalLoop=1;jettySize=auto;html=1;startArrow=open;startFill=0;endArrow=open;endFill=0;strokeWidth=2;strokeColor=#808080;" parent="1" edge="1">
          <mxGeometry relative="1" as="geometry">
            <Array as="points">
              <mxPoint x="310.5" y="461.5" />
              <mxPoint x="310.5" y="376.5" />
            </Array>
            <mxPoint x="160" y="461" as="sourcePoint" />
            <mxPoint x="362" y="376.5" as="targetPoint" />
          </mxGeometry>
        </mxCell>
        <mxCell id="UEzPUAAOIrF-is8g5C7q-124" style="edgeStyle=orthogonalEdgeStyle;rounded=0;orthogonalLoop=1;jettySize=auto;html=1;startArrow=none;startFill=0;endArrow=open;endFill=0;strokeWidth=2;strokeColor=#808080;" parent="1" source="JW3iJgfV2uW1eodX8U2l-5" edge="1">
          <mxGeometry relative="1" as="geometry">
            <Array as="points">
              <mxPoint x="300.5" y="101.5" />
            </Array>
            <mxPoint x="412.5" y="101.5" as="targetPoint" />
          </mxGeometry>
        </mxCell>
        <mxCell id="UEzPUAAOIrF-is8g5C7q-127" style="edgeStyle=orthogonalEdgeStyle;rounded=0;orthogonalLoop=1;jettySize=auto;html=1;startArrow=open;startFill=0;endArrow=open;endFill=0;strokeWidth=2;strokeColor=#808080;" parent="1" edge="1">
          <mxGeometry relative="1" as="geometry">
            <Array as="points">
              <mxPoint x="311.5" y="281.5" />
              <mxPoint x="311.5" y="361.5" />
            </Array>
            <mxPoint x="160" y="282" as="sourcePoint" />
            <mxPoint x="362" y="361.5" as="targetPoint" />
          </mxGeometry>
        </mxCell>
        <mxCell id="UEzPUAAOIrF-is8g5C7q-129" style="edgeStyle=orthogonalEdgeStyle;rounded=0;orthogonalLoop=1;jettySize=auto;html=1;startArrow=open;startFill=0;endArrow=open;endFill=0;strokeWidth=2;strokeColor=#808080;" parent="1" source="JW3iJgfV2uW1eodX8U2l-11" edge="1">
          <mxGeometry relative="1" as="geometry">
            <Array as="points" />
            <mxPoint x="440" y="391.5" as="sourcePoint" />
            <mxPoint x="580.500887149974" y="376.5" as="targetPoint" />
          </mxGeometry>
        </mxCell>
        <mxCell id="UEzPUAAOIrF-is8g5C7q-132" style="edgeStyle=orthogonalEdgeStyle;rounded=0;orthogonalLoop=1;jettySize=auto;html=1;startArrow=open;startFill=0;endArrow=open;endFill=0;strokeWidth=2;strokeColor=#808080;" parent="1" edge="1">
          <mxGeometry relative="1" as="geometry">
            <Array as="points">
              <mxPoint x="760" y="372" />
              <mxPoint x="760" y="280" />
            </Array>
            <mxPoint x="658.4991128500264" y="372" as="sourcePoint" />
            <mxPoint x="800.5" y="280" as="targetPoint" />
          </mxGeometry>
        </mxCell>
        <mxCell id="UEzPUAAOIrF-is8g5C7q-133" style="edgeStyle=orthogonalEdgeStyle;rounded=0;orthogonalLoop=1;jettySize=auto;html=1;startArrow=open;startFill=0;endArrow=open;endFill=0;strokeWidth=2;strokeColor=#808080;" parent="1" edge="1">
          <mxGeometry relative="1" as="geometry">
            <Array as="points">
              <mxPoint x="760.5" y="381.5" />
              <mxPoint x="760.5" y="415.5" />
            </Array>
            <mxPoint x="658.4991128500264" y="381.5" as="sourcePoint" />
            <mxPoint x="800.5" y="415.5" as="targetPoint" />
          </mxGeometry>
        </mxCell>
        <mxCell id="UEzPUAAOIrF-is8g5C7q-134" style="edgeStyle=orthogonalEdgeStyle;rounded=0;orthogonalLoop=1;jettySize=auto;html=1;startArrow=open;startFill=0;endArrow=open;endFill=0;strokeWidth=2;strokeColor=#808080;" parent="1" edge="1">
          <mxGeometry relative="1" as="geometry">
            <Array as="points">
              <mxPoint x="740.5" y="391.5" />
              <mxPoint x="740.5" y="530.5" />
            </Array>
            <mxPoint x="658.4991128500264" y="391.5" as="sourcePoint" />
            <mxPoint x="800.5" y="530.5" as="targetPoint" />
          </mxGeometry>
        </mxCell>
        <mxCell id="UEzPUAAOIrF-is8g5C7q-135" style="edgeStyle=orthogonalEdgeStyle;rounded=0;orthogonalLoop=1;jettySize=auto;html=1;startArrow=open;startFill=0;endArrow=open;endFill=0;strokeWidth=2;strokeColor=#808080;" parent="1" edge="1">
          <mxGeometry relative="1" as="geometry">
            <Array as="points">
              <mxPoint x="720.5" y="401.5" />
              <mxPoint x="720.5" y="653.5" />
            </Array>
            <mxPoint x="658.4991128500264" y="401.5" as="sourcePoint" />
            <mxPoint x="801.2860095264341" y="653.5" as="targetPoint" />
          </mxGeometry>
        </mxCell>
        <mxCell id="UEzPUAAOIrF-is8g5C7q-136" style="edgeStyle=orthogonalEdgeStyle;rounded=0;orthogonalLoop=1;jettySize=auto;html=1;startArrow=open;startFill=0;endArrow=open;endFill=0;strokeWidth=2;strokeColor=#808080;" parent="1" edge="1">
          <mxGeometry relative="1" as="geometry">
            <Array as="points">
              <mxPoint x="700" y="412" />
              <mxPoint x="700" y="730" />
            </Array>
            <mxPoint x="658.4991128500264" y="412" as="sourcePoint" />
            <mxPoint x="800.5" y="730" as="targetPoint" />
          </mxGeometry>
        </mxCell>
        <mxCell id="JW3iJgfV2uW1eodX8U2l-2" value="Node.js" style="outlineConnect=0;dashed=0;verticalLabelPosition=bottom;verticalAlign=top;align=center;html=1;shape=mxgraph.aws3.android;fillColor=#8CC64F;gradientColor=none;" vertex="1" parent="1">
          <mxGeometry x="440" y="52" width="73.5" height="84" as="geometry" />
        </mxCell>
        <mxCell id="JW3iJgfV2uW1eodX8U2l-3" value="NPM" style="shape=image;html=1;verticalAlign=top;verticalLabelPosition=bottom;labelBackgroundColor=#ffffff;imageAspect=0;aspect=fixed;image=https://cdn0.iconfinder.com/data/icons/font-awesome-brands-vol-2/576/npm-128.png" vertex="1" parent="1">
          <mxGeometry x="540" y="30" width="128" height="128" as="geometry" />
        </mxCell>
        <mxCell id="JW3iJgfV2uW1eodX8U2l-5" value="Jenkins" style="shape=image;verticalLabelPosition=bottom;labelBackgroundColor=default;verticalAlign=top;aspect=fixed;imageAspect=0;image=data:image/png,iVBORw0KGgoAAAANSUhEUgAAALkAAAEACAYAAADvH9dVAAAABHNCSVQICAgIfAhkiAAAAAlwSFlzAAALWwAAC1sB2zHRFAAAABl0RVh0U29mdHdhcmUAd3d3Lmlua3NjYXBlLm9yZ5vuPBoAAFKfSURBVHja7Z0FeBxZdu+z8LJJ3uYl2SRfkveym7GYmVmyJMtsWWaUZcsWmZlZZh7DmJmZeczMKDOPmWl2PDPn3XNV3V1wq7qqu1rqlru/73w7a3VXd1f9+ta5B/7nbwDgb5xme3P9n2/+iVgMsVbEuhErJjaD2Epie4idJXaL2FXuv48R20dsO7H1xJYSG0msDbFkYn8h9lvnuTVvzpNgG6D9iLUgNprYVmL3iYEN7EfuR7GRWE9ikcR+77wGTshtAfXfEatKbCqxezYCWq29435YPYhFEPudE3InpNa4HznENhD7WM5gK9lTzs1xdULuNDVg/45YFWLLiH22Y7BZ9iuxncSyvjaXxgmvOri9iY0i9sgWAHq5uUGIvx+EBQZAZEgQRIeFQFxEGP03GwH/mFh/dLOckDvhTiK2S0/A0hLjoHtha5g+egDsWDkTrh/fAh/vn4LPD08z7c2to1BydDPs37gAVs4eD+OG9IQmdWuCj7u7Hp/nJt6ZnJB/nXBXI3ZYL7DDgwJhYPdCOL1nlSzMWu3tnWNwYNNCGDuoOzSoVZXeDaz4jMuJ/ZcT8ooP9m+I1edi1LrAXTO9Mmxb8R18uHdCN7jl7PXNI7B33VwY2a8LZFZNAw8XV62f9y2xQifkFRfwRGKn9YI7ISoCVs+dCJ8enLI53HL24vohWDRtJKQmxGr9/IuJ/cEJecWB253YOnMXHlfFxg0aQH7btuBeyUX2ecF+ftTXRleivOAWG/7Q0PdvnFlDC+joqv27E3LHhvtPxCYS+0npYqcmJcOo4mI4eewo3LxWQq1NdjYzOjKkZ3t4cmW/3cDNMtwTdMhtrtaVuUPM1wm548H9v4h1IvZK7uKGBARCt86dYcfWLUaw0a5fvQJzZ80CPy9vwfNbNKgDN09uswGUp+Dj/ePw8e4R+HDrILy/eYDYPnh343t4d20PvL22G96W7IQ3JduJ7aD//Y4Y/vu763vg/fW99Lkfbh2gx/h0n+wLHpQe+86ZHTC0d0cI9PFW46enOSF3rHDgNbkLWqdGDVi8YD5cu3JZADfa+DFjKPz85wd4e1Of12p3AmG+dxQ+3DlEIN5PAaXwXtlmE3tXsgve39gHHwj4z68dhAHdCtXUx1R1Qm7fcP8zsVlcxk9yEZPi4mHRvHkSsNHOnT4FLZo2k7wG49S3Tm23fIW+exTe39pPVt1dNoNZNfTkR7VlyeRfQ/z9zYFezQm5fQJen8vuSS5caGAQTBw7lrly79u7h/jiIyEuOkbwGj9PT5g3ebj2qAlxEz7eOVK6Sl/ZXu5gs+z6oRVQt1raJzOgV3dCbj9w/zdXfiq5WD4entC/d2+4eO6sBO7D+/fDmJGjoV1uOwgLChG8rmHtanDjxFZtrgjxg9EFeXN1h12CLbZXl7dCvw45SjU5fyVWwwl5+QOex5WbCi6Q2zeVoKBtOzh+5LAE7mOHD8OEseOhfWF7aNUiG/y9fQSvHT+0l6bVG+HGTZ8jgM2ygV3agBnQqzkhL7/IyWzWhcGIyJKFCyRwX7pwHqZO+RY6FHWggDdt1AQ8XU3pcYyJL5w6UkNM+gTd1L25us1hATdYv445SqC/JxbohLzs4977WBckLjoa9u7cKQH8+927oXfP3hRutPx2+eDr6WV8nbebO2xaMlU14Biqs1d/21LrXdRSCfQHjlLvUhEA/zdiJawLkVW7Dpw9dVIAN240586eY1y9DZackGR8HcaPsfhJrWuCsemKBLfBXhMfvSi7gRLoJ4n9gxNy2wL+98SOsi5A5/btJZGT0yeOw6ABAwVwozVr3NT4uojgIDizd7W61fvOIXh7dXuFBNxgT85ugKrJcUqgr8HiNifktgH8t8TWik86+tSTJ4yXuCdHDh6Ent17SAAvzC+EQN/S5oTE6Eha360GcBo1qcBw8+3y3kUQpJwdHeGE3DaQDxCfbPSp165aJfW/9+yGLp27SABHq5KaTl8bGRz0671zu1Qlc947cOTEUtuyYCyNUCmAnuyEXF/AK4l7LPECLJg7VwL4rm3boWP7jkzAmzdpRl/nUcnl18NbF6tK6rz7igDH8gKsl8ESgM8PTtKuJAXIb9hrO52jQr5efJKLhwyRAH7i2FHZFRyjKX7ePjTVP2v8EJUr+N6vBnAsCmOV7bZqnOVwbosjAl5FfHLb5uRIAL968SIM7DdAFvDoiMjS1zZv+KuammxMyX8VqzfZSH+8J18P/6zkACTFRMlB/sUe4+eOCPk2YWlsAC2k4gN+o+QqTBw/AXJb59IET6uWraBtm1z6/5s0bGzMaHq6uv5irkwWAdclRHh1BwHI/tP7WDxm7kd/ft9a8PXwUAor/s4JueWA/wexn/knlR9JOXLwAEybPBnqZ9aVpOZZNqxXR7OruOU++Hbqz368d1xQEvCJrJL47/YI+LvreyXfH5UEcL8ysn9XGDe4ByyePgp2rZ4NI/p2Ujq3WU7ILYe8E/9kVk5MglXLlkHPbt0gOSFBUy+jv7fX5+clB83EwQ9bBAtCTJsUlI59+5DdQf6J56agFEavDrlUC8aCPtcdTsgth/yUXs3GseGhv5rNZGpM9GB9+CeycrOOd+HAepg9cSiMG9IDxg/pBTtXz4JX1+xrI4uba/oDvHcCcprUs1aty8UJuTa4XYltseSEhwUFQ2atWtCpqAjatRFW153ctUI2kvJOY0MDbkxZlYpblk2HlLhoYNe0+8OmeaPtY8N5zZQjQPEjHRaSEU7I1QPeTYvuYICPLy2pRTdGXLdy5MABYdixb2eZbKY2nxn9dsMqaNyc7V8HTbNqqfrMS6cOLn9//Noe+rnvnd2ll1rYE6wMdUJuHvARak4oJnSaNmwEc2fOhCsXLzBb2QwWF2VaVaunJks3WneOaFwBdwsAx9V8WJ+O4OHiokGnJRxeXtxSviv5le30e2xa8i0nr+ELHXIawoKJ/WHHkgmwfs5ImDe+LxS0qAch/r5qv1s9J+TKgBerOZEZqWmwZeMGWagvXzgPe3btgpXLlsPUyVOgCnm+4bVBvr6ScKGWLh4E49ODk4LX42ZN66oX4O1V7pDTBBDZDG9dNA7at2oA946tln0eftbJQ7rQdkAz322nE3J5wBPkGo+N5bC+fjBh7FgaE5c0Q5w/BxvWroWxo8ZISmqrZ1QVHOfljcO8mvCDmqMofMB7FLVWEChygcyMFGjbNBN65DWnTQmtG9WGKkmxkEdWR7tpgbuk/sd2bf9SyG2SqQQ56tr8byfk7PLZG0qA18jIEAj+8CsNMQkkBptvtWsI/eSrRzZxdSmnNDc9fLpviqR0L2K3jKXERMCs0b3g9tGVFbd4a+FYCPaVzUukOyFnbzRlAW+YlUVXaj7cRw8dhPHjxsmCzbeszLqC46HQjiWls+95iZONi7+VfE7MCE4c1BmeX9j8VZQDbCNujju7SrHYCbl0ksNdOcBRoq3k8iWBqtWShYtkqwxZ1rCesNPl3Z3jZEU+STOUlqS/39w+RgU++cf0dnODnUsnfHXluJMGd2ZdtyNOyIWQZyoBzve/MTxYPGy4argNllmrjqnuxd+vdBW3IHVvSPpMGNpb4nuvnVX81QFuMIy+MIq2/uiE3AT5Mhbg0RERcOHsGYGyVd8+fTUDjlY1PcN43PTEOFonbUl3PWZEX5FNqzjCsGBCv68WcLQfTq9jFW9VcUJugvwWC/LlixcbAT9PYB/Qt79FgKOlJCYJ5N60RlSMKXDi4uCIE/7nHN23/VcNuMHymmfZVfbT3rrupdGJhERBCe2oESMtBhwtJtJUC40yxpaKa6JPPmm4yVVJig6HFxc3OyEntm72CPF1POCE3DSnRwI5xsINkK9avtwqwNFCAoNMaf0+Ha0qS81tbtrErplZ7AScs2fnNtIEFz/F74S8FPJBLMi/373LmODp3LGz1ZDzBYTWzR1jRRPENujfNa9U9jkjxQm3yNo0riO+ln90Ql46KlskzulBw4R6reJFBUWCjnPM2FlzIc/vWQKp8TGwb9VUJ9giG9ErXwx5kBPy//nmBasuxeCqDOjX32rIc3NMWcnI4CAdLuZ2eHXNNr2f9p5EekpcklNb5sj+fcX0oXZTrGUvgP+R5apgyaxBL9xawNGaNGpiPHbrxpl2DdGccX3s+vM9PLkWsqpVlv37yS2zxdez19cOOTOyMmbkSAr5lEmTdYG8Ts3axmOPG9DRriFqmlkVTm+dY7ef7/mFLfQ8HljDdtWend8knpQ3+2uH/L9ZkC+cVyoW1L1bd10gT69sKrPdvni8/clBXNtFx6xgr2XtKsnQpW1TO5Ss2EEVfDFPgNldrKSUe25EkKA/dN/XDnk1OcixHlwPwNHiokzjUW4eWm434KBokbjxObdpFvi4u8Odo6t0eQ9cccf0K6LTJCzvHtpNB3kZPmNybCTdyJ/dMY/5/JTYSP71vP/VQk6+fBwn6s6EHMtn9YLcMMEN4bEXIZ8Ptw8zW/BQ/F/PLOqI3gX0eIsnD7RCrkLY4te9sBU9ptwdp1Z6kkC4/6uEHEfnEfsoV5SFkG/dvEk3yD1d3elx0+Kj7UTI54isWsCdMzvpZw0P8Kfyyda+19Th3ejx2jWra1FO4DOvA8pgK+eMKx3W6+oKNxh3xiaZVcUd/L/9qiAnX7ihuYnICPmyJUt0ARyHXRmOm92gph3437vNKlVVSY6nn3fK0K5Wv9+iSQOMvZvPL2zS7E6xPt/Tq/vpXRGPi51O4te1a1pXfE3/8auBnHzZtsR+Mdf7qCfkrVuZWtP6dmhlB37492YhXzJ9lHE1/+H0eqveb/9qU2PHtOLu2no/78jfcQpa1i+V3HNxhQu7Fghe17VtU/E1jfkqICdftIfaBt9Z06fDqhUrdIE8J9s06Gm6xotcVpJsEpWteyehcmypugD2UloX8tsE3tyqG+rvB49OrbNIWUsswLRz6SRT7kEUaRnYWdIS+JxYQIWGXK3EhHG04OjRsHb1al0gx9GFhuNumDuq/H3yqzvg833zYxPXL5hsKlYbaF1sv0ENUwgV0+7qu/gPCidK08G7u7nG560QExpsqjVaOcX4urH92rOu6yti0RUScvLFBioBHVxJqlMyuH9/2Lxxgy6QZ7cwTTLbPH+M3cTFP949Jola8EX/USaiako8N3KxEiz91nIhom+Jb8+fLn3r8ArVG08sSX5Xsov893bFOpUaqYl0oBb++4wRPeSu95uyXNHLCvAcJcDHBQZAKy8vyb9369QJDh88YNQUR9nlmtVrQHJCIsTHxELlpBSoViUDGmTVp7N/1G48LQ2j2TLBgo3UOGgLV01MtqDcxduSHcZueH573ZqZwy3u2uHP/unazrpk092jq2HJlEE0vc+/bvhv+Hc8zwrX/SGxP1cIyLlEzxfWF3VHvzs4EF7Hx0AXhqRB29at4dD+fZCWUlkwRJZlXm7ukBSfQFbsbIUQYukxpgzu7HBVfXyQcJN35fvFFh2nuKewOnAr+QEpPf/BybUUWvxBNKpVBaomxUFUaBD9DHLXAp+Hr8VeVzMu6WVi/+zQkJMvEEbsA1Nsh9iykGAKONpgfz+mgJA5uKWScS6QkZYORQXSlT3YvzTNPNAOoisGJSq1z8XeUT1a7TCDagj7lVZjBiqqZR1aN13T+UelghNbZtHXrv5uuJrX7Cf2B4eEnFOifSr35eYHBxkBR5tgmQ62vI8fEEhdFFZaPys9yS4gz65fk4YHcZXGrCFKOmyYO5KWsGKqHG3fqm9pA4J48lqvghYWv2/f9q0Ex1KK3Dw9u1G1riOu8BiqNLx2+dQhaq/XSlsmimwF+L8rqWCNIheWD/grYjV5q4teFhYUAgV5BUbIa1WvaczQYZVceQKO/qwWUVCxoRahpe9dsm+J5L0xWST3/MFdlfUdMboyvEe+pM7GkIAyPs/VVek4Ex0Gcrz1EDsm92W6Ed+bDzjakpBgVcq1zerVgonDesOetXPpWHC0aaMHQOX4GNnX4erNipXvWzWlfCcdn1lvMeS4eTy3c75V79+nfbZw8gbZ+ONQWrnnTxjUCSrzCq5QdgKFQVHxFsOIrNegCi7/Pb4L9Ico5e/cyVEgnyL3JbLJiXwpAvxaTCQEVVK+2FWS4uHotqWK8WSca4PPY70e53WKezzH20E9OabCtQKOPu/uZRN1GSeeEiOoEoT0xBgagVF63b3jq+kP9LWKasaZo3oJjr8yJBC2hQVBYKVKStPjouwacvIBa8ldnNruHvA4LlqyihcT10XuNdjjOXlEX3h/94SqUeA4yY014wbHGRogT4wr/SFg8ZA9+OXzx/cTrJBKhlELa1dwvh0mm0rx3aRFvRqalG2VDMsH+MdeGxoIF6NCKeze8tOdbxP7J7uEnGt8eMH64MmubnAnNkoCOFqaGzt64uvpCRf2r1UFN99wxfd2k/r3ON6Q3x3k5+kBL+ykjxJXxTPb58KmuaNpyQGu8LjZxM3ouAEdYNnUwXBo/XSbvPfovkWSc8UqtrLEcN/AP+5GDnK0WUH+4Cb/g15ud5Djzhg7P1gf2I/8Ys9HRzABPycSyhREX6YUM2dqXjqwFpZ9NwoObpxPJ5SxQB/QtUByvMYNGkn0yQ+unfbVd9VjGLN2erLkfM0Za32PKf5ABTF54qoYIEcb6Kc4hrK1vUE+QLaSMCSICTjazOBA5mtwtLUY3NO7lkF0qHCDilGS9q0awcOzWwWdNag5Lg651apeg0IeG2kap7Jw4gCnfAQxrB4UazqiG2OtMu+oPoWCY+4LDxZAfoFYHfmoGvYZeNsF5Fxnz8/Mbntvb1nA0fr5SWfPoE/98MIeAeDHti2BQF46WmwR5DWbF4yhlX0GSeVm9WoLIxJ+/sbOIGORUu8CJ+ScYXZSvDBgFOe8FXuAYT3yTNExYud4gBtsPwE/WH4jep7Y35Ur5OQD/Av27rE+YDxZZR/GRitC3thTOroaXQ3xKl4txfwgWszindhcmmnDYqI1c8aafQ2GwJyAmwx7QMXnCDUe7x9fbdHxBnUxxdeDCMgXGZCjzQ3yV7pOU8ob8plyKfuDkWGKgN+KCYdERnJg05KpAsBLjm6GKOLyoIjkeXJbrZIkHxNPjokwNhdghZ05yK2t0a5ohhtgRjcPLdG1ZJOOzSmm4IOrLORoHXy8lAbfxpYL5FxdCrO7B1P0SoDfJTDiF0sWQY63y8eX9wnrqedPNhYjYYqZX3eBopIRopDh0O5tTd3iMZGK4TgtjQNfi2H8vFpynOR8dbVAHqNnQQvj6zM93BUhPxMZApXdZDOiZ3EKSZlCTt7wN3JZzUZkA/NSAfAfYqOMX6yauzB8mJGSKO2OIT624aRtnDfa+Nz85lk0MoAXZVCXNoLVnL+SxIWHQEZSLNSvngatGtSit1CMDzuBVk77hwdKXYih3dpqOk7zrOrG1+Z4eSpCjoaJIh/5+HlBWUPOrA/HD3g5OlIW8Gdx0XCJ96WyPIQ76/Ztmkkhv32Q5+OZYBb3E+LKbPibnA6I07T1hHoxKkC75DZRnSyKJQuM8XVkE2sOcrQh8mFF7Cj6tzKBHOt/iT1jfZDRosIrvuHqfjU6TPCFmos2nm2a1pdAjhETw0nrnt/MuBliae+5c7v070b2dIKqg+E0ZtZ17ti6kdnXPj6zXhCtGeLvowpyjMAkyBdyzSwryJm1KfjBnsbJR1NukI2m+Au18xbGZhvVqS6BnD8JAsdgK5WZoqYI/n2GE3LdrL9MfY25jv8jG2YInv9toJ8qyNEWBcuWXeMeMNymkGNfnlxMfENYiCzg92IjmV+mk2hHnRQTJYL8lODE4TRjOiGiJ7sJF4v1cfX42odToZ7ix/vHaQud1tGNrAnNDWula17NF08Rtr6t4aX01VgzRniZs+O4J7Ql5PtZb9zSy0sW8MdxUbJfpC/D//rhskmPBMcI8k9cL263PqpPkeIsyeXThny1gItFi/h7GksNM8OSkul2zRRfM7R7O8Hzj0eGaIJ8b3iw0ia0lU0gJwdOZpZ+kg9yUaY25TlxXy5rvC3tWDXLeIFQ+kBcsVcqu9zBbDnoV7uK3z4kcflYHfZa7NTW2dJyDTMlETkNTePdI1xcNAFusP7ym9BbWkKKWiDfwXrDYoXN5rXocMUvcZr8usUll30755lWoVsHBCfu2Mbv6HMmOWAjclmZWB2X7muu7bbqmFjIJs5nmFMFxuCA4flZZmLkSrHzWPmG6ca6Qk4OGMx6o3DyC30ss9l8KOOHi00cRsQSW4PLUupTmk4cjhDEPsKpw7o6gWa5KiUifcUHp+A9LzplqfUuaim4RvWqp5qd/ubOW7w6kr2XJZCjzZRP+Z/TG/LlTIUrmcwmhgsvR4Wp+hLD/KW3pHFDenKQ75ecwJUzhjmjJ6wN4uWtcHzrfJOrd+8Y1XOx9riYzg8VKSl8a0aAVDxKZWyAr8WQY6VionxIMUMXyLmue0lEJaBSJXgg0whxh0vbq7HNYUHSSsSAAFor/l7krhjszLY5TrAZA2K7F2SXLg7EL7c2qoJ1LFsWjKGZYvH1MadAJh6KtTwkwGLI0SYF+slBvk8vyGew3mAI+XXLZTW1fokwRo/nvMnDqX63E2B1hi5EdGiIxMWzRBgUN5XpCdGSa4Iruhr1MYPgv8EOR4RYBTkmiCLlG6CjrIKcHOA/iX1mRVRuxrBX8etmNptq4uWGmPlHUQjRafJmqDXBSIil09wmkg19VEggUykBC7TUltzyB9VaGlkRW7G/rxzk662FnKlC293Xlwn4o9goi77AgYhgZmPr7IlD6ZwaJ8TmDSUi8JzhJlHL667uW0Illv292KWuuKJrke/A5FEwT/IvW0Vhlho7GRlCa9JlSnG9LYKcvPD3nJ60RL+QFRdHgaAr0WEWf4mujM4fT7LhOLRpvhNiFWbonELJiuObZipPkt41n67aONPHTSbhgiFAzEtorSPHH4RgTKUVm041yUM1wkRKkFdnHTBfpqXtrobNJsvQb/NlnPCokGC4ccjyCWhfS2Ior3mWaSEi57GwZX2YMbIHhXlk70JaYoz13TgvSVHjJjGWZozVVhqiViJffHR4zzzB8baJmpetsaMyjBB7opQcUoJ8Kesk7IsIY4YML+nwJXr5svs4Y8NDaVhKtQTbsVW0JBT91IjgQHh/95ig0KsiGspWWCOpl5mRQocTvFY5AhH1GnMa1ob6NdIE/85vuEDNeb0AN1ieqKiPZ+maIOfGgH9k9W2+Yqzi91UmfszZsQhZv4v6jBgmM3fyUcs7XDgkFR5dLG1wrujSEnWrpqiGGjeYWGSFov6qxfiJXdy9EIqyG9CyZuzoNyjYomEWlP8eWGSlN+TLQmQrFBdohbw560DDGWFD6otHhen2JZaSL+GhcHHqVEmG9XNGSlacaweW0g2U2MdMT4yDj9zYkrdWxo7t3a7tX0rPDxrGt5vUyYCW9WvQaEd+83oUapz+gEJGWo99/cAyWs/PV9wSlzzPF8lLY0REb8gxORTBDifiLNi/1wL5dhZgp6MiLE7fa7HRAb7mpZnJDj41Loo22eJFZW2g8N8ObVmsWw1HWa7KqCSLMhtaNMxtYbhS98hrLuitLU3Y+cG9Y6tku7PEill6Wjd5eZJGqiAnT/wPVoazKvmSrA1nSXSYTb5Ib19vq6WbZ4wdJKjlwHmUjrIqG0aRhJIfPK6YqFNeVsBjwzi+Py4ecqKj+HnEoUj+QoNaKhdswAXaptBAuWu+SS3kHZh62Iw6FaVacT1saqCfkjCkok0Y2ktSjWdtNlCfIqpd8OHOYSp5V1pEdZKOHhfnA9AdwyymGC6U5MBIyui+hbSOBzfkmMhBvXW1m0ZhXHsr1avBcCGu2DjYyktZRxyWTpUO5xJPemujU3xczpLZnxGHH/+rGsiPsWLjKLEsaWmzILup1bCjJM7MSRdbRnIC8cNPKjZFl5d9uHVQ8rlo3XyJtJjq8en1EhfAnCGgfgSwELJ/igwJgvjIMKqai4oFtdIS6VSLxrUzaHQE3wObvrUcH39crO+VGBUu1CIP8rcpFwo6inmKkHNNyhItlYaenrrUqFhTu4BJhbBK6kTrl8wYzR7+eqf8a2E+iJoazEV9cIUu5KYe62kbuVmm6HaofY1cyxvO7hSLS2ntBNJqe8KD5VRx15qDnKkvPpOb0Ma321YmfyyxU+TE4aa0oYeHXFKg1LUa0VdmLuZJu+i/5M/pxFme4mlrrNdtXzweUmIidIN84aT+9Lib5o82+1zcFyybKj8/FOHnP7+uhU0SWi2DLfv9UtwDKoZ8AutLnhFFVV7plPyxxs5GloYbWeM5uuRly+qXvy3ZUa6Q88eN89v7ELoospig342xaHaF4GaYO7Yv9ZuthXwKVxOOyrWKepHZDeh8IyUhIk+ROzkhwK9MGOgmH5wIVIL8rEQxlkCkpIJV3taC0dWdWTVNFvJ3N74v543nDt4ewVQvj1PfDNGJFlnVzR4H61P6d2pNM5U+HtqHiqHiLJ02sX4G8+/VKyfQxJoWKTja2UW+w0kbuyoGWyAvXdGRCTn5w59Y/jirVuVmTLjdQM4q2gny9ZWF/ANtKNAuy2Cup9GSPkxxtGc6b0w3Qq8lro5RFrwb9CpsCbXTkiRxbUklaX4zYwYzISoMGtRMhw6tG9JJFxgOVPO+Nw4up3ce/nEx7V5W1x5/TB4qym/5kNdhnYw5In/cHlwVvs2Q6QG8cngjE3KcZW8JmCjB8MqCEB3LPt45zN1VpHH7sf1LpzPgfE9cZa1JKKGbcePAMri8ZxHNcuLqj03Je1dMhtNbre+uYg32Wm2jBJCcVWP75a/4c0H5kE9iwSIehWJPrgraVkb7HO0/ZcTJqZYLChZd1X5BC1rUo/rdurgsV7cT33wPvClhlxm04uQcsEYc5wjZY7Lq9uEVkruFOXlmW1hPeb88mAX5eUkRj4urXbsqaOeJhTJCi1izIrv5FEU01Ni3w7qCO3kfDJeVxSDbSK7IDGtFcHV/zOmu24t1bddUcs4nltGGU6WkXGcB5Jw//qv4iUU+3nbtqii1z6FdPLieCbklmU+Dth9OH1aaRa+XYciQnyYP8fOliRh7qI8/sGaqtBCOuA0XyuHan1LhlxsgT2BBMi84SJf2NlvbeplahrGDusskhQ5ZdHFxc0YHdzWoVTZim51aS0c/EhemWd1qdEIy+tdlXcCFm/CqDJF+nM1ZXte/hjvTL78thrwNC5LDkeF27arwLYmR+sdx5Oyk0CmLLvCuZRONx55uRtVVD8O4uLm0PoYP4yNCacivaWZVOpwAIywjeuVT5dklUwbRoVerZgyjteMYgcFYO8pbTxvejaqRjR/YgQ4zUPOZppLXSLUwPcr12hd5e8kp4P6BD/lo1gm8L9JVuWSngKMNlqllOL+PPfDWUmUpQ2MCCtSjbJ2tQceRL6yVU09TozdOa8oPLpM0PGMB3V7R6MKyNoVOfh8+5BtYEnB8wJ+WYa2KJXaC+GasYvqR/buyQ4kW1rHsXz3V2DgQExZMY8W2Bv3O0VW0AcIWgOP4mVtH1HUGZTeoKc2IenuV+7VXSApl8iG/Kn5CFvH9bNHiVtYx8+TYKNlQ4lsL1V7xVm84frWUeOPEOdv6wlthwsCORukJPax1o9q0TNdS+Wbc8O0p51UcbVd4kNx37Ekhxy5nrg5X8ITOvj5mJ0XYo2UxUtxn9q5muyxWpPg75zY2Hh/T8Gq72/VoaMCiKsxYYimtFqijQ4PotI5FkwbQdkEtbXUBDL83s4wKsdSEkWUiLHMNkLuxTshEUZPEZQcAHG1HWBB4fvONrBy0YDW/d8xi2LAEFnVLjGnyvGblMncTGx6wxmT1d8PpphLvMhh5mTykC60cxLj+pT0L4em5jRa/TxOyoWX68j5ednPdZURBDxkgr8b6AmtDQ8qldlwPa+3lKZnWLB5lbhq8tcfii48bMb4ywEQCV0Vrjp49prfsnSHLTlZytMbs8SvPDJB3Nte0/MAB/HG+rWLo+RX37axrLQtfMcpQaooJElR0rSiAHyd3CXN7gPHlkOVUq8DG2b8g5GNZf+RPcrvpIP4438QuC8qoPS85yF7Nrezi5692WJW3Z/kkhwcca1MwemTOz/cjP+xV5ZgIMthYeYUHP4T8O0lWjXxwoT8e5lCAYwkms2OouA97Nb9nvfAQfxQgukcbuPYyR7T7J9ZA7fRk1Rta5GWJlRrktqpGJRaNkC9RipG/cDB/XGkEB9aZo5qWLVZz8dgRLOaa74CjFlHXEPVstIYjMSk0L9jfHmPlaQj5RvEfEl3dykx2Qm+bEuinqMDVrSBHJtJy3GqFLYx29MhvLqyf6dfeIqmI8jCcIBERJAsL+IfHK4LuUY4++soQWS2Wugj5XiUhofsOsun8PjwYGnmaT5Tg5vDYjmUyXUMHdQnrictQsaZEi95gWdvlvYto0ZmidmLNZlC1yxiIrt3C7Dnu7utd5hWJG+UFh1og5CfFf6jLy3aWR1e+1jF4g/x8FLv3xVYzvbJRH1HPkCIf9E5tGktk1TbNs68GCJzSNqpPIXgrtcqR8xpTtxUF3GBx9duCmxl5EOy9PV1GvZ5oO8NkE2OFzJR+M57OyrVo+910ooBNjIuLRSnt4X06sd0WlK24ar0wKLbKtW/VQPK+uMrfPrKy3AHfOG8UJESGKd/1CMhxDdoKADdYQtP24Obipvh6bE07FFE2aX+cViKX2kfIH4r/0JbXvGyPlYcbyK2plru71bUb86cU61q8xQIdh0SJGwywkm/8gI5WZSEtvcPsWDwemmdVN3tu3AnAic06MAE3WHLLruDh7ql4HFyEdugoxK81okZsGEL+RvyHTj4+xrHh9gQ3TqPI9/aSU06S1loHhkNwfLr8haxUCSYO623SJeTXtdzarxtcWxeOhRBGOSh2GWEdCU5csyXcWCmJLXRYd67mvLm5ukNQ5ToQ27gQqnQYrgh6Sute4OGhLM6KmvO2bnDGPYAMFxP/hqVg29vP166alrEAZySBJLCSOr/bPywWEpuaVqG4Bu0UfchWjerC9eNbbAo6FjmhVjjr/dFfH9KtrayokKUdPOiS4IbSvZI2l87dw4f44i5G4CNrNIWMzqNkQa+c2wc8PX2UFxxyN5trY31EmX3ZbIT8k3R37GM3kRWcLJCiUvAzMDoFkrO7MS9EXP1c5QtLfkA5TerB3nVzhRGXW5ZHXLDSD7OfBkOJCdx8oiCQXOQH68axsArrYjQncY6vpmDjfKBojRWKZuPg/iGQ0WmkPOht+4Knl5/yOcZp2wG+ZZbl5mwaQv5M/IdCroH5TjlGVjAk2EJNSJCsUsEJGXQ1UbqtokXVbKrqgmKn/4Jvi+HumZ2aQcfaclyV0xNj5EteCYDYWWTuc8SGh1CxTxzzjfXca2YWU58a62VwtMys0b2guGc+7ezBgVduFspcq7WgxGpQtbP8+U1t1x+8vP3NHqevr7dNRGFl3m80Qn5LcvsmG6PyqlnBsFN/Px96ezM7bSKxKqTlDzQLN9/CUmtrurBhAf7QrF5tGNazkBZfnd85n4beWIBjnyRrTHeFMeLChNfOJn56sTzoeQPAyyfA7LH66Aw6ToaTea/+TL0Vg1RzWYcPcQZ7vArXxDcoXNYtUWNBMZWtvuAYIcFZl9jziR02mOmUm8xgL6Zmw44lHXU8PCCTmDvLbQmOhLC6bSAlT35xSSsYBL7keebeS0/XBftM5fRXEPLDkmQJl/Esq8Is7M8sVBE18XD3gpg62eSWOdpiwNEyOo4Ev9BoWb/46JEjMLK4GEIDgxx21cVzmUwWq7yEaJiS0xCW986HKvLlqFCfQL0lLFTU8hhF2yAFx3Vxg1CymofWyYH4lrjQsK8F+u8hxL0x56PrVdi1VT4ZlMscgpXq5kaFhMqqsCbSXEKHgBeSXAPSi4ZaBbcgxtumN3gwNkoBPr7w6eNHwMfnz5/hxPHjsGzJUhg+dBi0a5MLdWvXgfjoGPB29zB7ATFKtSEsBDYTGxcYILs6mrOGxIdH85Jx4TCqkET2LzlkDzW2WV3YMa4PPDpqKiPYOrInhLi4Mn8IOeSOdIAxm9VgV6IjIVAUnQlMzSSQt6IW1agA0hXcl+g6LRUjW5jv0IOjtfJp/UYI+WppAN/V5jHyI8SHEnfwMC8gue2l5PTQBewMcgdIzu0LkQ3y6QUKrtYY3FylsPbq3h0+fvgA5h6vX7+GG9evw4H9+6XTLkKCmdDcI6vj8tBgaE9W1VCVob1w4sKtGdQJfji6Cg6TDee6wZ1hzcCOcHTOSLiroED7+tIWGElcKdYPC93CXeGhsnDzbZC/cDHwCU8wQo4Wju5LuwGy5z2xeSfF7Oh6HWLoS+Tne9ZAyOdLg/cu8NSG1YdY+xti5gK7VXKF6NrNdYG7Crl1JuT0hPCsXMHFQQup0ZT4mdLS0iqVU2H/93vh1csX8OXLT4qw37l9R3LrVwMPTrI+GBkG3X19VQ0AQ9fj6qaZ6sKJB5ZBM0byx427w/zAa4phzWZ9GR9NGXhCnrc7XHgcD+8AyXlEi2vZlS4kzDKAJkWyK/oAPx+rmZotX0+eiJBPYZVM2qLEFotomqgIC3r7BdNMmrVwp7cfDnEtukBYZmvmReFbYFpdifvi5eYOxUOGwOUL5+Hh/Xvw8sVz+PzpE/z6668CyPfu2aMod63GbpMVflSAv9m5SLgqNyHuz4o+BVAiAzyu8HEM1YJkVzfYw3BNXnGJv1vE3bkSHSop5cBkXDDvc2GCSO48RjUsoOeddT0iMtizj4b4Ww/5t4GyMfpQhHwo64+XoiJ0TMcHQwcfL8U6b6OwZVJ1sjEcYRXcqQWDIaZpB7NgSy0b/OLSwd3VXeKndyoqgh1bt8DNayVw+8Z1+OHhA3j+9Am8ePYUxo0ZIxQajY7QDDlfxGlOcBCkuLmpi/JUqkQ3lNXIamgw8V0hgDwHR1Q+Z6zeCPh1FVE0cRlzSK0WsucRoy/J7fpLF53CwfQOLRGA0mFy82D5aXCuCHlL1h+3hVlfPXaKi3n7qbgVY6FPfMN8y+FGf7ttP4gkK4l2uMUuTDPwDomhG15JrX1aOowdNQq2bd4EJZcvUehbt2wpeM4THkwIEf5/nFx9N4ZYbAT933vEMKOM/45qCK8Y8K0gvnuUi6tVURZUFbsVEyX7o/pB5R27o0g5OCijgdnzGNe8iyQS5hcqTZLpMQ6xnben3FzP3yPkUayT811QgFXFMuM0jCTEL641qWMKVY2CROLaRNRrazXcYgtKzwJv30B5t8rdA2pWrQYhAQGCxl6jz03gLVEZhkUX4Vp0OAUf/WHTWPdo6Et8aHcrQGeNi9faFCPWGwxIqa3qHOImP739MOP18vGXJm300FKUUbYtMUhS/ImZevWz/BZSyFYZZYYGI6o2tCjujWErjNOG1W2tO9xiC0iuBR4qsniGqIUJIMtcPgQeSyr4MOLEjz7kmiSQ47sxOrkWEBdnN9loTg/0h8puomlsjGnaph+ROsjniDZ2Ack1VZ8/3BPhXRavm4eHkA1cCPVwiWUCGRv5WogvpHK8lg04Uhg7J9zUeftDEtmNa/a3C4cQf7ujzcFmbk4r1wFPX+UEUS13/bqqnstEQB6QTaJhZe/v52f89ydc1SiGZxN4mWNM7k0NCqSx+mKyuV1N3KAHnGKxWsg3i5It+MPXev5im3UCaYOO9bLPx+VrycfyIZdkPVPITlzHjmmhPxebClV4tzA1lkI2MlGNCssFbgnsqXXB0599Yvmtg7esHMv+OFbqSz8i7stCXoXhEH8/5p1jBKN+HV0pnOY3hoCOx7hDjq9WOErclBCQoh3yYHLXlswTDfSzZSIolw/5PMlKS06I1mbUfDNuCkYtYurmaEjejIKk1r0hon47u4Cb5bN7BYQxSyKsLXC7HB3G2xxGw5rQEMgjgIoL13r6+ho3qnz/f4to5cXw5GPRneEVrU9S/xkDePX8lkDuL0rzY7QNC6tsGD5M5EPei/Wk3Ro3BA0UJMWwS6dybl91yZsOIyA+uzsNRdkj3BKfPdHUTlbFTR/ISwjkJTGRMIC4I/4KzSI5XMWo2DUSSzTs5cXHEW68S9zQeKfhNyXwU/tqzSdMOEwgU6eUfh95F/k/+ZDXZT0J3Q8dRBdpeatSwb2xeq1oKPXbQjNzHAJuY8ixVgtjuDGZp1ljbanyTQLhi/homhm9QDaeWCrQ1NNTEGmJdHFlwooJFv41OBUVQVfyEgsrS8+L6rWDqzfRfJ48fQJ1j4+j4TgXBndvxTODfFlw9tZY89uZMYXNjVwEc4VVaWQzGd24yKHAFpsH1ywQyRsLqUfTyRXigtwnK/oLnqtxNToSWvDqfvaJ7rjYue4vcmswOnPditLpY7x6bUzoWLYQuOgeOkSTKfA7KYb8d6yGZow9anmzhTIbz6gaTZQrAtv2c2jA6a2Ypy5lqAu5F6tvZ9Xl6FBj+TM/itWGAI+ClyjThguTPyOJdYn8MKzZCPN1TbD8QbNLl1JLMhLRxlMmprCG1W4SPxF75k5pEIjBrh5WoRF2iijFwjHm7eiQY9zY8H2Pc1PzHtqwR7aDj5emhBCGDreFh9DafUvebwgvbY4Fbdb64/11KMpCmxAgu+nMYkHehfXkxRr98noebD0UrEJTWs3D6+U6NORYCmD4rsu4Mltbqh2oKVOWa6bAqQw55PUYZkTZ5ZMqwOfH3S2JrHiIuvk3heqjxZLDPg84ePnfWJCHsE5KT41++XCZcXMBkYmKkJdXgkdXv9yz9Lt34BrBn9igkhPDurgKynVRhQUHw5CBA2HtqlWwesVyyG2Vo0qSAmPoKASUQdwIjJKhC9SF3C1Qgq8fbxWnFYi0M0hDfLxaE4ngkF7nI5ztj18wcC2G/LfEXkukvjT65dvk2pDISUxlVKYZDOPhDu+Xh8bS74rNEC9tIM6EK24zUQSrfX4BdO3YEfLbtoUFc+bA1UsXadEY3zatX0+7mXSRpgiK1B4fj88QiVfpM2toh3zL2yQm5HLzPDFgf1KjHyfXzhaeVlchwjLU8f1yXrx8f0QYDf/pWYufLGry7tyhgwRoObt84QIMJSu8n5e3db2jlVwhuGojTefFKzBCcIzlOvV1jpOfLpGpBDlzftBCjX653KYIG5Fl4+VkY6qmucGeLbh6U4FAk159svOD/QXZRqohHxsH169ekYX61vVrcPvmDfq//H8/d/oUrFy2FEYNH86rN3eB+uER0L5+E8gtngadZqyE+p0GQGKdJuDtJ10tPf2CNdXou7m4CyTjzuv0w8+W98f/pAR5EAtOrbcXhVoCSGhcKN/06uCxcjR3ThcQJe2wAcKa0ZBnI0OpXyznfy9fvJgJ+KP79+Hnn3+mXUvYuvfsyRMJ7BfPnTUV4yWmwOD1h5g2cM1+SGmQLWld84tNU1f6kJYleF2uhYV/LDGhYHYm+ByfaRbk6Je/lGxmyBfUWseSIKOfggKccpAnZHevMH45hTA0WHU9OWtvk2amOygyNAzOnzktgPfe7VvG9jwE/dDBg/D+/Xv48hPC/tgI+8mjR00qxlVrykJusLxxc8DdzVMgNIS1O+bOh2+UUItmtk56iArFgBMUIZcr1rIklDhAph0Ji7Tk2tuw0tDh/XJe0gPLHK5ZkIBBX1NciBXr7gHd23akrgX/33HDyYf8w/t3xt7TjLQ0+PN//Rd4e3jAs6dP6b/9RGB/SmA/uO970+a1flOzkKO1HDRBkLX08g/VlMrHHMopnYT5c+RDqIlqIK/MerHW2wzOXJe7zcY1zJNtPHZ0yENrtzT2MWKNyVENFxWjBeLoCZ7D7ORUGLxsBwWtc8u2kvO5dNEiI+Q//viZwnzr1i0KuMGWLlkiaL4+f+6caTBAToEqyNEqN2hlKtJKq6ucO6jZXNBC2FiH2nFDlElGwfY+sd+ogRxdlkeShllyUK3jMeSE8lGmTVarsG5rhwfdKzDc1JVjZlDUeU5OAacbixeFaDd36N1ziAS0zOBQkdsSSjeUCPnL58+NIKcmJ1PAcZjuU+KX8x8njp8w6cx07qsacpToU5v1DEgSSlVP1Glo1lT50tqRYp6ZkHOgj2MdZIZGf2q8TMoVhWbkRCPtpTHCKpeFd3HrkB86q/IPy5gHEpcuSibcWjckDAYt2MjeDE5fJnFbCtu1K/XJ79w2gox++MEDB+Dd27cSrZjv9+41tToOGqcK8Np53Y3XD/VqzJ0Hb17TMv6AD+s0WkWhpNtfC+TM7GcTjbeb4zK1LNTHrJfLhDy+ZdcK4LJkG6MsaAXeXnS2KPra2PWuJGqKLk5+zboweN0BReC6tMoT6au7wP69eyjof/3xR7PqX1s2bTa+duCUhWYB77N0h7E/U1VkhZwDvjpZTZ1qx3HaiIy0yQUWy7KQc6BfZRVsae3kkIllQmBMCrsiMbdfudaFq4kYqDHUb9Gs/01W9d5d+qt2HTJDhG5Lfm4uhfzF82dmIV+5YoXxdYOXbDP7XvE1G3IViL6q0vrYA8r/bMP89SnIGi2fAOppCeT9WAcbrVFud5FMqAcTQ+zGiWHl50tzrWwRKm7F5n8wLWmdh5aJxn36jVANONqAcbMFq5qHiysc2r+PJoF++eUXRcjnzZlrbHM09z5FkxYZoypqO4L4+xI0LInVA/IMdlgVE0B/tgTySkw3g5zI8xoLiiJk/M6UNr1lMp9l3xmE4p9GQZ6qDXQpGMPufnGjgFxlYLd2HTUBbrBmcQmCYxXl59PV/M3rV4qQT50yhRMTdTP7HkFRCZrqVkqjKi48eTpX3fTrZc7hPjmOFSHnQD/AOug0jR3WPWV68KJrt2RvPnVQwbKmHjwiox5tojao31oFeloWePqF0NS2u5sHFbH3T6gqCK0VZja0CHC6CZ26WCDp7EmgPXLwANy9fcsI9KmTJ2Ho4MFw+tQp47+NHjmyFEAvL8XjN+oxzFSzorLlTeyq9dZpqoRcGTexHGsgr806aKrGrg65arEgsoFhDrFq0aXMIfeNTuGt5A2NzRzhWW1s2kVUPzzSYsAN1ipFOMIFdRtxNX//7i0NHVb6859pKNHlL3+B589K/fWB/QfQ51b3D5T/Aa3+3jgDyC+mssW9nFt0mOOpMFb8MbE/WAP5b4hd1qPJuRpDxgvH4jHLbtv0KXvII5NMcefqjU1TzfIH6dpYHVSlgaAOpO+gsVZDPmjWKkFyBNV4Tx47Cg/u3oFjR48KkkI4VAAf3bp0MfsjS23UutTXJ9dJbQ25WFtFL1dFpllZccOpCnIO9BZ6TAgYI7MrTuXkw8QqWWUNuV+0aY5QVK1mgs9DFQR0it7wO2Sq+PpZDbjB2mYIEy+D+/enqzkOE2jXpg35t/+Bwrw8o7vSplVp5rJ5fDI7RDl7rVE4H/cW6heLRMHnGKhDmxuWGctoQWJf8v/RA/LfE7vHAnR1SKCG+GYw84PG1G3FnAhR5pDHmm75MZnCzxTbvLNOdwshAN1y2+sG+aC56wQ5ifDgEKq6++jBA2NiiP+olppaKuxfow7zeOFJpY0OWAuuqQrT3Uuk3WO9q6IgWlVsjl9VkHOgd2C9idZahCzGxiE4oQrTZYlskFemkPvHVzHV1jRopzvkmCHka3NjxnLQit26Qc6KtMyaPp2u5p8/f5JEV0J8/bgfWgepjz9kkmmzWU29vkpgah2hEKkOHfkoryEzK+kzsf/QE/J/IPacFfpaq2Hey0RGmh83NizI9XIR1KfiTV09CU3b6w45Sh1LFHA9PKFrmyKz2U211m/4ZMHxq1fJoJDjwAD+48cffzQ+p1/xFMEx+q/aa5zDiZtxLd9RPJamWAfxIAVVgmlq2FUNOQd6f9abYXD+ggaBGtZoaJY2OWqOl62IZ6ZpsySaEWoryA2W5OkF3fM66wJ6dX9hLHnzhvWS1fzunbvGRWqg6G4SV7105AmWJWBFpZb9Bv9Ohcc+YGWtCnb0y/jiP2MexxaQ/wux96yLNEFDdRlLSo5Vx0KjGmWZDKrayPh5KouSVHpAXjppTjkDmuLtDT3ad7cK8u55XQTHxA2meDU/xjVMxLi7i+rFJxrj92pF9o3uHsb+ddY5lBHWR1uilltNkHOg92R2+1SqpLqmZRqjTBLnBLGGnZa5nqHxzjLIJhvPoPR6zJk5kjubj6+m8leBrT0AUW7uguTQscOHBKv5mlWrSyskyebU8Lq+y3eBp3fptcHyBs06h37BFi98GpVq0Rf/xpaQ/y2xa6w3b++trg8UfwxukmlvQexpYTYYkaJkhpCZuAxYL8gNK7pY7lnOMvz8oXePQZpBL6gjnLLWpWNHwWo+kIuRt6qcbnxNTEYdbrPpQj+j9rtgJasK+cQTuhVG8QzSwqxmyDnQM+RKRDeq3ISySk3TC4cwBIc6lCnkVByI3K4lm2AdITfuAYg7YBAjMmfVAwKhT5/h6lP989YL2ud8PDzg1PFjxtW8dlJp32VBdn5pVKbvaCOk2JOpOYMbkWBx1A0LtyaRVRvDhKiPiPX1Xt/InouHxP7e5pDL6bMYBEIvWNifx2qJw5lAZQm5p5cf7UEtC8j5NTM4/FXtyt65eRtVpbHN45KE9SM9elDIsabFk1sle05dUlonziWoMMaN1ZOa2/1Eew2l2qYLXKEVzpVSOzhNtOHEhp5/LAvIK3G+keSDqGlxGsmQkgtNqVXu6X1Pb39aRFWWkJsqFmubnUdkHMVOVukmMfHQp/cwWcj7j/hWKCHh5U1b5DauWyvYdEam1rBo2JXchtNXplkZ65e6+HjLVqRqNGzPTLYp5BzoQ+Q09czVDrN0WfzDYss9wlKekPMnQ2MXvNoLjl38+bWyYOC0pdJwYoDwPA/q188oKtQ0NgGachWGajvv2cVYwrtQtqjhHbPiTYn74qaDRJ3InumaDJKB/O+J3ZWLnZ8zI5ojjpd7evmWu6QzXrDyhpwfiVG7QTXsiWoHBZdmMFfuoZD3KOgqrPok7k7DrHr0v9s1zgYPQ4veNy6apd9YmuNoc4P8qUuCzdnV3d0sAjgtOYUWkNWsVt2cWOk2Vne+bpBzoNeR+wDdzNQQszo8WHosZTlaBUtE7QVyU9VifUmXjZo2uuykyrRBOVpGMSEx2PQDwpoaSzqfxBtn3OyiHLRSD6ucBfr6wZiRo+DBA2F29s2bNzBs8BBwk5/q3d6mkHOgz5brdlmkUI7LStemtO4lDSOW4eQ33EDZG+RG2DMa0O53NXF2YV+u8sj30s1mC42fpaHETbHUsJBs2rffwrt37xQ7mTCBFRrI3LPgDNq/tTXk/8BqejbIyx2SSe2y5CriG+VL9RGbtNexWSGhtPifURuNEBnkFuwRcn5rGXbeYEOxHpChfIYhSoLxcbxzYKEVbkJRpRc3lii9jKFF9Nv54p2WGvaitmzWHFavWgWfP38GtY8zp0/LqfLWtynkHOgBxH5kfaH6Hu7MsOIyRr9eZI3GjC4h/SQqDAVEeJsV10jzNbTTi4bZB+Tkx4gTLEzwZdIueJyHiaBr8dmZq7xvEIXZOyhC8x1Cs+QzuaM0rFcPFi1YAC9evABLHwvmzWcdf7vNIedAL5L7goMYhfM4sUya3q/GKNTqbZMiLENEAeGhP4CQaJ7b1FM3yENqNqPvgZs0A5zYoOEbkQg+YbH0h4ewevoG0wlyWBiFeiVulVxsCl2pVbL5e0SHR8CYUaPh3t27oMfj06dPdJqG6H1+IfYXm0POgb5ezj+fKkoQ4OouFh5ihRFT8gbo2+YWkcicnsAXA4qs1kgV5LjKGgBGeHEDh9BiHYe7h4/NV0d7tuzmLWDXzp3w85efQe/HpAkTWO85oKwg/xOxB+wN0DewRLQRTRTtwjHjKBUB1VuHJdssfFhPjWUGKTk9qZ56MHFt8MdBAfYNLl1ty2SldTzDKMmG9estW6U/foT79+5RsVKlx7Nnz1jRlrty4URdIedAT+DSr8ASDd3Eq29pxCi7FYcRMzqN0h1ygc6203Sz+pl14dSJ46qAxsYN1GkcNmQoVE1PpzH8nJbZsHXzFvjrX/9q9vV1a9dhfYbUMoGcAz1f7kRgxMUwibcTK4zIEBzSQ2wIoxKYOvcKiig3CDCqEB0RCbVr1IQ2rXKge5eu0LtnT+jXuw+ViEBtlOFDh8GoESOoHzth3DiYPHESFQKaMW06zJ45E+bMmgUTx4+nz+9Y1B5aNmsGtarXgISYWPBwtY17hPHrtavXwJ5du2Hb1q1UYi6/bTtJoulGyVUq8m8YAsB6YBy8a+fO4OtpuvZFBQXw6NEjTau+QRxJZIvLDHIO9OFyJw3dFCzFHMXo4GeFEa2Z8Ukzh5hM+cZ2myyEKyk+AerXzYLCvHwYNGAAjf2uWrkS9n3/PVy5fBmeP39uVrrN2seXL1/gxvXrsGjePCgeMoQK9GP2UCgD4guBUclUJQxdseRW3Wl+onJuX4ip05L5/Q4eOCiF9f59STYSZTCwCOwnxkqMSZ3iYcPB2910906vnAqHDx2y6LteuXKF9Vlf4XTxMoOcA32BbPmouxvMCPJTNaLcUiUrrXqEZgujyOpTo2o16NyhI3w7eQpd1W7euEHhspcHjlDhT57YvmWLcIFp3lFWGx5HUDKnjCxaxHwvdC9YM4w+vH8veN7jHx5DYpxJUCkqLJyGEq09bzHkrsj4vHFlDfn/IrZDtt3LzVVVl5DWgVko5B+f3R1im7QHv7BY8I+IB/+oJAiMqQxBcWkQnJABIYnVICS5BoSm1ISAiATwcBf66XVq1oRe3XvArO9mwt49e+jKZeuVWK/VnA/50UMHhYPJRE3aYmPtV9BvZj327N4jeN5w4m7he75++VKwSUzl6tcxYzl96lQaBtTjkZebq0qmwqaQc6D/I7EzaldLVhgxtpl28c3Ihvl0NqjSBZU0adTNMX6Okqsl4IgPnAnEh/zKxQuaxr/7h8VJR+m0bs18L/zR417A8LycFi3pez59/Nj4HNxIbt+2jTZPK/nqljymsf3yc2UOOQf6fxK7oyoLxwgjWpr1xA1rYk4vyFAJeXKrHsbPgZssh4Sc+MPikYf8TR5rzyPY5KdlSru2UirLvh9ugk2zRWPp+z28Zz7xgz8QdGMwVY9CpLghVRNV4T8OHdgvx9H/K3PIOdA9iT1V1QHTUTjQNoHAZ01kBUe04GQ51D5HdS65C5xeONj4GebPnVdhII+OiDA7lMx416wvdQFwsyjnqmEYkJ+6v3T+HNy+cZ35XNx8Y+QI/XO5SBC6NI3qN4BJEybSuUY/iZS/+A9UBwvwYdbw5JYL5BzoHnKScwJ9xLwBNuwQyqGVjTHEX4/P7gbJuX0htWCwcVK0IcmD5Z2O+PgrA/KqaSYp5bj6beXvZDhikjdVmm8PHz5kvt/r168Fz8POI3zPn0WbSizE6tKpEwW4aaPGNPTZirg3uTk5NBzZt3dvCvbypcvoHujSxYvUn1faB2FjdqN69Vmfd125Qc6B/mdiJYr6Izk9y2W+Z3hWrrGRIC+3bYWBHAujjJ1EWW1Ekz2G0k16RP08iTQH3w4dlA/1pSSYSiUmjB1L3xOzl7Z+3Ll5A4YOHMj6vA/KFXIO9H8ndlo2jt68U7m1wRm0tWtkVK0wkLdt3dqkkZOaCbEtukBs046ykh8GaQ6+LVm8WPY9MaRqTOzk5dH3fPvmtW2jSNwGe+2qVSyGXpc75Bzo/0dukoV4c4RRkjKbG8RlRDGDV1Eg797ZpKrlH1fFvDQHo1YdEzlyj7lz5hifVy29Cn3P58+e2vR7vn/3jr7P5QsXqICS6PN+sQvIeX2iEh89tm5OuemV86dAYJbO8SD/UQL5sMGmDbVfbLr5Hzqjkbptmzay73nk8GFT2UZwMFNkVO/HC+KvG74fP4zJsz/YBeQc6MWSrGdNoQg+bgzLTKc8JtX4OS5fulQhIJ/CK03F72e2uSQkRgJNldQ02fe8efOmIMJy/eoVwcwifi34zh07YDDxo7t07ERrVnDvg3U86PJgPQr+/fbt2zRzq/R4eO+e8ftVqZzKgvxP9gR5J/EHjMioX26Q86cpYxLD4SD/UQr5wnlzeZCbn/2DrW4SqREvb9n3xP5M/nOPHzlM35ef/MFuIAQbi9OqValCa2oSY+NowRqu/lii6+PhaSyhxffDOqBNGzfCxw8fRQkvoUuWWbMmC/L/a0+QN5PESivXKreNJ05rM3wOrPqrCJCvX7PGVH+jQnOc3wrIt2fP5Ifg8nsvt23eRN/3RxWToZn1N19+pqv+27dvaWz9Ja9MgP5gnj8TfL8mDRqKP+tbfm25PUCeYW76ROW8gWU4z7OJqW1vwIAKAfneXTtNkKvQOuSPe+QbZiflHsm8MOKShQu46XPvdP9+eHe4c+um4Pu1yc5WnOtpD5CHSjrIo5Js2gJnrnnY0PuIvmJFgBzdB6M2SkSCKhUvFuTr162TfV9+LH7yhPGlm88HD+D1q5c0nIjjFj98eE/j5z9+/kwzs1hMprXoDSscxd+vZtVq4s86zt4g/x+J/xcaI0oGDSjTLnlDJV5GWnqFgBxT7cYUPdlUah1TaLApkyYzV1ZcsXNathTI0Yk/gznDUgBcoe/duU1HMz66f49GaJ788AiePXkML549hZcvnsODe3cFrzt76iRLZauJvUH+r+KT6RMQWi4ZT2OcmFOZ9fP2qRCQo2FXUuk0t3B1Y8MZkPfs1l2Qpn/25AmFE4/fqrnpNe3zCzRDbqnh8C/GZ/W0N8j/0VwlYnLbfmUKOV+WDTc+FQHyYG6WECoJqDkHrE6qxmSD955sBsWrqdgvbtqwUZlBntsqR/w534kbmu0B8r+VSJeJNMKTcstWwtmHV1N99MgRh894osVFlerKoLybOsk8D6aGihxs/NKBjNS0MgH89InjNPQo+pzToTzqycH8aHPJCa3KK4nFAqLyGlyLik2O9Pjy5ScmEFUql06c9vLyUT91g6GChQNwWcfHflJjniMklPkcfC360Nit9P3uXTTUuIlsZrFyEcOc61avov+LOurmAMem6XqZktr3L6ypcOUOOQf6XyWF+kVDy22sCl+SGEtAHenxi6jH05gwqVX6nTzcPNQVqvkGM/3yA9/vZR6/KD9f8GPAHxU2UUSGhtKab8OeQK2kXHJ8AnQoLKQ9qqz3G9CnD+u1C6Esu/U1Qi4ZnZjarl+5TWfmRxewA9+RHhjtYEHRvHETI0Dq9iVs6Y4VS5cYj3ny6FGYNH48XVG1QKwkKYcb2JHDhpEVfTVcvnCe+V0WzJnDEhf6lZiPPUP+mNXQjJ066LaElaFGuUHh1RArR5/P0R6ofSIGI6+NqeMHoydm9yWhzKInaJiVRTagDegKbS3UmNbv16sXLJo/n/5gzLkouKrLNEmgrYWykImzAvLLzNuWixvtqEfNwbJWlEXdbsPn+OGHHxwK8ts3b0gA6drRVPOtZoShb2SSzXRq0H35dtIkFRvLE9Rvx5U7u1lzJSH+j6isbO+Q71P00Sq50pOuZgXSrXmCN3wVBYIc6XH31i1FH9ag5Kt2823GPnF9AaOItSbWiFgtYpWJRXGy3t6s+a+RoWHQgLiD6KJgswXG13GlTk5IEDRfm7GfiFWFspButhLyEao2JGRlx9oLrZMRLNIyDzWVm343fYZDQX7/zm0J5KOKi02inKmZ5jffidWVrgX6v1uJ1UBtHZXX2J/7Qeh5V8DG+Exz720vkMdpEnR3cafVdLaEHTXEDe+H2n2O9HjISNZMnTxJOl1CtA/BFd4/oRqtbzEzLiXEwuvcUie4bxIbid1lat7XLiDXspoLYHf1oE0AmgesaqwrxylkjvR49OC+BHLUR+RXImKlIR2REhhROqxWvVbkr2pXb5nr/H+JpRArIDaZU1g7S+wGF4B4z6kiv+RcnMPENhIbi6u22rGG9go5JoV6EHujFXYcZoU+JK5Gek5dM43t9jTbqWJPj8ePHjJqylfr5SKcthdmHA5yUcHWUG6OujbY3T1LG3UZg6+0i4UKpRmwJctRHk8e/yCtKd+5Uw/AbxHzckKuH+y/I1YdhWK4dK0m2DEaY8kAVrn6DUdqhcPqQDHkKKtsBdwHidUl9ltHA9yuIRcB/x/c6v5W+4SzQNrOZUn40aDBQhsBJk5yGMj5nez8uhGFNPorPy/vq/7ePqx8xWNHBNvhIOfB/s/EBlnit6P8Gw7AKh1tqM6d8Q426V8XtMtzGMhfvXjBTK4Y+jAJ1O87FhbsWzBnzpnTJ46/NPx9y8YN1xjn7qgT8vKB/Z9w2hc3WQAs8d0xDo4rPE4XVpP1w7oKR3lgyxkLcoNovaer23PW369dufyFMY91jRPy8oUdVbj6Enti1SBVFzfw9Auh9RoYf8cpxDiVGP+b/zwU4neEB/ZUsiDGOm8O8jdyqXSy2l8RnZ/NTsjtA/Y/cCnly7YcbLV+7TqHgBy7d1gAZ3ET0wjkH+Ugr5qWfkCp890JuX3E2qsR22MLyPv36esQkLM62tEa1y+N/btXcvmrHOQ9u3XbL84uOiG3X+CDic3jMme6QF69SoZDQI6yDyyAWzRtath4/iIH+ZoVyy4xMpz/5ITcvmH/HVcbg2UDF6yBHKUP3tlAMEfvB0sPUdxsfKPkKhP0yxfOf2IMG05yQu5Y0P+FG6a7mauV+FUL6Af277d7yFGwx1wf5tVLF3+UW8293T1uir53Fyfkjg09jmH8hlvtsQY6llP18iN2Www5Tkl2hMet69cl8HYsKjJ+jwtnz7yXgzwlIeGQmknHTsgrxg9gihjyZo2bOATk9xg15Xwxfn4SSGwF7dqJm1iuOiGvuJBLxEhRVQtVVx2x3LZvz57G73Hk4IHHcpDPmDr1REXafDphNh9//ygG/eKFC3YP+VNGJeLg/qax4ju3br0lB/nBfd+zKkDTnJBXXNA3iC+4I8z4FGt4o40YNsz4HTBUqCDc86vrN5XEMiH9nZBXXMjbiiHvUFhk95C/ef1KAu/EsWON32HOdzNPK3XK+3v7iOPlW5yQV1zI/1syuCsqygGynu8k4M6cPs34HSaOG3tSCfLw4JBTou/9wgl5xQb9nBj0mzdu2DXkKK0s6fOcP9/4+YcMHKgIeWxk1DGGX+5smqjAkA8XX/BZ39n3PKGfGZqIa1auMH7+Hl27KrorjFg5WNPA7ITc/iGPEV9wnA9v7487IiUtVKMyTU7Ov6AEOaMaEe3vnJBXXMh/iz6poK3O1Q3ev39v15A/vH9PAO6+PXuMnz+nRcurcoAfO3zoSURI6EkG5H90Ql6xQV8svujbtmy1a8jFDc0njh4xTY2o38AYJ8cUP1nlb/To0nl/kL8/7j9+YQCORVv/4IS8YkPeWHzhe3TtZt9hxFfCMOLFc2eNn93f2+ejj4fnNbdvKqntl53jjK5UfMj/JC5BRcFK/tRhe3t8/PBBMp0B3SwLyoyx7/PPTsi/DtB3iQE4f+683ULOGq2C0x80Av4IVWqdBVpfD+StxRBMmjDBrl0WwwhCcQucCntGbJJaUU0n5BUH8n/h9LCNMNSpWdOuIRePI+zCE+MX2RuuTqcjJ7P8m4py3Zzwagd9k3iIkz3P+hRXI44dNYoFeC9sE6yo18wJrnbIm4ohWbVypV364xhCFM8PWrpwIQvyoop8zZzgaof8j+KJCYX5+fYD909suE0Jod0syPs7IXeaGPRVfEhwQtyXL1/sAO7HsnDzhT8ZA6bGOyF3mhjyLPFqWLd2HRg1YgTs2rkTXrx4UWZwo8bK08fm4eYb6jqKPv88J+ROE0P+d8TeKYXgUhIToVuXLrB0yRIouVpCZSJ0K6P99AmeP30Cd27eNAs0jvBetWwZDBs8GFo0aUITWIzPu84JudNYoC/SklQJ8vOH7OYtqM751s1b4PixY7Qm/fWrV6qyplgf/uLZU7h7Sx5snGC8Ye0aGEPuKG1atYKEmFil2Zd8W+mE3GksyKvrJT/n4eoKUWHhVIYOpdw6tW8PA/v3h/FjxtChrtibiZOLMcadn5sLLZs1o/Mva2RkQEpCInU/cF/gpn64lbgTP9gJudPkRIle2lJFt4xsWkW/Vk5grQN9vAPDjeW0fb6G6+SE1XrQ/x+xNtwAr/cOAPevXPo+5mu5Rk5Q9QX+b4lFc4NYZxLD7prP5Qz1T5ym4woU7iTm8bVdFyectgf/98RciUVxs+hx9HZXYsXcD2ENsf3clIwnXDb1HTcP6RlX6nqPm6FZQuwSpx6AP6BD3B1kBrEhmJ4nVp9YIs7b5Grgf/O1X4P/D22WBLZbtGlaAAAAAElFTkSuQmCC;" vertex="1" parent="1">
          <mxGeometry x="30" y="70" width="85" height="117.62" as="geometry" />
        </mxCell>
        <mxCell id="JW3iJgfV2uW1eodX8U2l-10" value="" style="edgeStyle=orthogonalEdgeStyle;rounded=0;orthogonalLoop=1;jettySize=auto;html=1;" edge="1" parent="1" target="JW3iJgfV2uW1eodX8U2l-9">
          <mxGeometry relative="1" as="geometry">
            <mxPoint x="65" y="201.5" as="sourcePoint" />
          </mxGeometry>
        </mxCell>
        <mxCell id="JW3iJgfV2uW1eodX8U2l-9" value="" style="sketch=0;aspect=fixed;html=1;points=[];align=center;image;fontSize=12;image=img/lib/mscae/Docker.svg;" vertex="1" parent="1">
          <mxGeometry x="-100" y="330" width="190" height="155.8" as="geometry" />
        </mxCell>
        <mxCell id="JW3iJgfV2uW1eodX8U2l-11" value="CloudFormation" style="outlineConnect=0;dashed=0;verticalLabelPosition=bottom;verticalAlign=top;align=center;html=1;shape=mxgraph.aws3.cloudformation;fillColor=#759C3E;gradientColor=none;" vertex="1" parent="1">
          <mxGeometry x="360" y="330" width="76.5" height="93" as="geometry" />
        </mxCell>
        <object label="AWS EC2" id="JW3iJgfV2uW1eodX8U2l-12">
          <mxCell style="sketch=0;points=[[0,0,0],[0.25,0,0],[0.5,0,0],[0.75,0,0],[1,0,0],[0,1,0],[0.25,1,0],[0.5,1,0],[0.75,1,0],[1,1,0],[0,0.25,0],[0,0.5,0],[0,0.75,0],[1,0.25,0],[1,0.5,0],[1,0.75,0]];outlineConnect=0;fontColor=#232F3E;gradientColor=#F78E04;gradientDirection=north;fillColor=#D05C17;strokeColor=#ffffff;dashed=0;verticalLabelPosition=bottom;verticalAlign=top;align=center;html=1;fontSize=12;fontStyle=0;aspect=fixed;shape=mxgraph.aws4.resourceIcon;resIcon=mxgraph.aws4.ec2;" vertex="1" parent="1">
            <mxGeometry x="560" y="337.5" width="78" height="78" as="geometry" />
          </mxCell>
        </object>
        <mxCell id="JW3iJgfV2uW1eodX8U2l-13" value="" style="edgeStyle=orthogonalEdgeStyle;rounded=0;orthogonalLoop=1;jettySize=auto;html=1;startArrow=open;startFill=0;endArrow=none;endFill=0;strokeWidth=2;strokeColor=#808080;" edge="1" parent="1" source="JW3iJgfV2uW1eodX8U2l-11" target="JW3iJgfV2uW1eodX8U2l-12">
          <mxGeometry relative="1" as="geometry">
            <mxPoint x="436.5" y="376.5" as="sourcePoint" />
            <mxPoint x="580.500887149974" y="376.5" as="targetPoint" />
            <Array as="points" />
          </mxGeometry>
        </mxCell>
        <mxCell id="JW3iJgfV2uW1eodX8U2l-15" value="GitHub" style="dashed=0;outlineConnect=0;html=1;align=center;labelPosition=center;verticalLabelPosition=bottom;verticalAlign=top;shape=mxgraph.weblogos.github" vertex="1" parent="1">
          <mxGeometry x="870" y="31" width="105" height="105" as="geometry" />
        </mxCell>
        <mxCell id="JW3iJgfV2uW1eodX8U2l-20" value="GitHub Web Hooks" style="shape=image;html=1;verticalAlign=top;verticalLabelPosition=bottom;labelBackgroundColor=#ffffff;imageAspect=0;aspect=fixed;image=https://cdn1.iconfinder.com/data/icons/unicons-line-vol-3/24/github-128.png" vertex="1" parent="1">
          <mxGeometry x="1140" y="18.5" width="128" height="128" as="geometry" />
        </mxCell>
        <mxCell id="JW3iJgfV2uW1eodX8U2l-21" value="GitHub Actions" style="shape=image;html=1;verticalAlign=top;verticalLabelPosition=bottom;labelBackgroundColor=#ffffff;imageAspect=0;aspect=fixed;image=https://cdn4.iconfinder.com/data/icons/ionicons/512/icon-social-github-128.png" vertex="1" parent="1">
          <mxGeometry x="990" y="18.5" width="128" height="128" as="geometry" />
        </mxCell>
        <mxCell id="JW3iJgfV2uW1eodX8U2l-22" value="Webhooks" style="shape=image;verticalLabelPosition=bottom;labelBackgroundColor=default;verticalAlign=top;aspect=fixed;imageAspect=0;image=data:image/png,iVBORw0KGgoAAAANSUhEUgAAAgAAAAIACAMAAADDpiTIAAADAFBMVEX///8AAAAAAAAAAAAAAAAAAAAAAAAAAAAAAAAAAAAAAAAAAAAAAAAAAAAAAAAAAAAAAAAAAAAAAAAAAAAAAAAAAAAAAAAAAAAAAAAAAAAAAAAAAAAAAAAAAAAAAAAAAAAAAAAAAAAAAAAAAAAAAAAAAAAAAAAAAAAAAAAAAAAAAAAAAAAAAAAAAAAAAAAAAAAAAAAAAAAAAAAAAAAAAAAAAAAAAAAAAAAAAAAAAAAAAAAAAAAAAAAAAAAAAAAAAAAAAAAAAAAAAAAAAAAAAAAAAAAAAAAAAAAAAAAAAAAAAAAAAAAAAAAAAAAAAAAAAAAAAAAAAAAAAAAAAAAAAAAAAAAAAAAAAAAAAAAAAAAAAAAAAAAAAAAAAAAAAAAAAAAAAAAAAAAAAAAAAAAAAAAAAAAAAAAAAAAAAAAAAAAAAAAAAAAAAAAAAAAAAAAAAAAAAAAAAAAAAAAAAAAAAAAAAAAAAAAAAAAAAAAAAAAAAAAAAAAAAAAAAAAAAAAAAAAAAAAAAAAAAAAAAAAAAAAAAAAAAAAAAAAAAAAAAAAAAAAAAAAAAAAAAAAAAAAAAAAAAAAAAAAAAAAAAAAAAAAAAAAAAAAAAAAAAAAAAAAAAAAAAAAAAAAAAAAAAAAAAAAAAAAAAAAAAAAAAAAAAAAAAAAAAAAAAAAAAAAAAAAAAAAAAAAAAAAAAAAAAAAAAAAAAAAAAAAAAAAAAAAAAAAAAAAAAAAAAAAAAAAAAAAAAAAAAAAAAAAAAAAAAAAAAAAAAAAAAAAAAAAAAAAAAAAAAAAAAAAAAAAAAAAAAAAAAAAAAAAAAAAAAAAAAAAAAAAAAAAAAAAAAAAAAAAAAAAAAAAAAAAAAAAAAAAAAAAAAAAAAAAAAAAAAAAAAAAAAAAAAAAAAAAAAAAAAAAAAAAAAAAAAAAAAAAAAAAAAAAAAAAAAAAAAAAAAAAAAAAAAAAAAAAAAAAAAAAAAAAAAAAAAAAAAAAAAAAAAAAAAAAAAAAAAAAAAAAAAAAAAAAAAAALI7fhAAAA/3RSTlMAqAH+/Fj9AgQDBwb7+vbyBQoJ9RjxDPkT9w4IEfMPHfQW2/jgHu/jEO7G8EXed78Xqtbr6g0tGiTJO3g1nm4wzxTSIuwVjM0zRlJ2TY/fGQsxZ7fAG4OjKsVOr+i0dIdcLCjdy8O57VXOQGTY5z+VxF8fN31a6WySzJ8p1aSCrIRo5uFr2mK2IaaryGDc5NR6L3BEkzapPdAyfOVIZkLCvLHiVDkSR09DUz7HJmGXHMqgSyMrs3ttuJpWTDrThr2LJS6Bfq4nNNddsG9BwZkg0b6RjbVlW1dzoVnZrXJ1p1FQgHGbooVJimOJpZyymJa7iJ26lHlKjn88OGpeaZBsNgujAAAi2klEQVQYGe3BA6AkScIu0O8Wrm21bdu2bdu2bQ66Zxpj27Zt2/bM8v/ee/t2/53uiayKyIysyuqJcwDDMAzDMAzDMAzDMAzDMAzDMAzDMAzDMAzDMAzDMAzDMAzDMAzDMAzDMAzDMAzDMAzDMAzDMAzDMAzDMAzDMAzDMAzDMAzDMAzDiIjk0mY3NT1rbu2/Hnm0XGEJjD+LJg9+8M7P22ZX4inipz3/8rOLr6m9KgXGGSqh+xefvteiMUNLO/eGg0+Xwjiz+Ca0fbIq5W0addsqGGeIqzec3ZjqznvjiX4wYly5a4btpX37vmwHI2YlB0/66VTDxc1hxKIJ/9OZekz+qBmM2JI/axc1Crx9JYzYsejjMtRtxoJkGLEgefM9dMXSh3JheF3Cgsp0TcGzQ2B42sh9dFVR10IYnnXOCLou7+EmMDzpwZcZEY0+SobhOdvX+Bkpe56G4S3VD6cxgvx3lIXhIU9fyAjbOxKGVyR39TPy4rrA8ISmzzMqOo+HEX2+jyoxWl4uByPKrjvJKJpWG0ZUvVaDURV4F0b0lF3DqHsvC0aUPDCJHnDudhhR0boxPaHzIRhRcH55ekTgdRgRtyCV3vFVCozIakVPeTkZRgQlLKfHTM2GETHJDeg5J7NgREjZevSgwfkwIqLZ8/Sk+U1gREDZffSoXWVhuC7zJD1rcikMt62kh81PgeGuxfS0G2C4ajw9rhcMF80toMfF94bhmok16HllmsJwSYU6jAF9u8BwRXYLxoT5KTBckPAIY8RKGC4YS806V6sz+54Z1zdcGqBms2Bo92gRNYlf/cZDWw9dnY3/8FVvvij46QWT/NQk4zkYmiXUpA5LL9h/eTEs9G9928s51GGwD4Ze79C5Ol3v9iGM5Nq/NaRzB2FodXU6HXprbTtIevTLOXSoaCIMjRLm05H4b2r7oCBx5AWpdOT6JBj6HKQTNbp2grLchzLoxFEY2jRPp31Ve2XBlsIvc2hfWjsYmvhO0LaCPoWwLffFSrStYyIMPdrSLn9cJzhSrgFt+zsMLW7KoU17/grHRu6lTUubwNDhJ9r0XX9oUHytn/YMhaHBcdpTrTY0OWc2bclpBsO5mrRlR3Vok/82bfkahmN30Y74XtDJd9RPGwI3w3DIdy5tyOgNzXrn0YYxMBy6kzb0nQDtJr5FG56G4UjSbKqr2QUu6NCe6ibDcOQaqhvRBK4ovZ7qnobhQGZlKttVDJcU16SyUTAceI3Kri8L1+Q/Q1WBhTDsG0xVK6pDVlb95gOuvPHK5lmQlrWLqj6HYdsqqupbCBmFN66/rwz/o9bq7+//tRgycqtRUY0sGHa9SEXp7RDW1QNveIt/FGjxw6WZCGtADhUdg2FTVlUqehXh9JhKa6OHlkM4V/ip5h4YNm2loj4ILeWaexhaYFRtH0I7SkXHYdgzmWrqJSKUwlvnUMK+QwhtG9WMgmHLY1QzrT5CyLw3h5LWVUEozWpQSXx9GHY8SzVPIIQHVlBeztFkhDCeagbCsCGhMZVsQwgLylBJxQEIYRSVTIVhw1+pJKMcLBXvoKqcIKxVaEQVaaUw1HWlkg2w9Lc6tGFcAiw9QSX/gKGuIlWc8MHKhlTaMqYsrPhmUMUFMJTdTCV3w8qbftq0rxBWLqeKonwYqm6litth5dI02nZ9PqwMooo7Yai6nirOgoVF5enA9ymw0DSeCs6GoWiInwrGwMKqznSkQQIsrKSCMiUw1LxCFUcgVu5COvQtLEygirkw1PxIBbdALL8hHbsGFupRQV0YalZTwY0Q+5zO5ZWDWE8qGAVDSXE85VVLgtCqNGrwE8SSNlHeRhhKLqeCtRC7j1psgFgrKqgCQ8V+yotfCKHXqEeZ7RDqEqC8O2GouIDypkIofy81uR1iL1DebzBUjKa8NyH0JbW5GELLKK8mDAULKS++FCIPpFGbQRAa4qe0ohQY8npS3i4I3U+NWkNoF+W1hiFvLOU9BJGE86jRNxB6l/J2w5A3j/LuhkhtatUUIk0p7y8w5G2jtKpJEPmEWo2DSEIZSlsJQ97jlPYIRPqXoVYVIVSP0l6AIc2XTmmLITKemh2AyJeUNgmGtFzKuwwit1Oz9RDpSWlpCTBkXUx5nSBQPUDNZkNkCOVdB0PWEkor44NAS2rXDCLTKK0lDFl1Ke0qiLxC7W6ESHtKexWGrLWUdgdEfqN2iyFyAaXthyGrK6V9CJFB1O4RiBymtBdhyPqO0m6DyCZqVxkiYyntWxiyVlLaEgj091O/fAjcSWltYMg6m9J6QOAxuqAcBOZS2hoYsm6htO4QCNIFwyGwiNIawJB1ktIWQuA1umARBAZQ2pMwZNWktCEQuIwuOASB4ZQ2CIasbpTWCQI96IL3IdCc0u6DIWs+pU2EwDl0wUgIlKO0KTBk3U5pByDQmi5oCYEhlNYChqx1lNYaAhPogokQaEpp3WDIeoPS/gqBm+iCLhCYSWkvwJA1j9J6Q6AZ9fMnQuAKSlsHQ9bnlLYZAgl51K4RRAZS2h0wZD1MaV9CZCq1+x4i+yntBxiyXqe09yDyMLUbB5H/obS6MGTNorQREDlE7a6AyFRKewWGrNqUVg0iTQLUbSFENlLaFTBkNae0+HyItKdmjSFSSHlPw5CVEk9pcyEyj5p9ApGZlHcAhrQLKa0XRJZQsxsh0pbyysGQ9gylvQ2RwhxqVTUFIh9TWlESDGk3UFo1CM2jVm0gtIXSZsCQ9xfKawaR5vHU6XyIbKe8T2DI+wflLYHQKGq0JwkiGyjvXRjyLqa8nRBqSY22QmgU5X0GQ152KqWVz4bQLmrTNxEiiXmUVw6Ggm6U9wGEplObVyB0DuXVgqHiO8r7BEJJdajJpkwIfUd582Go2E15VTMh1JOanJcPkaw8yvsWhopVVHAFxN6jJvdCZAEVbIahwpdHeYMhVjiaelTqBIH5VNAahpKTVPAgxD6gJk/ij1ZRQecEGEo+pYKPYWENNTmEP3iJCuJgqLmUCtIvgVhWC+qxOhGnKcyggmtgqEnJoIJWsFBhD/Voi9P8QBVDYCjaSQXTqsPCA42oRY0OOEWF8lSwD4aq8VRxP6z8LZ1aXItT/EYVL8FQdUmACiothJW5NahD4AB+p186VfSAoWwwVayBpYl1qMNg/M5HVFFUAkPZO1ThPwJLFVpQh+n4nff3UN5UGOqaU8muJFjK3kkNKmfjd1J65VHWZhg2rKaSWxHCq9Po3MM4RYWP4ymlqBSGDXWpJK0dQqj/Nh3LKYdTtatHGTtg2FE/jUo6piCUOzfSqTicruckhncchi3rqGYcQipZVo0OnYPTJdfNYBiTfDBsuZRqAj0QWsrAynRkRgL+oP7X8QzpVhj2JFSmmqqPIozMy77KoAOvQGDAYIYQGALDpqNUtKUUYZV88FUN2tW4LESuqENLY2DYNSRARScTIcHX/M2XnsmgHX0glNwqgxbeh2HbN1Q1D9Kym00457LKVJM6EWK5P8ZTZHQiDNsup7KHoGQ6Fd0OKwOeocBaGA7Mp7JPoeQZKuoNSxf15emqVofhQG2q+wEqBsRTTcUUWEr+pQxPtRiGIyOoritUfExFvRBCbpt4/k7nJjAc6UEb5iVCXoU8qsnIRShHTvC/6sJwqCZteKEL5L1LRSsR2vS+/Lel/WE4dCnt2HQE0lIqUo3/LIRWsr8M/+UdGI5dRTvSn4C0kVR0lQ9h9FvpJ7kxG4ZjM2nPz/0h63sqegJhdZ9CLoOhwVe0p05tSLo5QDXn5SO8O08kw9AgN482tSmFnJ+p6F4YkdOWds3pCSmX1KCaSp1gRExSe9q2bRVk3EZFT8KInIv9tC11+SUIL7EhFR2CETlf04FptyUirEupaHUijIgp7EwnHv8MYd1CRW1hRM50OjNoFcK4Oo1qanSAETl30JnU5ZcgtJeo6FoYkZO9mg7VaJuIUMo2pprAARiR07SITj3+GUI5RkWDYUTQ3+ncoFWwlnAuFU2HEUGj6Fzq4UtgaSYVVc6GETmXVKMGNT6ApXVU9DCMCLq7Ep0LNIWl7ZWoJqccjAh6zU/H5iGEe6koDkYkvUunpl2CEPI3UtE5MCLpOzq0GSEtoKIZCTAiKOkWOtIxCSH5rqeiV2BEUv/JdOJphHExFTUuCyOS6velfesQ1ldU1AdGRD16Hu0qeg5hXZdDNakTYUTUTZVp01pIeJiKbocRWVUq0pYLsyAhexMV9YYRWf0a0o4gpASpqGIKDE2ych84Mveucgijy7lUdwKS5lNRL1hL2X735eff9f70N/+x9dirN7a8eUh/GKcrmXDRrcNqNqxWK8B/CSKc0uupKr4dJHX3U01GLv6g8Pg1i7+9pX1jP0+X2mjL1MPLai/0wUDpzA19ttWJ56mCCKu4IhU9C2ltqGglfq/ZXYtHbWJY6R13Dr2xFH9e+b/e3y2eIkGENTyVaqp2gLTcDKrxn4X/L+nuh7aNpgL/PdcuqYI/n5LL19dMpZUgwppKRU9BQV0qusoHIHf32TVox4U7jtXHn0i5uvUqMZQgwhlJRasToSB5EhVdc869M/y0L37wsmb4U8jffZ+fYQQRRvIeKqoNJR8w8vwjPqqCM1xSjzU5DC+IMFpR0ZNQdB+josXf83Hmanr/eZQSRGj9ylBNpU5Q1DTA6Mhb/ijOTJ+NoKwgQnuDiu6Fsu8YLf6fLkvAmcbXsxvlBRHSIj/VnJcPZR2qMnoq1y3EmSRpyT6qCCIUXwsqGg8bDjKaMh4qxpki84uKVBNEKAuoqKYPNmQ+zqia1isLZ4KEgRdSVRAhNNlINf7HYMtnjLI5m1MQ81qvoLogQviBin6ETdsYbX13JyGmlV4bTxuCsNa8gGry6sOmiWmMuufPQuzy7W5MW4KwdgEVvQ7b+jD64l/MR4xqOoU2BWGpBxXNzoRt1RvRAy7sjViU3zWVdgVhJbEhFX0GB/5JT2iQi5jTbgvtC8LKU1Q0Bk4kdaQnVD3mQ2zZUEQHgrDQoSrVFDwAR47TI24pRQxpEkdHgrDwLBV9DodG0SP6PoaYMaAinQlCrF081cxpAoc6VaJHFPwdMeKflehQEGLPUNFuOPYDPeO9fMSA4rPpWBBCd1JRCx8cazKHnvH4zfC8cg3pXBAi2Zuoxr8IGlxD78iZDo8bXo0aBCHyIRW9AR18K+gd/tvgaXfXoA5BCFRJp5oy/aBFS3rJvfCw3unUIgiBs6moLjR5j17SJhFetTVAPYL4oyupqGIKNKmSTi+5JRvetJ+6BPEHCe2pqDe0eYieUvMSeJBvObUJ4g8GUtHt0CerGj2lYTN4z3LqE8TpqjeimrSJ0GgJvWXfJfCa/dQoiNP9DxX9Bq1q0luu6g9v2UqdgjjN8FSqWVoWWrX201umpsBLegeoUxCnmUpFs6DZDfSYsxPgHXenU6sgTjWSirolQLN+Zegx18IzhtegXkGcInkPFbWEdr/Qa4bCI8pVo2ZBnKIVFX0F/ZLr0Gs2wxOKG1K3IH6vXxmqKT8ELriCXpPWEl5wNrUL4vfeoKJb4Yp69JrzKiD6/kn9gvidRX6qqVMCVxyIp9e8kIRoG1CJ+gXxX74WVPQ+XPIsPWccoqxJReoTqDhm5eFx+9turYL/WkBFJ+GWLrVoQ97sEd+0ub/u660Wrx3X9eufZqdTI/9IRFcc9ahzQ6/LJmbij5pspJrUm+Gad6ikaMYnvX4th9N16f7miy0KqEetmxBNG6jB6B1fbIeVH6hoOdyT+Ralre56KBnWki/+6IJ0anBuNqKnXRGdqrx+AkJoXkA1nUvhorsoJe3JV8ohvP49h1WlY10RNflb6ExGm5k+hHQBFW2Aq25neG+9WwGyMmsPK6Azge6Ilq50pOP4bITRg4rOTYKrVqUytKJhV0JN7oej6Uj7RERH01Q60GKkD+EkNqSiK+Gy5Qwl5/MOUJcyfgWdqIuo8E2hffUOQcJTVHQ23FY6jZbSf6sAm96fTfvSmyMadtO2LT0go0NVqkmvAtdtpoVKy/vBvsSBc2jbfYiC0sa0qWhxMqQ8S0V/gfuS9lHo7IVwpv/i8rRrKyLvWtr0cifIaRdPNZuyEQGHKDC5JZzrNIU21aiPSGsdT1vyXoOsZ6hoOiLiAp5u4wIfdEgYW4n2PIsIS1hBW7rdBFl3UtFgREbzAp6iaH1/6HJzN9qSth2RNZC2zEuGrOxNVBN4EBHyOX8vbiE0SnyJtqxERGVeSBvypkPeh1T0HSKleCn/1+SW0GxrGm0IPIBI+oI27J0AeVXSqaZGISJmFv/tvAU+aHdlZ9qwBhGUVJHqHq8CBWdT0TJETsIM/j9FQ/vDDZ1WU138cETOEqq7qhAKrqSie5IQQVfy/4qrApcUz6e6BogY3z4qezkLChLaU9FxRFQDTm4J9zTZRWX+A4iUnlT2ciJUDKSitxFZC//hg5vKTqayJxEp3ajqqiyoqN6IaoqewxmmtD2VHUFkfEZVjxdCVlKHqxd99hUVDYW3NVk44PKexycWQ15hR6r6EZExgor2VoGMZr3/8s1e2lEtC16V3fLgjopp/LfyWwbv6DorFzKqNKai8k0QCU2pKG8CwvLd/WI12vYmvKnT0Rmp/CN/zV5XI7ynU6loFiLhfiqajnC6d72QDkyBF9Vvu4vWGt57lg9hPEVFuxABSedRzTyEMfMFOhI/AN5z0ycBhtHwMoTxCRXdDPf1oJpuyQip9gk6dAc8p8rHqZQw4q8IKbsb1fSB+9ZQSd5NCGXVFDpVqws8puzhAkr65maEMryASjqnwG35OVTyGkJIalWJjh2Exxy/kPICba5DCIup5k64bTeVvIwQmk6mcw0T4SnZL/qppGoPWMvsSCVT4bb7qKKoE6xtLqAGPeAp7WZTVeApWGsdoIr4KnBXOT9VLIalhN+owwXwlB5laMPHmbB0P5X8E+6qSxVbkmEl+xHqUOkmeMkTabTlRAdYya5GFU/CXfWoogesVGhBLcbBS1r5aVPfprCygSryEuGmkkpUUA9WmpxLLTbmw0PupX0ZTWEhszJVnAM3XU4Vh2Ah8yfq8QQ85Bid6NsBFr6givVw03oqaAErb1CPq3zwjktT6ciJTIgl7qGC6+GmmlQwEhaGUg9/a3jHgxl06GNYeIIK4gvhnvxUyuvog1hPatIG3nFJNTr2FMSSLqSCINzzKxWMh1iHpdQjrz68YwedC/SA2IdU0AbuuZ/yMrIh1oCajIV39KQOVa+DUJV4ytsL93SjvDYQu5OavJUJz+iwlFq0gdggKhgCt5TGU95MCFVoRE1+hXc0oB6BmyF0BRX0gFtmUl5lH4RepC5zYSmOseobCGUupbx34JYNlLceQqXlqct9sBTHmPVXCM2jvB/hlj6UNwFCv1CflrASx5g1AkJ3UV4LuGUbpY2GUMpG6vMTrMQxdl0Gkf4FlFbGB5fUobQdELqGOv0NFuIYuxr6IHKS8p6DO0riKe0LCN1DnW6AhTjGsLMgMpby7oI7JlDedoicT61qpUAsjjHsXojcTHl14Y6LKK0OhE5Sr94Qi2MMawihRpQ2DO64ldJugEjZeOo1DGJxjGVXQ6QepdWEO4ZRWi+InE/NMkogFMdY1gsihyltNtxRk9Iug8hQ6nY5hOIYy2pCZCClNYI7GlLaRIi8QN3qQiiOscyfC4GWlBbwwRXVKCuQCYHE8tRtJ4TiGNNmQaA65VWHK2pRVkWIPEbt+kIojjGtK0RGU9pNcEWAssZA5Cnq1wEicYxpOyDSkdJaww1ZlLYSIg2o3+UQiWNMGwyRepR2PtyQS2mHITKZ+i2BSBxj2haI7KS0JXDDA5Q2DiL3UL/bIBLHmFYeIt9S2m1wwxFK2w+RitTvQ4jEMbYVQ+BTSjsKN8yltLYQqUb9DkMkjrFtIgRep7Rf4Ia7KG0rRBpRvx0QiWNsOw6BsZT2OtxwEaW9CpEM6hcHkQaMbR9A4BdKuw1uOJ/SjkEkjfrdAZFBjG0XQ+AvlDYQbmhJae9AIIEuuB8iIxjbFkJgPaXthhsepLSHIZBQifothkhHxjR/CgS+pLQlcMNzlPY5RDpSv7YQqcyY1ggifSjtIrihkNKuhUgc9RsPkWmMac9DZAeljYQbUihtGEQepn4DIJLGmDYIIvMp7Xy4ooCyBkPkImqXlgKBXMa2HyFSjdKehis6U9YciAynds9DZC5j21AIJAYobThcUYfSiiGQmUbd3oDIMca2GyGwkPL6wxXPU1priDSkbh9B5CXGtDLJEDiH0hrBHScpbTxEvqZu7SAyhjFtJ0SWUdoKuGMepQ2FyFxqVhFCFRnTXoXIGkp7G+5oS2m3QMTXl3qNg0hxgLEsrTpE9lDaS3DHpZSWlwSRtdSrO0R6M6Z9D5EulNcW7lhIeYsg0pxa1YFQH8a0zRC5i/Iugzt86ZS2H0IjqNN6CHVkLPNfB5FPKe8AXPI8pd0HoWPUKKcLRCr4GcsaQKgb5VWHSxpQWlEJRKoXUZ+uEHqNsSz1AYhUobzz4Ja1lHc+hNZSm/RcCN3AWPYdhNpS3jq45VXKWwOhkknU5UUIZWUwhpXPhVA9yhsLt3SnvJwmELqRmuQMgdASygvEaZJDTdZCqDBAeS3hlszylLcbYqOoxyyI3U55LaDJU9SjcRMIbaW8tBK4ZirlvQCxKjnUYR3E+gUo70to4nuGWrSFWAvKux7uqUt5/ioQa0UNqpVCbCwVfAZdOpWnBjVTILSICl6Ee1pTwVCIZTakY/FzIZYwm/JSm0CbzXTuwvoQ20EFb8I9SbUor2oxxJqPplPrYWE6FeyCPr5RdCpnAMSapVHBc3DRBVTQChba1aIzuxJhoT0V/ACNsq6nM/6LYGEtFcyBmw5SwdJsWDgnnU507gQLN1LF+dCpfmU68hdYyG9MBWvgpgepoi2s3JVK+/YOh5WaVJCaD62G16IDDXyw8CFV9ISbfI2ooFoKrIz30663FsLKcaqoCc2uzKNtz2TBQv3yVJCeBVc1oIpbYaktberWBVaS2lPF69Ct3Rza9HUKrFxLFY/AXa9SRfpzsHRRDdoxuBiWnqIK/3Ww5cBFsPTcW7QjcBCWrk6liifgrqwyVHELrJV7huqeLIGlfnlUMQV2VLgjPmc7LHVoQXVVL4W1R6girTpctpJKLoO1hFtTqaZgfRKsvUclm6EuuVceye9hraSPn4reehTWrqCSqXDb01RSOQsh/G0SVbwwESFcTiWB+lDWcxL/5RqEMLMylYypDmsVGlHJQLjNt4lK5iGU4mGUNvpVhFK2DpWchKp29fhvNXIRQvFKyjv3UoTyJJXE58J1n1LNdIR08dvxlBH/c1mEtI5qZkFN/Y/j+b/WIaSZUyin8hMJCGUB1UyB+x6lmrxOCK35vByGExjUHaEto5q0S6AiuW4Gf+82hFb7KoY37fVkhFSuFtUsQAS0oJoVKQij8OhohrKvVzOEcaQS1TwCFVfU4alSr0QYv56MZ0h7x1VHaNmTqaZxMiJgMxUtR1jJs8bUoFij5d0RVvEeKjoH8gY8wz9YWg7h9PtoBa10HPqYD+HEUdF6REJhARW9Agm+4a/cUJGnSJ096t6RmQgvcxAVTYa03B/jKTC5BOFd3WrUXp4uUO/gdkh4mIpShyAi7qCiwPuQVOGD128dev/yOz5pMOzWnqsyIce3hqqWQFJyqwyKvQE5/UYOHfbyVW81Smt87rav124Y+Vh1SLnIT0VxiIybAlRUNBdu6kNV1RIh56K+tNQVbnosh6ruRoQMo6paB+CeVlRWF1KOnGAo4+Ces6pS1QpEyio/Vc25Gm45RmXlSyEht008Q3sIbmmZR2ULEDHrqKzRWXBHK6r7GeGV7C/DsI7CHTPLU9nSZETMAKorfz5c4OtDdYHmCOvOvpSx1gcX1E6nuqOIoDFUlzYe2mWuoQ3XIpzuUyipQTa0212J6s7LQgRdTBv8vaBZ8SDakFEfofVb6ae0FUOgV+Jy2vEFIuo+2vF2Weh0ZA/tOIqQSm4tQxUbW0OnDvVoxz1JiKhFftoxqTv0WVaJduzNQiivVaaiomPQp11l2vIrIuwO2lKwDJqUXUd7diOEx+bThm3NoEfS2HTach8irbAz7RnVDDpcXof2nJsAa9f6aUuNN6HDgRW0x38EETeLNmV8lAin+r1Hu2ojhNdp184ucKpkXCptGobI811Fu56/G44kPZVHu8YglKTraVetViVwpPYW2lVUBVHQLkC7/G3Kwb7j7WlbresQUtM02nbhggTY1rIe7VuLqFhO+9K+bg57bqxJB7YijIfowLmXwp7u2+jAuSmIirJz6EBgxwQoS5jenk4MQjgpq+nEPQOzoOysR+hEwYOIklfpiH/MRclQ0W/sbDpS6zqE9bd4OlL1pU5QUfhURzqzH1Gzkw7V+PZuSMpacnuADm2FhD50KH7qsQqQk1D77AI6tCsJUVN2Eh2ruH5mMsKp8NoNGXRsEGT0r0PH4k8crIJwKoxf05iOpT+KKOpeQA3Sv//lrCRYKe7dp6OfGtS6DlIO+anD6jYDByTCQv1DQ1f4qcNBRNUyalJ+xnsfvtk9H7+XO/fYS2MqBqjJFZA0lLqkT5lX982W1yXhPxLrD5858HC9RtRlsA/RtY5apS+tOGPwLTsHjejYd1oatboXshLGUK/UOZv2PP78ismTalGzMtsRZWUnMTbcngBpZbcwNvjfR9Q9VsBYMKkUCoaXYUz4BR5wG2NAzoNQ0tPPGPAJPKENvS8IRZ/S+0YkwxMSb6HXdYWqhG30usoV4BHZ8+ltO5OgrHpFeluZpvCM0n30skEpsOHR0fSy+N7wkCGb6F0nsmHLzY3pYWPhKRM706tWFMOmpp3pWZ/CYxaVpzet7gDb2k2jRz0Ezzm/Er1oUjM4cKQqPWkxPOh4Br1n03Y40roWPagVPGnAaHrN883g0N8y6Dlj4VE3TaK31CsLx1rm0WMOwrNy29NLGiRDg+F16CnL4GHF9egdyxOgRYcT9I6CrfC05LfpFa2gS0obesXGi+FxCT/TE4qegEbvxtMTRvSD9wUzGH1bDkCr3mXoAd+mIBY8MIPR1qAYmj1YmdFWMAsxInkeo6pgGfSr8D2j67xFiB0X1WL01HkMbvBtzmEUzc9FLOk0mdHyZHW4pPkIRkvB0UzElpQ+8YyGzgvgnoS6BYyKmqsQe87qxsgb1gGumtCekVe+bQJiUcKyWoysPbXhtsyhAUbYT88hVtUfxghKHZeNCOh+gpFUYzdi2cyGjJSrHkSEXPY4I2ZdLmJbZt3yjIR97yNyEgeOZkTMfxqxr1mfHLptz/gERFT+h+XpuhaX4szQZVwe3bR3YCIiLvfZAF014y6cOao/PI1uafxOCaLi0Wdz6Jp7evpwRsnvNZpumPFFFqKmdGxfumJ2MAFnnOzbVlOzSsMuRnQlfPACdSs4u3YCzkzdX2xMfSq36gIPmHBHDjW652AhzmCJdzUoog7ld45MgEeULqsXoBYZdyzCGa/6K1PoUOeVvUvgKV1mbSugQ/FTrumPP4fnNjRoRLuqHT6eBA8qO/6RdNq2t02wEH8mvgPvjMmgqjmPjG3tg2dlXXFt+wCVFU19ZwL+jBIvPvpCVUpK7XZ4yXPwvqwrez2ykdKqTnmpRwn+zCqcM+vzCx5Po7W89m9/vmFuFmJIlTtfuv3xdIZU1O2Nd8+/Dsa/JD5wY9uH7//2q28Gd9syp3wgY+OW9lMG7bzh5/3BswoRqyq0nj728C0dl9ZKD/A/Miq3v2/ns+Pe7Xl1Eow/j4SSsl2GbH+gQiIMwzAMwzAMwzAMwzAMwzAMwzAMwzAMwzAMwzAMwzAMwzAMwzAMwzAMwzAMwzAMwzAMwzAMwzAMwzAMwzAMwzAMwzAMwzAMwzAMwzAMwzAMwzAMwzAMwzAMwzAMwzCMM9H/Ad6+bE68KjPKAAAAAElFTkSuQmCC;" vertex="1" parent="1">
          <mxGeometry x="975" y="187.62" width="182" height="182" as="geometry" />
        </mxCell>
        <mxCell id="JW3iJgfV2uW1eodX8U2l-27" value="" style="shape=image;verticalLabelPosition=bottom;labelBackgroundColor=default;verticalAlign=top;aspect=fixed;imageAspect=0;image=data:image/png,iVBORw0KGgoAAAANSUhEUgAAB2IAAAXNCAYAAAA47J8RAAAgAElEQVR4nOzdTW5kR3YG0KDSA6+hV+AlcBWdsBZQtIYaeupRawEeE4YHRHHmCQUOegkNaCEN7aKQHmRJJbGKfxkRN37uOYBRdgM2AvC9zPfeFzeiFAAAAAAAAAAAAAAAAAAAAAAAAAAAAAAAAAAAAAAAAAAAAAAAAAAAAAAAAAAAAAAAAAAAAAAAAAAAAAAAAAAAAAAAAAAAAAAAAAAAAAAAAAAAAAAAAAAAAAAAAAAAAAAAAAAAAAAAAAAAAAAAAAAAAAAAAAAAAAAAAAAAAAAAAAAAAAAAAAAAAAAAAAAAAAAAAAAAAAAAAAAAAAAAAAAAAAAAAAAAAAAAAAAAAAAAAAAAAAAAAAAAAAAAAAAAAAAAAAAAAAAAAAAAAAAAAAAAAAAAAAAAAAAAAAAAAAAAAAAAAAAAAAAAAAAAAAAAAAAAAAAAAAAAAAAAAAAAAAAAAAAAAAAAAAAAAAAAAAAAAAAAAAAAAAAAAAAAAAAAAAAAAAAAAAAAAAAAAAAAAAAAAAAAAAAAAAAAAAAAAAAAAAAAAAAAAAAAAAAAAAAAAAAAAAAAAAAAAAAAAAAAAAAAAAAAAAAAAAAAAAAAAAAAAAAAAAAAAAAAAAAAAAAAAAAAAAAAAAAAAAAAAAAAAAAAAAAAAAAAAAAAAAAAAAAAAAAAAAAAAAAAAAAAAAAAAAAAAAAAAAAAAAAAAAAAAAAAAAAAAAAAAAAAAAAAAAAAAAAAAAAAAAAAAAAAAAAAAAAAAAAAAAAAAAAAAAAAAAAAAAAAAAAAAAAAAAAAAAAAAAAAAAAAAAAAAAAAAAAAAAAAAAAAAAAAAAAAAAAAAAAAAAAAAAAAAAAAAAAAAAAAAAAAAAAAAAAAAAAAAAAAAAAAAAAA4J2uRi8AAACARd2drksppRzKzef/5DhuMfC7x1JKKR+ufhy8DgAAIDlBLAAAAO9zd7r+HL4KXpndY/lUPpYfrn4ZvRAAACAfQSwAAABvd3+6LQJY1vNoQhYAAIgmiAUAAOBthLCsTRgLAACEEsQCAADwOiEsexDGAgAAYQSxAAAAvEwIy16EsQAAQIjvRi8AAACAid2drosQlr0cP9c1AABAV4JYAAAAnncoD6OXAM2pawAAIIAgFgAAgG8zNcjOzkduAwAAdCOIBQAA4NsO5Wb0EqAjR24DAABdCWIBAAB4jqCKvZn6BgAAOhLEAgAA8DUBFRmY+gYAADoSxAIAAPA1ARUAAABUEcQCAAAAAAAANCaIBQAAAAAAAGhMEAsAAABkdRy9AAAAYF+CWAAAACCrx9ELAAAA9iWIBQAAAAAAAGhMEAsAAAAAAADQmCAWAAAAyModsQAAQDeCWAAAACArd8QCAADdCGIBAAAAAAAAGhPEAgAAAAAAADQmiAUAAACyckcsAADQjSAWAAAAyModsQAAQDeCWAAAAAAAAIDGBLEAAAAAAAAAjQliAQAAgKzcEQsAAHQjiAUAAACyckcsAADQjSAWAAAAAAAAoDFBLAAAAAAAAEBjglgAAAAgK3fEAgAA3QhiAQAAgKzcEQsAAHQjiAUAAAAAAABoTBALAAAAAAAA0JggFgAAAMjKHbEAAEA3glgAAAAgK3fEAgAA3QhiAQAAAAAAABoTxAIAAAAAAAA0JogFAAAAsnJHLAAA0I0gFgAAAMjKHbEAAEA3glgAAAAAAACAxgSxAAAAAAAAAI0JYgEAAICs3BELAAB0I4gFAAAAsnJHLAAA0I0gFgAAAAAAAKAxQSwAAAAAAABAY4JYAAAAICt3xAIAAN0IYgEAAICs3BELAAB0I4gFAAAAAAAAaEwQCwAAAAAAANCYIBYAAADIyh2xAABAN4JYAAAAICt3xAIAAN0IYgEAAAAAAAAaE8QCAAAAAAAANCaIBQAAALJyRywAANCNIBYAAADIyh2xAABAN4JYAAAAAAAAgMYEsQAAAAAAAACNCWIBAACArNwRCwAAdCOIBQAAALJyRywAANCNIBYAAAAAAACgMUEsAAAAAAAAQGOCWAAAACArd8QCAADdCGIBAACArNwRCwAAdCOIBQAAAAAAAGhMEAsAAAAAAADQmCAWAAAAyModsQAAQDeCWAAAACArd8QCAADdCGIBAAAAAAAAGhPEAgAAAAAAADQmiAUAAACyckcsAADQjSAWAAAAyModsQAAQDeCWAAAAAAAAIDGBLEAAAAAAAAAjQliAQAAgKzcEQsAAHQjiAUAAACyckcsAADQjSAWAAAAAAAAoDFBLAAAAAAAAEBjglgAAAAgK3fEAgAA3QhiAQAAgKzcEQsAAHQjiAUAAAAAAABoTBALAAAAAAAA0JggFgAAAMjKHbEAAEA3glgAAAAgK3fEAgAA3QhiAQAAAAAAABoTxAIAAAAAAAA0JogFAAAAsnJHLAAA0I0gFgAAAMjKHbEAAEA3glgAAAAAAACAxgSxAAAAAAAAAI0JYgEAAICs3BELAAB0I4gFAAAAsnJHLAAA0I0gFgAAAAAAAKAxQSwAAAAAAABAY4JYAAAAICt3xAIAAN0IYgEAAICs3BELAAB0I4gFAAAAAAAAaEwQCwAAAAAAANCYIBYAAADIyh2xAABAN4JYAAAAICt3xAIAAN0IYgEAAAAAAAAaE8QCAAAAAAAANCaIBQAAALJyRywAANCNIBYAAADIyh2xAABAN4JYAAAAAAAAgMYEsQAAAAAAAACNCWIBAACArNwRCwAAdCOIBQAAALJyRywAANCNIBYAAAAAAACgMUEsAAAAAAAAQGOCWAAAACArd8QCAADdCGIBAACArNwRCwAAdCOIBQAAAAAAAGhMEAsAAAAAAADQmCAWAAAAyModsQAAQDeCWAAAACArd8QCAADdCGIBAAAAAAAAGhPEAgAAAAAAADQmiAUAAACyckcsAADQjSAWAAAAyModsQAAQDeCWAAAAAAAAIDGBLEAAAAAAAAAjQliAQAAgKzcEQsAAHQjiAUAAACyckcsAADQjSAWAAAAAAAAoDFBLAAAAAAAAEBjglgAAAAgK3fEAgAA3QhiAQAAgKzcEQsAAHQjiAUAAAAAAABoTBALAAAAAAAA0JggFgAAAMjKHbEAAEA3glgAAAAgK3fEAgAA3QhiAQAAAAAAABoTxAIAAAAAAAA0JogFAAAAsnJHLAAA0I0gFgAAAMjKHbEAAEA3glgAAAAAAACAxgSxAAAAAAAAAI0JYgEAAICs3BELAAB0I4gFAAAAsnJHLAAA0I0gFgAAAAAAAKAxQSwAAAAAAABAY4JYAAAAICt3xAIAAN0IYgEAAICs3BELAAB0I4gFAAAAAAAAaEwQCwAAAAAAANCYIBYAAADIyh2xAABAN4JYAAAAICt3xAIAAN0IYgEAAAAAAAAaE8QCAAAAAAAANCaIBQAAALJyRywAANCNIBYAAADIyh2xAABAN4JYAAAAAAAAgMYEsQAAAAAAAACNCWIBAACArNwRCwAAdCOIBQAAALJyRywAANCNIBYAAICvfSofRy8BAAAAViaIBQAA4Gs/XP0yegkAAACwMkEsAAAAz3FsK3sz+Q0AAHQkiAUAAAAyejT5DQAA9CSIBQAA4Ns+XP04egkAAACwKkEsAAAAL3E8MXuy0QAAAOhMEAsAAMDzzmGVMJa9fCrfj14CAACwP0EsAAAALxPGshd3wwIAACEEsQAAALzuU/lYhLGs79GRxAAAQJSr0QsAAABgEXen63IoN6WU4+ilwAWEsAAAQChBLAAAAO9zf7otwljW8Vg+lY+OIwYAAKIJYgEAALjMOZAtRSjLnASwAADAUIJYAAAA6tydrksp5fOxxTCW8BUAAAAAAAAAAAAAAAAAAAAAAAAAAAAAAAAAAAAAAAAAAAAAAAAAAAAAAAAAAAAAAAAAAAAAAAAAAAAAAAAAAAAAAAAAAAAAAAAAAAAAAAAAAAAAAAAAAAAAAAAAAAAAAAAAAAAAAAAAAAAAAAAAAAAAAAAAAAAAAAAAAAAAAAAAAAAAAAAAAAAAAAAAAAAAAAAAAAAAAAAAAAAAAAAAAAAAAAAAAAAAAAAAAAAAAAAAAAAAAAAAAAAAAAAAAAAAAAAAAAAAAAAAAAAAAAAAAAAAAAAAAAAAAAAAAAAAAAAAAAAAAAAAAAAAAAAAAIAOrkYvAADSuTtdj14ClB+ufhm9hFD6jhlk6Du9xmgZ+gwAAFiGIBYAers7XZdDufn8Px2HrgX+7LGUUsqn8nG7D9f6jnnt1Xd6jXk9btNnAADAsgSxANDT/em2+DDNGvb5YK3vWMe6ffclgNVrzG7dPgMAAJYniAWAHgRBrOuxfLj6cfQiLqLvWNdafafXWNNafQYAAGxBEAsArflAzfrW+1it71jf/H1nCpYdfLj6y+glAAAAeXw3egEAsBVhEHs4fq7lNeg79jB/3wlh2cHsfQYAAGzFRCwAtCIMYj/zT+jpO/YzZ9/pNfYyZ58BAADbMRELAC3cna6LD9TsZ+6a1nfsab6aFsKyn/kn0AEAgC0IYgGghfNxjbCfmT9U6zt2NV/fCWHZ0fHzhh4AAIBuBLEA0IaP1Oxqzto2Dcve5qnt+UJhaMeGHgAAoDNBLADU8pGa3c1Y4z6es7sZ+w72M8+mBwAAYEuCWAAAAJ4jqGJvjicGAAA6EsQCQD0fqdndjDU+45qgpfE1LqAiAycsAAAAHQliAQAA+JqACgAAAKoIYgGghmkhspip1mdaC/Sk1gEAAGBpglgAqPHD1S+jlwDp6DuyUOsAAACwNEEsANQwrQTx9B1ZqHUAAABYmiAWAGqYVoJ4+o4s1DpEOI5eAAAAsC9BLADUMK0E8fQdWah1iPA4egEAAMC+BLEAUMO0EsTTd2Sh1gEAAGBpglgAqGFaCeLpO7JQ6wAAALA0QSwA1DCtBPH0HVmodYjgjlgAAKAbQSwA1DCtBPH0HVmodYjgjlgAAKAbQSwA1DCtBPH0HVmodQAAAFiaIBYAaphWgnj6jizUOgAAACxNEAsANUwrQTx9RxZqHSK4IxYAAOhGEAsANUwrQTx9RxZqHSK4IxYAAOhGEAsANUwrQTx9RxZqHQAAAJYmiAWAGqaVIJ6+Iwu1DgAAAEsTxAJADdNKEE/fkYVahwjuiAUAALoRxAJADdNKEE/fkYVahwjuiAUAALoRxAJADdNKEE/fkYVaBwAAgKUJYgGghmkliKfvyEKtAwAAwNIEsQBQw7QSxNN3ZKHWIYI7YgEAgG4EsQBQw7QSxNN3ZKHWIYI7YgEAgG4EsQBQw7QSxNN3ZKHWAQAAYGmCWACoYVoJ4uk7slDrAAAAsDRBLADUMK0E8fQdWah1iOCOWAAAoBtBLADUMK0E8fQdWah1iOCOWAAAoBtBLADUMK0E8fQdWah1AAAAWJogFgBqmFaCePqOLNQ6AAAALE0QCwA1TCtBPH1HFmodIrgjFgAA6EYQCwA1TCtBPH1HFmodIrgjFgAA6EYQCwA1TCtBPH1HFmodAAAAliaIBYAappUgnr4jC7UOAAAASxPEAkAN00oQT9+RhVqHCO6IBaCeDXQAPEMQCwA1vGxBPH1HFmodIrgjFoA696fbcigP5f50O3opAMxHEAsANUwrQTx9RxZqHQBgbueNc7+drnAs96dbm+kA+CNBLADU8IIF8fQdWah1AIC5HcrDk//k+Pt0rGc5AIogFgDqmFaCePqOLNQ6RHBHLACXefko4qPjigEoRRALAHXscIV4+o4s1DpEcEcsAO/35yOJX3Is96dfBbIAeQliAaCGaSWIp+/IQq0DAMzn7nT9jSOJX+P+WICkBLEAUMNLFMTTd2Sh1gEA5nMoNxf+b7o/FiAhQSwA1DCtBPH0HVmodYjgjlgA3u58xHDtb4f7YwESEcQCQA27WCGeviMLtQ4R3BELwNu8/V7YtzrfH+uZD2BrglgAqGFaCeLpO7JQ6wAA87j8SOLX/u86rhhgY4JYAKjhRQni6TuyUOsAAHNocyTxSxxXDLApQSwA1DCtBPH0HVmodYjgjlgAXtb+SOKXnI8rFsgCbEMQCwA1TCtBPH1HFmodIrgjFoCX9TqS+GXujwXYhCAWAGqYVoJ4+o4s1DoAwFj9jyR+mftjAZYniAWAGl6GIJ6+Iwu1DgAwTuyRxC9xfyzAwgSxAFDDtBLE03dkodYhwgwf2AGY0aE8jF7CE0fTsQDrEcQCQA0vQBBP35GFWocI7ogF4GvzTp+ajgVYjCAWAGqYVoJ4+o4s1DoAQLx5jiR+ielYgEUIYgGghpceiKfvyEKtAwDEm+9I4ueYjgVYgCAWAGqYVoJ4+o4s1DpEmH3iCYBIa4aapmMBJiaIBYAaXnQgnr4jC7UOEdwRC8DZOYRddYOO6ViASQliAaCGaSWIp+/IQq0DAMRY417YtzAdCzAZQSwA1PByA/H0HVmodQCAGIdyM3oJDR3LodyYjgWYgyAWAGqYVoJ4+o4s1DpE2GH6CYAaax9J/Jxj+W06FoChBLEAUMO0EsTTd2Sh1iGCO2IBMtvnSOLnHMv96VfPlQDjCGIBoIZpJYin78hCrQMA9LXXkcTPO5QH07EAYwhiAaCGXaUQT9+RhVoHAOhn/2nYpxxVDDCAIBYAaphWgnj6jizUOkTI9AEegD86lIfRSxjAUcUAwQSxAFDDywvE03dkodYhgjtiATLKPhnqqGKAMIJYAKhhWgni6TuyUOsAAO3lO5L4OY4qBgggiAWAGqaVIJ6+Iwu1DgDQ3qHcjF7CRM5hrOdOgG4EsQBQw7QSxNN3ZKHWIYKJKIBMzhOg/vb/2bEcyoMwFqAPQSwA1PCiAvH0HVmodYjgjliAXISwz3FvLEAXglgAqGFaCeLpO7JQ6wAA7QgZ38K9sQCNCWIBoIZpJYin78hCrQMAtHF+rjIN+zbujQVoSBALADVMK0E8fUcWah0i+CgPkMGh3IxewmLcGwvQiCAWAGp4KYF4+o4s1DpEcEcswO7OR+3aeHMJ98YCVBPEAkAN00oQT9+RhVoHAGhBCFvHvbEAFQSxAFDDtBLE03dkodYBAOoIEFsRxgJcSBALADVMK0E8fUcWah0imJIC2NV5U5u/8+2cw1ibBQHeRRALADW8gEA8fUcWah0iuCMWYFeHcjN6CRs6lkO58ZwK8HaCWACoYVoJ4uk7slDrAACXMQ3b07EcyoMwFuBtBLEAUMOLB8TTd2Sh1gEALmMatr9DeXBvLMDrBLEAUMO0EsTTd2Sh1iGCaSmA3ZzDQX/fYxyFsQAvE8QCQA3TShBP35GFWocI7ogFgDrCWIAXCGIBoIZpJYin78hCrQMAvI9p2FGEsQDPEMQCQA3TShBP35GFWgcAeC8h7DjCWIBvEMQCQA3TShBP35GFWocIPtgD7EIIOANhLMATglgAqGFaCeLpO7JQ6xDBHbEAOzg/N9lcM4dzGOtZFqCUIogFgDqmlSCeviMLtQ4A8DaHcjN6CfzJsRzKjTAWQBALAHW8VEA8fUcWah0A4HWmYWcljAUoglgAqGNaCeLpO7JQ6xDBh3uA1ZmGndmxHMqDMBbITBALADW8TEA8fUcWah0iuCMWYGWmYdcgjAUSE8QCQA3TShBP35GFWgcAeJlp2HUIY4GkBLEAUMNLBMTTd2Sh1gEAnmcadj3CWCAhQSwA1DCtBPH0HVmodYjgAz7AqkzDrkkYCyQjiAWAGl4eIJ6+Iwu1DhHcEQuwItOwaxPGAokIYgGghmkliKfvyEKtAwB8m2nY9QljgSQEsQBQw0sDxNN3ZKHWAQC+Zhp2H8JYIAFBLADUMK0E8fQdWah1iOBDPsBqTMPu5VBuhLHAzgSxAFDDywLE03dkodYhgjtiAVZiGnZHR2EssDNBLADUMK0E8fQdWah1AIA/Mw27q6P/3wK7EsQCQA07NiGeviMLtQ4A8IVp2N0dy/3p19GLAGhNEAsANUwrQTx9RxZqHSL4oA+wChOTOdyfbkcvAaAlQSwA1DCtBPH0HVmodYjgjliAFZiGzeQojAV2IogFgBqmlSCeviMLtQ4AcGYaNhthLLANQSwA1DCtBPH0HVmodQCA35iGzUcYC2xBEAsANUwrQTx9RxZqHSL4sA8wO2FcZsJYYHmCWACoYVoJ4uk7slDrEMEdsQDzs2kmN2EssDRBLADUMK0E8fQdWah1ACA7ARxnR5sUgVUJYgGghhcBiKfvyEKtAwDA2aE8eD4GViSIBYAappUgnr4jC7UOERx3CTCrc+jm7zRfHMrD6CUAvJcgFgBq2I0J8fQdWah1iOCOWIBZHcrN6CUwIcdVA4sRxAJADdNKEE/fkYVaBwCyMg3L847CWGAlglgAqGFaCeLpO7JQ6wBAVqZheZkwFliGIBYAaphWgnj6jizUOkQwbQUwJ3+feY0wFliCIBYAaphWgnj6jizUOkRwRyzAbIRrvN3RMzMwO0EsANQwrQTx9B1ZqHUAICfTsLzdoTwIY4GZCWIBoIaHfYin78hCrQMA2Xj+4RLuFAYmJogFgBqmlSCeviMLtQ4RTF0BzESgxmXcFwtMSxALADXs1oV4+o4s1DpEcEcswCzOzz42yHApYSwwJUEsANQwrQTx9B1ZqHUAIBPTsNQ72swIzEYQCwA1POBDPH1HFmodAMjFNCz1DuXBczQwE0EsANQwrQTx9B1ZqHWI4KM/wAwEZ7RkuhqYiCAWAGp4WYR4+o4s1DpEcEcswAwEZ7TlvlhgGoJYAKhhWgni6TuyUOsAQAbnzWdOKKA198UCUxDEAkAND/UQT9+RhVoHADIwDUsv7osFJiCIBYAappUgnr4jC7UOEUxgAYznbzH9CPqBwQSxAFDDzkqIp+/IQq1DBHfEAozkeYf+3BcLDCWIBYAappUgnr4jC7UOAOzOtCIx3BcLDCOIBYAaHuQhnr4jC7UOAOzPscTEcF8sMIggFgBqmFaCePqOLNQ6RBAAAIziuFiimcAGBhDEAkANuykhnr4jC7UOEdwRCwB5uC8WCCeIBYAappUgnr4jC7UOAOzqvOHMqQSM4L5YIJQgFgBqeHiHePqOLNQ6ALArR8Qy0qE8jF4CkIcgFgBqmFaCePqOLNQ6RDCNBTCGv7+M5YhiIIggFgBqmFaCePqOLNQ6RHBHLEA0zzjMwRHFQAhBLADUMK0E8fQdWah1AGBHjiVmFofyIIwFehPEAkAND+wQT9+RhVoHAPbkWGLmYWMA0JkgFgBqmFaCePqOLNQ6RBAGAESy0Yz5OKIY6EoQCwA1PKxDPH1HFmodIrgjFiCS6UNm5IhioCNBLADUMK0E8fQdWah1AGA/TiJgTjYJAJ0IYgGghh2TEE/fkYVaBwB24tmGuTmiGOhCEAsANUwrQTx9RxZqHSKYzAKIYuKQ2R3Kw+glAPsRxAJADbslIZ6+Iwu1DhHcEQsQx+YX5nd/uh29BGAvglgAqGFaCeLpO7JQ6wDALmwwYx2OKAaaEsQCQA0P5xBP35GFWgcAduFYYlbiiGKgIUEsANQwrQTx9B1ZqHWI4JhMgBj+3rIWRxQDjQhiAaCGaSWIp+/IQq1DBHfEAvTmmYY1OaIYaEIQCwA1TCtBPH1HFmodANiBY4lZldoFGhDEAgCwFruSyUKtAwB7cCwxqzIVC1QTxAIA8LqZJvNmWgv0pNYhgnAAoCchFqs7lIfRSwDWJogFgHruFgNgP5/Kx9FLgACe4wB6crQrO7g/3Y5eArAuQSwAAK+Z8SP1jGuClsbXuIlcMrDhAAB4nSOKgYsJYgGg1oerH0cvAYDNzBMOjQ+EoScbDgD6OQdXjoBnD6a7gQsJYgGgDR+q2deMmw3mCamgj1nCIb3G3jy/AfQkuGIvpmKBiwhiAaAFH6rZ15wfqc8h1Zxrg3rz1LZeY2ee3wCA97C5ALiAIBYAWvChml3NOA37Gx/Q2dVsfafX2NPjNJPnAPtyLDG7OZb70+3oRQBrEcQCQCvnD+fCWPbxqXw/egkvsgGCHc3Yd3qN/TxOt+EBYDeOcGVfNhgA7yKIBYCWTA2xjzUmhWyAYC/z9p1eYyee1wD6c4QrOzMVC7yDIBYAWvrh6pcpp5ngfdaaFBIQsYf5+06vsb7H8ql8P+2GBwBgFUdT38BbCWIBoLUvYayP1aznU/l++jDoWwRErGylvtNrrOuxfCofhbAAAc4BleNb2Zupb+CNrkYvAAC2dj6uxgsoK5h/Gu8t7k7Xn1+I9R0rWLfv9BrrOG8cWLXXAFbkPZgsnLQBvIEgFgAifLk/xMsoMzl/nN5xQkhIxLz26ju9xrwEsACjCGLJY92NlUCYw+gFAEAKP//09/LzT38vf/3bP8qp/N/v//Vd+dfyqfyXf/0b+u9v9fcfV/9Tfv7p7+Xxp3+ObpHmHn/65+e++299598p/t217/Saf2f799xn//n7sxcA8f79b/87egkQ5N/KX//2j22e7YEuTMQCAAAAAFDvfFrGw+hlQCBTscCLvhu9AAAAAAAANnC+sgAyOZa70/XoRQDzEsQCAAAAAABcwgYE4AWCWAAAAAAAWjiOXgAMYCoWeJYgFgAAAACAOoIoMjMVCzxDEAsAAAAAQB1BFLmZigW+SRALAAAAAABQw2YE4BsEsQAAAAAA1HI/LNmZigW+IogFAAAAAOBywic4MxULPCGIBQAAAAAAqGcqFvgTQSwAAAAAAJczBQhf6AfgDwSxAAAAAAAAbZiKBX4niAUAAAAAoMZx9AJgKqZigc8EsQAAAAAAXMbkH3yLzQlAKUUQCwAAAADApUz+wbfdn25HLwEYTxALAAAAAADQlqlYQBALAAAAAADQnKO7IT1BLAAAAAAAlzL1B89xdDekJ4gFAAAAAOD9TPvBa476BHITxAIAAAAA8H6m/eB1+gRSE8QCAAAAAAD04fhuSEwQCwAAAAAA0Mv96Xb0EoAxBLEAAAAAAFzCpB8AvEAQCwAAAADA+9ydrkcvARZy1DOQkyAWAAAAAID3OZSb0TgyiucAACAASURBVEuApegZSEkQCwAAAAAA0JejvCEhQSwAAAAAAEBv96fb0UsAYgliAQAAAAB4L9N9APAKQSwAAAAAAEB/x3J3uh69CCCOIBYAAAAAgLcTJMHlDuVm9BKAOIJYAAAAAACAGI71hkT+ZfQCgMnY0cgMfrj6ZfQSutJnzGD3PntK3zGDDH2n15hBhl4rRb8xhyz9xtdM9EGdu9O1v6GQw9XoBQATuD/dfv7v7MZiNo/lU/m4/IPp3en6Dy+p+oyZPJZSyhZ99pS+Y1579d2XXtNnzObcax+ufhy8jnb8tjGvvX7beJvztyR/i+Byj1s9pwDPEsRCVj6asZY1A1l9xlrW7LOn9B1rWbfv9BprWftDp35jLev+tvE+glio9+HqL6OXAPQniIWMzi/yD6OXARdY5yOal1LWtU6fPaXvWNdafafXWNWn8v1y4ZB+Y11r/bbxfvenX0cvATbgbyUk8N3oBQDB7k+3QlgWdvzDUdrz8sGMta3RZ0/pO9a2Rt/dna71Gks7lIel7lXVb6xtjd82AIDOBLGQiRd59jD3C70+Yw9z99lT+o49zN935818eo21rRLG+m1jD/P/tnGZFf6Owhr81kMCgljI4vyQ7MedXcz5Qu+DGXuZs8+e0nfsZd6+m3VdcInZw1i/bexl3t82gBn4GwnbE8RCFo4jZj/HqT6g2ezAnubqs6f0HXuar6aFQuzoUG5GL+Gb/LaxJzW9m1n/hgLAhASxkIGdVexqppe/mdYCLc1c2zOvDWrM9+zmAzo7mnOzkd82djXfbxvALDxrw+YEsZCDH3R2NccHNJML7G2OPntK37G3efrOh3N2Nlvo6beNvaltgOd45oatCWJhd7N8xINeZviANsMaoKcZa3zGNUFLahwizBUM6Xt2J2gAABISxMLuvMyzv7k+oAHAXvzOsjfBEMAlPB9AW3oKNiaIBWB94ye/PTCzuxlrfMY1QUvja3z87ytkM77voS81DvAcz96wLUEsAAAAX3OyCgDwlLAI+vDsDdsSxML+7DiFnryEksVMtT7TWqAntQ556HcAyM43XNiUIBYAavxw9cvoJUA6+o4s1DoAu7HpAOB5/kbClgSxAFDDQzLE03dkodYB2I1NRutzfCr0o79gS4JYAKjhQwLE03dkodYhgmMAIZJNRgBAMoJYAKjhQwLE03dkodYhwuPoBUAqNhkBvMQGMdiQIBYAaviQAPH0HVmodQB2Y5MRwMv8nYTtCGIBoIYHZIin78hCrQOwG5uMAF7mnljYjiAWAGr4kADx9B1ZqHWI4AhAiGSTEcBrPJvAZgSxAFDDhwSIp+/IQq1DBHfEQiSbjHYgJILevAfAVgSxAFDDhwSIp+/IQq0DsBvhAsDrHE8MWxHEAkANHxIgnr4jC7UOwG5sMgIAkhHEAkANHxIgnr4jC7UOERyxCZFsMgJ4C88nsBFBLADU8CEB4uk7slDrEMEdsRDJJqO1eTaBOPoNtiGIBYAaPiRAPH1HFmod4P/Zu7fbRnIsDMCs7Y2iI+ksDDgADfyoiOaxIQcwQGXhSDoLwfvg6fWlfZHE0uHlfN/Lzs4CMwfbpKqKPw/JbAQLAKdxTyxMQxALADUsJEA8844sjHUAZmOTEQCQjCAWAGpYSIB45h1ZGOsQwR1sEMkmIwAgGUEsANSwkADxzDuyMNYhgjtiIZJNRgCnslkMJiGIBYAaFhIgnnlHFsY6ALOxyWhs7qyEWH4zYQqCWACo4aUY4pl3ZGGsAzAbm4zGdiyH1iVAKjY/wBQEsQBQw0ICxDPvyMJYhwiO/YNINhmNTSgEAGcTxAJADQsJEM+8IwtjHSK4IxYi2WQEcA4bxmACglgAqGEhAeKZd2RhrAMwG5uMAM7jdxOGJ4gFgBpeiCGeeUcWxjoAs7HJCABIRhALADUsJEA8844sjHWI4Mg/iGSTEcB53M0MwxPEAkANCwkQz7wjC2MdIrgjFiLZZAQAJCOIBYAaFhIgnnlHFsY6ALOxyQjgXE7vgMEJYgGghoUEiGfekYWxDsBsbDICOJ/vAhiaIBYAalhIgHjmHVkY6xBBlwlEEiYAAMkIYgGghoUEiGfekYWxDhHcEQuRbDICON+38lfrEoDLCWIBoIaFBIhn3pGFsQ7AbGwyAgCS+W/rAgBgaBYSIJ55RxY/H38IYwGYiucaQG5vv+c/7/a9Kc+nl/z+62teK/H23/W+Yzn88fc83/iEIBYAatwtD+X+sXUVkIt5RxY+5iHCTSll37oISMMmI4BL9Pm+8jJUfT9Q3SI0vfngr6/htH/Xt3f+t+c1it9h8esg92V46zmYjiAWAGrozIN45h1ZWKyGCO6IhUieawCXifw2+DhgjehKHd3Nm/988jK8fb2x/Pld9HdY61k5HUEsANTQmQfxzDuy8AEOwGxsMgJo73fQ+mcX6ykBqxB2W8//f/4Oa1931z4T1A5LEAsANXTmQTzzjiwsVgMwG881gMs8haan/4a+H7YKUcfyflftU1Crk3YgglgAqKEzD+KZd2ThQxoi9HnnGszKJqOxHcvh3bsRgTaErZl91En7OqD1zO2CIBYAaujMg3jmHVlYrIYI7oiFSJ5rAJe6ebMhWeDKe14HtG+PORbONiGIBYAaOvMgnnlHFj6QAZiNTUYANYSvXOpp7DyHs8/BbCm+Pa9MEAsANXTmQTzzjiwsVgMwG881AOjBczBbSvkjnPW83tR/WhcAAEPzYgLxzDuyMNYhgs4SiGRDHQD06qaUclO+lX/K/eOvcv/4d7l//Nuzu56OWACo4WUE4pl3ZKEjFiK4IxYiea4BwCg+Ps7Y8/wsOmIBoIYXD4hn3pGFsQ7AbGyoG5t3E4DMXnbM6pY9g45YAKjhhQPimXdkoSMWgNl4rgHADN7vlt0t+3Yl9UtHLADUsJAA8cw7sjDWIYI7YiGSDXUAMKOnbll3y75LRywA1PBSAfHMO7LQEQsR3BELkTzXAGB2L7tl3StbdMQCQJ3ELxHQjHlHFsY6ALOxoW4GNrAAcCr3yhZBLADUSfjyAM2Zd2RhrAMwG5uMACCrP0PZJASxAFDDQgLEM+/IwliHCO6IhUg2Gc3A7yYAtV7fKTv5+4EgFgBqTP6iAF0y78jCWIcIjtiESDYZzcDvJgBbmr5LVhALADUsJEA8844sjHUAZmOTEQDwvmm7ZAWxAFBjopcCGIZ5RxbGOgCzsckIAPjaVF2yglgAqGEhAeKZd2RhrEMEdx1CJJuMxncsh9YlAJDGFF2yglgAqDHoCwAMzbwjC2MdIrjrECLZZAQAXOa5S3awb2VBLADUsJAA8cw7sjDWAZjNYAunAEB3hgtkBbEAUGOQBz5MxbwjC2MdgNnYZDQ+f4YA9OF3IPur929nQSwA1PARCvHMO7Iw1iGCO2IhUucLpQDAgDrvkBXEAkCNTh/wMDXzjiyMdYjgjliIZJPRLPx2AtCbbo8sFsQCQA0LCRDPvCMLYx2A2XS2MAoATKe7QFYQCwA1OnmgQyrmHVkY6wDMxiYjACBGN4GsIBYAalhIgHjmHVkY6xDBHbEQySYjACDWcyDbiCAWAGpYSIB45h1ZGOsQwT2HEMkmozkcy6F1CQBwppty//irRSAriAWAGhYSIJ55RxbGOgCzsckIAGjrJvq4YkEsANSwkADxzDuyMNYBmI1NRnPw5wjA2EKPKxbEAkANH6AQz7wjC2MdIrgjFiLZZDQTR7sDMLqn44qv/H4iiAWAGhYSIJ55RxbGOkQQJEAkm4wAgN5cuTtWEAsANSwkQDzzjiyMdQBmY5MRANCnq3XHCmIBoIaFBIhn3pGFsQ7AbGwyAgB6doXuWEEsANSwkADxzDuyMNYhgjtiIZJNRvM4lkPrEgDgSm62DGMFsQBQw0ICxDPvyMJYhwjuiIVINhnNw58lAHPbLIwVxAJADR+fEM+8IwtjHYDZ2GQEAIxio9MfBLEAUMNCAsQz78jCWAdgNjYZzcapAgDMa6P3FkEsANSwkADxzDuyMNYhgjtiIZJNRgDAGDbbbCSIBYAaFhIgnnlHFsY6RNDNBZFsMprLRkc2AkB3NnzGCWIBoIaFBIhn3pGFsQ7AbGwyAgD6t275PS6IBYAaFhIgnnlHFsY6ALOxyWgu/jwB4EuCWACo4cMT4pl3ZGGsQwR3xEIkm4xm5Ih3AOayW/Zb/uMEsQBQw0ICxDPvyMJYhwgCBIhkkxEA0LfNvw8EsQBQw0ICxDPvyMJYB2A2NhkBAD07lsPW/0hBLADUsJAA8cw7sjDWAZiNTUbzucKCNQA0sl7jXUUQCwA1LCRAPPOOLIx1iOCOWIhkk9F8vK8AwKcEsQBQw0ICxDPvyMJYhwjuiIVIQrtZ+S0FYHy7ZX+Nf6wgFgBqWEiAeOYdWRjrAMzGJiMAoE9X21QkiAWAGhYSIJ55RxbGOgCzscloTu6JBWB0V3yWCWIBoIaFBIhn3pGFsQ4R3BELkWwympN3FgBGd8VnmSAWAGpYSIB45h1ZGOsQwb2GEElgNzO/pwCM6qrPMEEsANSwkADxzDuyMNYBmI1NRgBAb658xL4gFgBqWEiAeOYdWRjrAMzGJqN5uScWgDGt134/EcQCQA0LCRDPvCMLYx0iuCMWItlkNC/vLQCMKGAjkSAWAGpYSIB45h1ZGOsQwZ2GEElYNzu/qQCMJeDdRBALADUsJEA8844sjHUAZmOTEQDQj5ANRIJYAKhhIQHimXdkYawDMBubjObmnlgARhL03BLEAkANCwkQz7wjC2MdIrgjFiLZZDQ37y4AjGONem4JYgGghoUEiGfekYWxDhHcZwiRBHUZ+F0FgBcEsQBQw0ICxDPvyMJYB2A2NhkBAD3YLfuof5UgFgBqWEiAeOYdWRjrAMzGJqP5uScWgP6Fnt4giAWAGhYSIJ55RxbGOkRwRyxEssloft5fAOhd8KYhQSwA1LCQAPHMO7Iw1iGCuwwhkpAuC7+tAPQr+H1EEAsANSwkQDzzjiyMdQBmY5NRDo4nBqBf4ZuFBLEAUMNCAsQz78jCWAdgNjYZ5eDPGYBeNdgsJIgFgBo+MCGeeUcWxjpEcEcsRLLJKBPHEwPQm7XFd7YgFgBqWEiAeOYdWRjrEEFQAJFsMgIAWml0dL4gFgBqWEiAeOYdWRjrAMzGJqM8dsu+dQkA8Eqjb2xBLADUsJAA8cw7sjDWAZiNTUbZOHUAgF40eyYJYgGghoUEiGfekYWxDhHcEQuRbDICAFpodCxxKYJYAKhjIQHimXdkYaxDBN1aEMkmo1waLnoDwAtry3cQQSwA1LCQAPHMO7Iw1gGYjU1GuTy9y9jwAkBqglgAqGEhAeKZd2RhrAMwG5uMAIBou2Xf8l8viAWAGhYSIJ55RxbGOkRwRyxEsskoH8cTA9BW85MZBLEAUMNCAsQz78jCWIcIzRdmIBWbjPJxPDEALXWwIUgQCwA1LCRAPPOOLIx1AGZjkxEAEKmD72pBLADUsJAA8cw7sjDWAZhNB4uhNND4bj4A0uriRAZBLADUsJAA8cw7sjDWIYI7YiGSTUaZdbEYDkAiHRxLXIogFgDqWEiAeOYdWRjrEEEwAJFsMsqrk8VwANJYe3nvEMQCQI1OHuiQinlHFsY6ALOxySgv7zUAROpoA5AgFgBqWEiAeOYdWRjrAMxGGJedUwgAiNHRO4cgFgBqdPRQhzTMO7Iw1iGCO2Ihkk1GuXXUnQTA1Lra+COIBYAaFhIgnnlHFsY6ROhqkQamZ5NRbk9//n53Abiuzjb+CGIBoIaFBIhn3pGFsQ7AbGwyAgCua+3tW1oQCwA1LCRAPPOOLIx1AGbT2cIoDeyWfesSACCSIBYAalhIgHjmHVkY6xDBHbEQySYjnjieGIDr6HDDjyAWAGpYSIB45h1ZGOsQQRgAkWwyopTu7u4DYBpdvtsLYgGghoUEiGfekYWxDsBsbDKilN/vOF0ulgMwsE43+ghiAaCGhQSIZ96RhbEOwGxsMuK3ThfLARhYp+8ZglgAqNHpAx6mZt6RhbEOEdwRC5FsMuI37zkAbKvbkxYEsQBQw0ICxDPvyMJYhwjdLtjAlIRvvOY3GIBtdHzSgiAWAGpYSIB45h1ZGOsAzMYmI17qeNEcgKGsPX8/C2IBoIaFBIhn3pGFsQ7AbDpeJKWBp/GgKxaAOp1v7BHEAkANCwkQz7wjC2MdIrgjFiLZZMRbnS+eAzCAzr+dBbEAUMNCAsQz78jCWIcIOrEgUucLpTSgKxaAOt0/QwSxAFDDQgLEM+/IwlgHYDY2GfEeXbEAXGqAZ4ggFgBqWEiAeOYdWRjrAMzGJiPeoysWgMusI7xbCGIBoMYAD3uYjnlHFsY6RHBHLESyyQgASEYQCwA1LCRAPPOOLIx1iKADCyLZZMRHdsu++E0G4BxPz47uCWIBoIaFBIhn3pGFsQ7AbGwyAgC2MczmHUEsANSwkADxzDuyMNYBmI1NRnxmkM4mADpwLIfWJZxKEAsANSwkQDzzjiyMdYjgjliIZJMRXxumwwmAZtaRvpcFsQBQw0ICxDPvyMJYhwgW/CHSQIumNKIrFoDJCGIBoIaFBIhn3pGFsQ7AbGwy4jQ2yQDwsYGOJS5FEAsAdSwkQDzzjiyMdQBmY5MRp9AVC8DHhjqWuBRBLADUGezBD1Mw78jCWIcI7oiFSDYZcTpdsQD8abBu2FIEsQBQx0ICxDPvyMJYhwgW+iGSTUacSlcsAO8Z8F1CEAsANQZ8+MPwzDuyMNYBmI1NRpzHZhkAXhryuSCIhfkN+eMEAB+ygEcWxjoAs7HJiHM8dcVa1wLgyYDHEpciiAUA4BQ9LZr1VAtck7EOEfq4I9Z8B3jfoIvuAGxuHfWdWRALAPXs0AVgPhY+yaGn97ieagHow9Oiu99HAIYliIXZWUAjg0F3Q8FAelz46LEm2FL7Me75CsC22j/bGJO1LQCejqsfkiAWZmcBjfm1/5j3UQjAvNo/Z+GaenqP66kWgJ7oigXIbuhngCAWchj6hwo+1cOClY9CZtfDPHurx5pgS8Y4ROjrninvlMxu4E4WOuDdCCCvwZ8BgljIYPAfKvhEP4tn5hnz6meevWSxmrn1M+8smjOzHt/feqwJtuG9jTre/wGy6uf7+EKCWMjAyyqz6mmhyjxjVj3Ns7d6rg1q9De2Pd+YUZ8LOt4pmVV/zzZGZIMYAAMSxEIWTy+rPuiZSX+LZxYXmE9/8+wli9XMqb955z2SGfX83tZzbXCZ/p5tjMw7CUAmE2zCEcRCJj7omcfa5UP4bnkox3LbugzYSJ/z7K0RaoTT9TvvvEcyk2O57ToU8k7JXPp9tjEmG8QAMpni914QC5n4oGcOfX/I69BjDn3Ps7d2y/fWJcAG+p53d8uDucYkxujM807JHPp+tjEuG8QAcpjk914QC9k8h7E+6hnRGB/yu2Vv0wMDG2OeveXZxtjGmXfmGiM7ltth5lop3ikZ3TjPNsZjswpADiNsoDzB0roAoKH7x79LKTety4ATrOVYDsM9fH8+/ijfyl/FPGMMY86zt57m3T+ty4ATjTvvzDXGMn4g5NuNcYz7bGM894+/WpcAwNWM/w7/L0EsZPccFJXiw57+zPERb57Rr6dd5DPMs7dshKBfc807c41+Pc21SRZvSineKenZXM82xmGTCsC8juV2lvcKQSzw2s/HH61LgFLKNEdPvMs8oxczz7OXzDl6MvO8M9foxczz7CVzjl5kmXP0SRgLMKNpumFLEcQCAAAAADAi1yUAzEgQCwAAAAAAzemKBZjLbvneuoQt/bd1AQAAAAAAcBZ31QPMaG1dwNYEsQAAAAAAjEMXLMCcjuXQuoStCWIBAAAAAOifABZgZmu5Wx5aF7E1QSwAAAAAAP0SwAIwqKV1AQAAAAAA8AcBLEAeu+V76xKuQUcsAAAAAAB9+Pn4o3wrfxUBLEAma+sCrkUQCwAAAABAWwJYgLyO5dC6hGtxNDEAAAAAAG08HT9cigAWIK9JjyUuRUcsAAAAAACRdL8C8GzaY4lLEcQCAAAAABBB9ysAb018LHEpglgAAAAAAK5F9ysAH1vL3fLQuohrEsQCAAAAALAd4SsAlFJKWVoXAAAAAADA4J7D11IEsACcYrd8b13CtemIBQAAAADgMu59BeAya+sCIghiAQAAAAA4jc5XALZwLIfWJUQQxAIAAAAA8DHhKwDbWsvd8tC6iAiCWAAAAAAAXnPkMABUW1oXAAAAAABAY7peAYiyW763LiGKjlgAAAAAgGwErwC0sbYuIJIgFgAAAABgdoJXAHpwLIfWJURyNDEAAAAAwGwErwD0KNGxxKXoiAUAAAAAGJ/gFYD+pTqWuBQdsQAAAAAAY3kdupYieAWgf2vZLfvWRUQTxAIAAAAA9EroCsD4UoawpQhiAQAAAAD6IHQFYD5pQ9hSBLEAAAAAALF+Pv4opRR3ugIwudQhbCmCWAAAAACA6/gzcC1F6ApABsdyW+6Wh9ZltCaIBQAAAAC4lLAVAF4Twv6fIBYAAAAA4CO/g9ZShK0A8BUh7CuCWAAAAAAgp49D1lIErQBwjrUcy0EI+5ogFgAAAACYx8twtZT3AtZShKwAsCUh7AcEsWzj/bswAAAAAOCabkopaxGsAkAra9kt+9ZF9EoQy3n+DFy95AIAAAAAAOQjhP2CIJav/Xz88W/wKnQFAAAAAABACHsCQSzvE74CAAAAAADw1rHcug/2NIJYnglfAQAAAAAA+IgQ9iyCWASwAAAAAAAAfGYtx3IQwp5HEJuZABYAAAAAAIDPuQ/2QoLYjASwAAAAAAAAfE0IW0EQm839499FAAsAAAAAAMBn3AdbTRCbhS5YAAAAAAAAvuY+2I0IYjPQBQsAAAAAAMDXHEW8IUHszHTBAgAAAAAAcBoh7MYEsbN6CmH/aV0GAAAAAAAAXXMU8ZUIYmfkKGIAAAAAAAC+pgv2igSxsxHCAgAAAAAA8JVjudUFe13/aV0AGxLCAgAAAAAA8LlVCBtDR+wshLAAAAAAAAB8zlHEgQSxMxDCAgAAAAAA8BldsOEEsaMTwgIAAAAAAPAxXbCNCGJHJoQFAAAAAADgI7pgmxLEjkoICwAAAAAAwPt0wXbgv60L4AI/H38UISwAAAAAAABv6YLthiB2RN/KP61LAAAAAAAAoCu6YDsjiB3N05HEAAAAAAAAUEopazmWgy7Y/rgjdiTuhQUAAAAAAOCZLtiO6YgdhXthAQAAAAAAeKILdgCC2FF8K3+1LgEAAAAAAIDGjuVWADsGRxOPwJHEAAAAAAAA2TmGeDA6YgEAAAAAAKBfjiEelI7Y3umGBQAAAAAAyEgAOzgdsf0TwgIAAAAAAOSxllKKY4jHJ4jt2VM3LAAAAAAAADm4B3Yigti+6YYFAAAAAACYnwB2QoLYXumGBQAAAAAAmJ17YCcmiO2XblgAAAAAAIA5CWATEMT26Ofjj9YlAAAAAAAAsDkBbCKC2B59K3+1LgEAAAAAAIDNCGATEsT2ybHEAAAAAAAA4xPAJiaI7c3949+tSwAAAAAAAKCKABZBLAAAAAAAAGxEAMv/CWL741hiAAAAAACAsaxlt+xbF0FfBLE9+fn4o3UJAAAAAAAAnGQtpRQBLB8RxPbkW/mrdQkAAAAAAAB8yvHDnEQQCwAAAAAAAF8TwHIWQWxf3A8LAAAAAADQD+ErFxPE9sL9sAAAAAAAAL0QwFJNENsL98MCAAAAAAC0JHxlU4JYAAAAAAAAslpLKaXsln3jOpiQIBYAAAAAAIBsdL9ydYJYAAAAAAAAMhC+EkoQ24+b1gUAAAAAAABMRvhKM4JYAAAAAAAAZiJ8pQuCWAAAAAAAAEa2llKK8JXeCGIBAAAAAAAYjfCV7gliAQAAAAAA6J3gleEIYgEAAAAAAOiR8JWhCWIBAAAAAADogeCVqQhiAQAAAAAAiLb+/68Er0xKEAsAAAAAAMC16XYlHUEsAAAAAAAAW9LtCkUQCwAAAAAAwOWeO11LKUJXeCaIBQAAAAAA4Cu6XOFMglgAAAAAAAB+0+EKGxHEAgAAAAAA5LC++m/CVrgqQSwAAAAAAMDY1j/+zu+QtRRBKzQiiAUAAAAAAIi1llJu3vxnefPXz16GqqUIVmEQS+sC+Nf946/WJQAAAAAAQGJr2S371kUA8/hP6wIAAAAAAACaE8ICGxPEAgAAAAAA2f15HDBAJUEsAAAAAACQ29s7WAE2IIgFAAAAAAAyW8vd8tC6CGA+glgAAAAAAACAjQliAQAAAACAvHbLvnUJwJwEsQAAAAAAQFZr6wKAeQliAQAAAACAnI7l0LoEYF6CWAAAAAAAIKO13C0PrYsA5iWIBQAAAAAAANiYIBYAAAAAAMhnt+xblwDMTRALAAAAAABks7YuAJifIBYAAAAAAMjlWA6tSwDmJ4gFAAAAAAAyWcvd8tC6CGB+glgAAAAAAACAjQliAQAAAACAPHbLvnUJQA6CWAAAAAAAIIu1dQFAHoJYAAAAAAAgh2M5tC4ByEMQCwAAAAAA5HC3PLQuAchDEAsAAAAAAGTgWGIglCAWAAAAAACY327Zty4ByEUQCwAAAAAAzE43LBBOEAsAAAAAAMztWA6tSwDyEcQCAAAAAAAzW8vd8tC6CCAfQSwAAAAAAADAxgSxAAAAAADAvHbLvnUJQE6CWAAAAAAAYFZr6wKAvASxAAAAAADAnI7l0LoEIC9BLAAAAAAAMKO13C0PrYsA8hLEAgAAAAAAAGxMEAsAAAAAAMxnt+xblwDkJojthwvDAQAAAABgG9bcgeYEsQAAAAAAwFyO5dC6BABBLAAAAAAAMJO13C0PrYsAEMT246Z1AQAAAAAAMDzdsEAnBLH9cF49AAAAAADU0g0LdEIQCwAAAAAAzELTE9ANQSwAAAAAADAHxxIDHRHEAgAAAAAAM1gdSwz0RBALAAAAAACMTzcsNfnt+QAAIABJREFU0BlBLAAAAAAAMDrdsEB3BLEAAAAAAAAAGxPEAgAAAAAAY9st+9YlALwliO2Fs+sBAAAAAOASa+sCAN4jiAUAAAAAAMal0QnolCAWAAAAAAAY1VrulofWRQC8RxALAAAAAACMSTcs0DFBLAAAAAAAMCbdsEDHBLG98LAAAAAAAIBzrK0LAPiMIBYAAAAAABjPbtm3LgHgM4JYAAAAAABgNLphge4JYgEAAAAAgLEcy6F1CQBfEcT2xQ4eAAAAAAD43FrulofWRQB8RRALAAAAAACMQzcsMAhBbF9uWhcAAAAAAABd0w0LDEIQ2xdHEwMAAAAAwMesowPDEMQCAAAAAABj2C371iUAnEoQCwAAAAAAjEA3LDAUQSwAAAAAANC/Yzm0LgHgHIJYAAAAAACgd2u5Wx5aFwFwDkFsT+zmAQAAAACAP1k/BwYkiAUAAAAAAPqmGxYYkCAWAAAAAADo2dq6AIBLCGIBAAAAAIB+7ZZ96xIALiGI7YmjFQAAAAAA4CXdsMCwBLEAAAAAAECfjuXQugSASwliAQAAAACAHq1OkgRGJojtj2MWAAAAAABANywwOEEsAAAAAADQG92wwPAEsQAAAAAAAAAbE8QCAAAAAAB92S371iUA1BLEAgAAAAAAPVlbFwCwBUEsAAAAAADQD92wwCQEsb05lkPrEgAAAAAAoBHdsMA0BLEAAAAAAEAfNCsBExHEAgAAAAAAPVjL3fLQugiArQhie+MhAwAAAABARrphgckIYgEAAAAAgNZ0wwLTEcQCAAAAAAAAbEwQ26e1dQEAAAAAABBmt+xblwCwNUEsAAAAAADQkuYkYEqCWAAAAAAAoB3dsMCkBLEAAAAAAEArumGBaQliAQAAAACANo7l0LoEgGsRxPbIgwcAAAAAgPmt5W55aF0EwLUIYgEAAAAAgHiakoDJCWIBAAAAAIBoumGB6Qlie+ThAwAAAADAzHTDAgkIYgEAAAAAgEi6YYEUBLH9WlsXAAAAAAAAm9MNCyQhiAUAAAAAAOLohgWSEMQCAAAAAABRnAYJpCGIBQAAAAAAYuyWfesSAKIIYgEAAAAAgAi6YYFUBLG9clk5AAAAAAAz0Q0LJCOIBQAAAAAArk03LJDO0roAPnH/+Kt1CQAAAAAAUG23fG9dAkA0HbEAAAAAAMA16YYFUhLE9s3DCQAAAACAsR3LoXUJAC0IYgEAAAAAgGtZy93y0LoIgBYEsQAAAAAAwHXohgUSE8QCAAAAAADXoBsWSE0Q2zM7hQAAAAAAGJU1biA5QSwAAAAAALA13bBAeoJYAAAAAABgW7phAQSxXbNbCAAAAACA8eiGBSiCWAAAAAAAYEu6YQFKKYLYEaytCwAAAAAAgBPphgX4lyAWAAAAAAAAYGOCWAAAAAAAYAtr2S371kUA9EIQ2ztn6QMAAAAAAMBwBLEAAAAAAEA93bAArwhiAQAAAACAWmvrAgB6s7QugBPcP/5qXQIAAAAAAHxot3xvXQJAb3TEjsFOIgAAAAAAemUNG+AdglgAAAAAAOBy7oYFeJcgFgAAAAAAuJRuWIAPCGIBAAAAAIDL6IYF+JAgdgTHcmhdAgAAAAAAvKEbFuATglgAAAAAAOB8umEBPiWIHcHd8tC6BAAAAAAAeEE3LMAXBLHj8FADAAAAAKAPumEBviSIBQAAAAAAzqFxCOAEglgAAAAAAOB0umEBTiKIBQAAAAAATqUbFuBEgthRHMuhdQkAAAAAACSnGxbgZIJYAAAAAADgFLphAc6wtC6AM9w//mpdAgAAAAAASe2W761LABiJjtix2G0EAAAAAEAL1qcBziSIBQAAAAAAPuduWICzCWIBAAAAAIDP6IYFuIAgdiTHcmhdAgAAAAAAyeiGBbiIIBYAAAAAAPiIbliACy2tC+BM94+/WpcAAAAAAEASu+V76xIARqUjFgAAAAAAeI9uWIAKgtjxePABAAAAAHBtq7thAeoIYgEAAAAAAAA2JogFAAAAAABe0g0LsAFB7GiO5dC6BAAAAAAAJmYdGmATgtjR3C0PrUsAAAAAAGBaq3VogG0IYgEAAAAAgCe6YQE2I4gd09q6AAAAAAAApqMbFmBDglgAAAAAAEA3LMDGBLEAAAAAAIBuWICNCWJHZFcSAAAAAABbsu4MsDlB7IjsSgIAAAAAYDu6YQGuQBALAAAAAACZ6YYFuApB7LjW1gUAAAAAADA83bAAVyKIBQAAAACArHTDAlyNIHZUHo4AAAAAANTRDQtwRYJYAAAAAADIaLfsW5cAMDNB7KjsUgIAAAAA4HJr6wIAZieIHZsHJQAAAAAA59MNC3B1glgAAAAAAMhFkw9AAEEsAAAAAADkseqGBYghiB3ZsRxalwAAAAAAwECsKwOEEcSO7G55aF0CAAAAAADDWK0rA8QRxAIAAAAAQAa6YQFCCWLH51J1AAAAAAC+ohsWIJggFgAAAAAAZqcbFiCcIHZ0Hp4AAAAAAHxONyxAA4JYAAAAAACYmYYegCYEsaOziwkAAAAAgI/phgVoRBA7h7V1AQAAAAAAdGi37FuXAJCVIBYAAAAAAOakiQegIUHsDJzvDwAAAADAa6tuWIC2BLEAAAAAADAbDTwAzQliZ+CidQAAAAAAnq3WjQHaE8TOw1n/AAAAAADohgXohCAWAAAAAADmoRsWoBOC2FnY4QQAAAAAgLVigG4IYgEAAAAAYA66YQE6srQugA3dP/5qXQIAAAAAAI3slu+tSwDgmY7YuaytCwAAAAAAoAnrwwCdEcQCAAAAAMDY1rJb9q2LAOA1QexMXMIOAAAAAJCPtWGALgliAQAAAABgXGu5Wx5aFwHAnwSxM/GwBQAAAADIRTcsQLcEsfNxITsAAAAAQA66YQE6JogFAAAAAIAR7ZZ96xIA+JggdjaOoQAAAAAAmN+x3LYuAYDPCWJn4xgKAAAAAIDZOZIYYACC2Dm5JxYAAAAAYFZORgQYgiAWAAAAAADGoRsWYBCCWAAAAAAAGMVu2bcuAYDTCGJn5FgKAAAAAIAZuZYOYCBL6wK4kvvHX61LAAAAAABgM6tuWICx6Iidl51RAAAAAACzcBIiwHAEsQAAAAAA0Le13C0PrYsA4DyC2FnZHQUAAAAAMAfrvQBDEsTOyu4oAAAAAIAZ6IYFGJQgdm7uiQUAAAAAGNlu2bcuAYDLCGIBAAAAAKBHx3LbugQALieInZl7AwAAAAAARuVIYoDBCWIBAAAAAKA3Gm0AhieIndnTbin3xAIAAAAAjEU3LMAEBLEAAAAAANCT3bJvXQIA9QSxAAAAAADQi2O5bV0CANsQxM7OPQIAAAAAAKNwJDHARASxs/PQBgAAAAAYg8YagKkIYnNYWxcAAAAAAMCndMMCTEYQCwAAAAAAre2WfesSANiWIDYDx1kAAAAAAPTrWG5blwDA9gSxGTjOAgAAAACgV44kBpiUIDYP98QCAAAAAPTGkcQA0xLEAgAAAABAGxpoACYmiM3CPbEAAAAAAD1ZdcMCzE0Qm4U7BgAAAAAA+qF5BmB6gthcHHMBAAAAANDeqnkGYH6CWAAAAAAAiORIYoAUBLGZOOoCAAAAAKCtY7ltXQIAMQSxmTjqAgAAAACgJUcSAyQiiM3HPbEAAAAAAC04tRAgFUEsAAAAAABcn25YgGQEsdnYcQUAAAAAEG0tu2XfuggAYglis3naceV4YgAAAACAKBpkAFISxAIAAAAAwPU4khggKUFsRnZfAQAAAADEcCQxQFqCWAAAAAAAuIZjuW1dAgDtCGIzck8sAAAAAMC1OZIYIDlBLAAAAAAAbM2RxADpCWKzck8sAAAAAMB1OJIYgCKIzcuRGAAAAAAA1+BIYgBKKYLY7NwTCwAAAACwJUcSA/AvQSwAAAAAAGxD8wsA/yeIzcw9sQAAAAAAW1l1wwLwkiA2M/cUAAAAAABsQ+MLAG8IYnFUBgAAAABAnVXjCwBvCWKzs0sLAAAAAKCGI4kBeJcgNju7tAAAAAAALqfZBYAPCGIpxfHEAAAAAACXcCQxAB8SxAIAAAAAwPkcSQzApwSxODoDAAAAAOBc1lUB+IIgFvfEAgAAAACcx5HEAHxJEMtv7okFAAAAAPiaI4kBOIkgFgAAAAAATuVIYgBOtLQugI7cP/5qXQIAAAAAQMd0wwJwMh2xvOR4YgAAAACA9wlhATiLIBYAAAAAAL7iSGIAziSI5ZkXCQAAAACA96zlbnloXQQAY3FHLK+5JxYAAAAA4CVHEgNwER2xvOWeWAAAAACA35wkCMCFBLG85qUCAAAAAOA3RxIDcDFHE/MnxxMDAAAAADiSGIAqOmJ5j+OJAQAAAIDchLAAVBLEAgAAAADAS8dy27oEAMbnaGLe53hiAAAAACAnRxIDsAkdsXzE8cQAAAAAQD5CWAA2IogFAAAAAIBSHEkMwKYEsbzvWA6tSwAAAAAACLSWu+WhdREAzEMQy/ueXjgcTwwAAAAAZOBeWAA2J4gFAAAAACA3JwT+r727uWlkXQIwXD5MFDcSskByAByxJCKWyA4AqbMgErJo+S4MZ2bAGP90d30/z7MZzl2V7sry66oPgBkIsXzPhw8AAAAAoH1OEgMwi1X2ABRuu3vLHgEAAAAAYCZOEgMwGxux/MQ7sQAAAABAm0RYAGYkxHKc88QAAAAAQIvGWGePAEDbhFiO8zYCAAAAANAe78ICMDshllM4TwwAAAAAtMNJYgAWIMTyM+eJAQAAAIBWOEkMwEKEWH7mRAcAAAAA0AYniQFYjBDLqZwnBgAAAABqNjhJDMCShFgAAAAAANonwgKwMCGW0/iQAgAAAADUyruwACQQYjmH88QAAAAAQG28CwtACiEWAAAAAIBWeRcWgDRCLKfzgQUAAAAAqMkYm+wRAOiXEMu5nCcGAAAAAGrgJDEAqYRYAAAAAABa4yQxAOlW2QNQoe3uLXsEAAAAAIBviLAAFMFGLJdwnhgAAAAAKJN3YQEohBALAAAAAEArvAsLQDGcJuYyzhMDAAAAAGVxkhiAotiI5VLOEwMAAAAApRBhASiOEAsAAAAAQN28CwtAgZwm5nLOEwMAAAAA+WzDAlAkG7Fcw3liAAAAACCTCAtAsYRYAAAAAABqJMICUDQhlsv5kAMAAAAAZPEuLACFE2K5lvPEAAAAAMDShnhYvWYPAQDHCLFcx6/OAAAAAIBlOUkMQBVW2QPQgO3uLXsEAAAAAKALIiwA1bARyxScJwYAAAAA5udCHwAVEWK5ng8/AAAAAMDcxlh7FxaAmgixXM+HHwAAAABgXoPvIQGojRDLVJwnBgAAAADm4F1YAKokxDIN54kBAAAAgDmIsABUSohlGvuzILZiAQAAAIDpjLHOHgEALiXEAgAAAABQIu/CAlA1IZbpOE8MAAAAAEzDu7AAVE+IZTrOEwMAAAAA1xNhAWiCEAsAAAAAQDlc3gOgEavsAWjQdveWPQIAAAAAUKEx1t6FBaAVNmKZg/PEAAAAAMC5BhEWgJYIsUzP6RAAAAAA4DzehQWgOU4TMw/niQEAAACA04iwADTJRixzcZ4YAAAAAPiZC3sANEqIZR4+PAEAAAAAPxlj7V1YAFolxDKP/YcnW7EAAAAAwHcGERaAlgmxzMdWLAAAAABwmHdhAWjeKnsAGrfdvWWPAAAAAAAURYQFoAs2Ypmb88QAAAAAwG8iLACdEGKZl/PEAAAAAMCHMdbZIwDAUoRY5vWweg1bsQAAAABAxPD+fSEAdEGIZX62YgEAAACgd96FBaA7q+wB6MR295Y9AgAAAACQQoQFoEs2YlmK88QAAAAA0B8RFoBuCbEsw3liAAAAAOiP7wUB6JgQyzIeVq9hKxYAAAAA+jHG+v17QQDokhDLcvz6DQAAAAB6MYiwAPRulT0Andnu3rJHAAAAAABm5V1YAAgbsSzPeWIAAAAAaJcICwDvbMSyPFuxAAAAANAiERYA/mAjlgy2YgEAAACgNWNsskcAgJIIsSzPBzIAAAAAaMsY63hYvWaPAQAlEWJZ3v4Dma1YAAAAAGiBCAsABwmx5LAVCwAAAAAtGERYADhslT0AHdvu3rJHAAAAAAAuNsT96jF7CAAolY1YMjlPDAAAAAB1EmEB4Ac2YsllKxYAAAAAaiPCAsAJbMSSzVYsAAAAANRkjE32CABQAyGWXD60AQAAAEA9xljHw+o1ewwAqIEQS679hzZbsQAAAABQOhEWAM4ixJLPViwAAAAAlG4QYQHgPKvsASAiIra7t+wRAAAAAICDhrhfPWYPAQC1sRFLKZwnBgAAAIDyiLAAcCEbsZTDViwAAAAAlESEBYAr2IilJLZiAQAAAKAMIiwAXEmIpRxjbLJHAAAAAADCd3UAMAEhlnI8rF7DViwAAAAA5Bpj/f5dHQBwBSGWsvilHQAAAADkEWEBYDJCLGWxFQsAAAAAOURYAJiUEEt5bMUCAAAAwNIGERYApiXEUh5bsQAAAACwpCHuV4/ZQwBAa4RYymQrFgAAAACWIMICwExW2QPAt7a7t+wRAAAAAKBhIiwAzMhGLCVznhgAAAAA5iHCAsDMbMRSNluxAAAAADA1ERYAFmAjltLZigUAAACAKY2xyR4BAHpgI5by2YoFAAAAgGmMsY6H1Wv2GADQAxux1MBWLAAAAABcS4QFgEXZiKUOtmIBAAAA4HIiLAAszkYstbAVCwAAAACXGURYAFieEEsdxthkjwAAAAAAFRrifvWYPQQA9EiIpQ77X+zZigUAAACA04mwAJBIiKUetmIBAAAA4FQiLAAkE2Kph61YAAAAADiFCAsABRBiqYutWAAAAAA4RoQFgEIIsdTFViwAAAAAfEeEBYCCCLHUx1YsAAAAAHwmwgJAYYRY6mMrFgAAAAD+JMICQIGEWOpkKxYAAAAAIkRYACjWKnsAuNh29xQRd9ljAAAAAECa+9X/skcAAA6zEUu9bMUCAAAA0K8hxlhnDwEAfE+IpV7eigUAAACgV2Ns3r8fAwAK9St7ALjKGJu4cZ4YAAAAgI44RwwAVbARS91sxQIAAADQE+eIAaAaq+wBYBLb3Vv2CAAAAAAwqzHWzhEDQD1sxNIKW7EAAAAAtEuEBYDq2IilHbZiAQAAAGiRCAsAVbIRS0tsxQIAAADQFhEWAKplI5a22IoFAAAAoBUiLABUzUYsrbEVCwAAAED9RFgAqJ6NWNqz3T1FxF32GAAAAABwEREWAJpgI5b2jLHJHgEAAAAALiLCAkAzhFjas/+g6kQxAAAAAHURYQGgKUIsbbIVCwAAAEBNRFgAaI4QS5tsxQIAAABQCxEWAJokxNIuW7EAAAAAlE6EBYBmCbG0y1YsAAAAACUTYQGgaUIsbbMVCwAAAECJRFgAaJ4QS9tsxQIAAABQGhEWALqwyh4AFrHdvWWPAAAAAED3hhhjI8ICQB9sxNILW7EAAAAA5BJhAaArQix9uF89hhgLAAAAQI7BOWIA6I8QSz/G2GSPAAAAAEB3nCMGgE55I5a+bHdPEXGXPQYAAAAAXRjeL7UBAB2yEUtfbMUCAAAAsAwRFgA6J8TSl/0JGG/FAgAAADAnERYAcJqYTm13b9kjAAAAANAkERYAiAgbsfTLViwAAAAAUxNhAYD/2IilX9vdU0TcZY8BAAAAQBNEWADgLzZi6dcYm+wRAAAAAGiCCAsAfCHE0q+H1Ws4UQwAAADAdURYAOAgp4lhu3vLHgEAAACAKomwAMC3bMSCrVgAAAAAzjXGWoQFAI6xEQsREdvdU0TcZY8BAAAAQAXGWL8/ewUA8C0bsRARMcYmewQAAAAAKiDCAgAnEmIhIt4/PDtRDAAAAMD3RFgA4AxCLHywFQsAAADAYYMICwCcyxux8CdvxQIAAADwtyHuV4/ZQwAA9RFi4TMxFgAAAIA9ERYAuJjTxPCZE8UAAAAAiLAAwJWEWPhs/9bHkD0GAAAAAGlEWADgak4Tw3e2u7fsEQAAAABYnAgLAEzCRix8Z4x19ggAAAAALGiMtQgLAExFiIXvOFEMAAAA0I8x1u/fBwEATMJpYviJE8UAAAAAbRNhAYAZ2IiFn9mKBQAAAGjTIMICAHOxEQun2O6eIuIuewwAAAAAJjN4DxYAmJONWDjFGJvsEQAAAACYjAgLAMxOiIVT7M/TOFEMAAAAUD8RFgBYhNPEcA4nigEAAABqJsICAIuxEQvncKIYAAAAoE5jrEVYAGBJQiycw4liAAAAgNoMMcb6/XsdAIDFOE0Ml3CiGAAAAKAGThEDAGlsxMIlnCgGAAAAKJ0ICwCkEmLhEk4UAwAAAJRMhAUA0jlNDNdwohgAAACgNCIsAFAEG7FwDSeKAQAAAMoxxlqEBQBKIcTCNZwoBgAAACjBEGOs37+rAQAogtPEMAUnigEAAACyOEUMABTJRixMwYliAAAAgAwiLABQLCEWpuBEMQAAAMDSRFgAoGhOE8OUnCgGAAAAmJ/3YAGACtiIhSk5UQwAAAAwp0GEBQBqYSMWpva8u42beMkeAwAAAKAxThEDAFWxEQtT814sAAAAwNREWACgOjZiYS7b3Vv2CAAAAADVc4oYAKiUjViYyxjr7BEAAAAAKuY9WACgajZiYU7b3VNE3GWPAQAAAFAZp4gBgOoJsTA3MRYAAADgHCIsANAEIRaW4L1YAAAAgJ85RQwANMQbsbAE78UCAAAAHOM9WACgOTZiYSlOFAMAAAAc4hQxANAkIRaWJMYCAAAA/EmEBQCa5TQxLGmMTfYIAAAAAEUYYy3CAgAtE2JhSQ+rV+/FAgAAAJ3zHiwA0AWniSGDE8UAAABAn5wiBgC6IcRCFjEWAAAA6IsICwB0xWliyOK9WAAAAKAX3oMFADpkIxYyPe9u4yZesscAAAAAmIktWACgWzZiIdPD6jUihuwxAAAAAGYgwgIAXbMRCyXwXiwAAADQkjHW7z9ABwDolhALpdju3rJHAAAAALjSEGNsRFgAgIhf2QMA78ZYey8WAAAAqJhTxAAAf7ARCyVxohgAAACokVPEAABf/JM9APCH/a9Gh+wxAAAAAE40iLAAAIfZiIUS2YwFAAAAyucUMQDAETZioURjbLJHAAAAAPjWGGsRFgDgOCEWSvSweo0x1tljAAAAAHziFDEAwImcJoaSOVEMAAAAlMMpYgCAMwixUDoxFgAAAMhmCxYA4GxCLNRAjAUAAABy2IIFALiQEAu12O7eskcAAAAAuiLCAgBc4Z/sAYATjbHOHgEAAADowhBjrEVYAIDr2IiFmjzvbuMmXrLHAAAAAJplCxYAYCJCLNTGe7EAAADAHMZYx8PqNXsMAIBWOE0Mtdn/KnXIHgMAAABoxiDCAgBMz0Ys1MpmLAAAAHA9p4gBAGYixELNxFgAAADgMkOMsbEFCwAwn1/ZAwBXGGMTN0IsAAAAcBZbsAAAC7ARC7V73t3GTbxkjwEAAABUwFuwAACLEWKhBWIsAAAAcJwtWACAhQmx0ArvxQIAAACH2IIFAEjxT/YAwET2v2odsscAAAAAijGIsAAAeWzEQmtsxgIAAABOEQMApBNioUViLAAAAPRqiDE2tmABAPIJsdAqMRYAAAB6YwsWAKAgv7IHAGYyxiZuIkKMBQAAgNbZggUAKJCNWGjZ8+42buIlewwAAABgNrZgAQAKJcRC68RYAAAAaJEtWACAwgmx0AMxFgAAAFpiCxYAoAJCLPRCjAUAAIDa2YIFAKiIEAs9EWMBAACgVrZgAQAq80/2AMCC9r+YHbLHAAAAAE42xBhrERYAoD42YqFH291TRNxljwEAAAAcZQsWAKBiQiz0SowFAACAUnkLFgCgAUIs9EyMBQAAgNLYggUAaIQQC70TYwEAAKAEAiwAQGOEWECMBQAAgExjrJ0hBgBojxAL7ImxAAAAsDRbsAAADRNigd/EWAAAAFjCEGNsbMECALRNiAX+JsYCAADAnGzBAgB0QogFvhJjAQAAYGq2YAEAOiPEAoeJsQAAADCNMdYCLABAf4RY4HtiLAAAAFzDGWIAgI4JscBxYiwAAACcyxliAACEWOAEYiwAAACcyhYsAAARIcQCpxJjAQAA4BhbsAAA/EWIBU73vLuNm3jJHgMAAACKMsZagAUA4DMhFjiPGAsAAAAfnCEGAOBbQixwPjEWAACAvjlDDADAj4RY4DJiLAAAAP0RYAEAOJkQC1xOjAUAAKAfzhADAHAWIRa43nb3FBF32WMAAADADGzBAgBwkV/ZAwANGGMTNxEhxgIAANAOARYAgKvYiAWms929ZY8AAAAAE3CGGACAqwmxwLScKQYAAKBeAiwAAJMRYoHpibEAAADUxRliAAAmJ8QC8xBjAQAAKJ8ACwDAbIRYYD7Pu9u4iZfsMQAAAOCLMdYCLAAAcxJigXmJsQAAAJTFO7AAACxCiAWW4VQxAAAAuQRYAAAWJcQCyxFjAQAAWJ53YAEASCHEAssSYwEAAFiGAAsAQCohFlieGAsAAMCcxlgLsAAAZBNigRzPu9u4iZfsMQAAAGiKd2ABACiGEAvk2cfYf8N2LAAAANcRYAEAKI4QC+RzqhgAAIDLCLAAABRLiAXKIMYCAABwuiHG2HgHFgCAkgmxQDm8GwsAAMBxAiwAANUQYoGyeDcWAACArwRYAACqI8QCZXKqGAAAAAEWAICKCbFAucRYAACAXgmwAABUT4gFyubdWAAAgJ4IsAAANEOIBepgOxYAAKBlQ0RE3K8ek+cAAIDJCLFAPcRYAACAFg0CLAAALRJigbo4VQwAANAKARYAgKYJsUCdbMcCAADUSoAFAKALQixQLzEWAACgJgIsAABdEWKBujlVDAAAUDoBFgCALgmxQBtsxwIAAJRGgAUAoGtCLNAOMRYAAKAEAiwAAIQQC7Rmf6r43xBkAQAAljRERAiwAADwmxALtMl2LAAAwBIEWAAA+IYQC7Ti34j4AAAKUUlEQVTLdiwAAMB8xljHw+o1ewwAACiVEAu0TYwFAACY0hBjbARYAAD4mRAL9GEfZF+yxwAAAKiUAAsAAGcSYoG+eDsWAADgHAIsAABcSIgF+mM7FgAA4CcCLAAAXEmIBfplOxYAAOAzARYAACYixAJ9sx0LAAAQETHE/eoxewgAAGiJEAsQYTsWAADolQALAAAzEWIBPuy3Y/8NQRYAAGib88MAALAAIRbgM9uxAABAmwRYAABYkBALcIjtWAAAoB0CLAAAJBBiAY7ZB9mX7DEAAAAuIMACAEAiIRbgFM4VAwAAdRgiIuJ+9Zg8BwAAdE+IBTiVc8UAAEC5bL8CAEBhhFiAcwmyAABAOQRYAAAolBALcAkxFgAAyDU4PwwAAGUTYgGu5f1YAABgGbZfAQCgIkIswBRsyAIAAPMRYAEAoEJCLMCUBFkAAGA6zg8DAEDFhFiAOThXDAAAXMb2KwAANEKIBZiTIAsAAJxGgAUAgMYIsQBLEGQBAICvhogI54cBAKBNQizAUrwfCwAA7Nl+BQCADgixAEsTZAEAoFeD7VcAAOiHEAuQRZAFAIAe2H4FAIBOCbEA2QRZAABokQALAACdE2IBSiHIAgBA7cRXAADgP0IsQGkEWQAAqI0ACwAAfCHEApRKkAUAgJKJrwAAwFFCLEDpBFkAACjFEBER96vH5DkAAIAKCLEAtRBkAQAgi+1XAADgbEIsQG0EWQAAWIL4CgAAXEWIBajZdvcUgiwAAExlf3pYgAUAACYgxAK0wJYsAABcw/YrAAAwOSEWoCWCLAAAnEp8BQAAZiXEArRIkAUAgEP2p4fvV4/JcwAAAB0QYgFa5x1ZAACw/QoAACxOiAXohS1ZAAD6Ir4CAACphFiA3giyAAC0S3wFAACKIcQC9Gx/tjhClAUAoF7efQUAAIokxAJgSxYAgNqIrwAAQPGEWAD+ZksWAIAy7eOr08MAAEAlhFgADrMlCwBAPvEVAAColhALwM9syQIAsBzxFQAAaIIQC8DpbMkCADAP8RUAAGiOEAvAZWzJAgBwHfEVAABomhALwHVsyQIAcDrxFQAA6IYQC8B0RFkAAL7ax9f71WPyHAAAAIsSYgGYhygLANAz8RUAAOieEAvA/LwnCwDQg8HJYQAAgN+EWACWJcoCALTCe68AAABHCLEA5Ph9ujhClAUAqIX4CgAAcCIhFoB8oiwAQMmcHAYAALiAEAtAWURZAIBstl4BAAAmIMQCUC5RFgBgKeIrAADAxIRYAOogygIATEl4BQAAmJkQC0Cdtrun979EWQCA04ivAAAACxJiAaifKAsAcIjwCgAAkEiIBaAtv08Yi7IAQI8G4RUAAKAMQiwA7fKuLADQPluvAAAAhRJiAeiHE8YAQP2EVwAAgEoIsQD0ybYsAFAH4RUAAKBSQiwARNiWBQBKIbwCAAA0QogFgM9sywIAyxFeAQAAGiXEAsBPhFkAYDrCKwAAQCeEWAA4x/PuNiJCmAUATiS8AgAAdEqIBYBreV8WAPhNeAUAACAihFgAmJYzxgDQk+G/v4RXAAAAPhFiAWBuNmYBoBW2XQEAADiZEAsAS/LGLADUwrYrAAAAVxFiASCTMAsApbDtCgAAwKSEWAAojXdmAWBuv6NrRAivAAAAzEGIBYDS2ZoFgGuIrgAAAKQQYgGgRrZmAeAQ0RUAAIBiCLEA0AJbswD0R3QFAACgaEIsALRKnAWgDcN/f42xEVwBAACohRALAD0RZwEomy1XAAAAmiHEAkDvxFkAlmfLFQAAgOYJsQDAYc+72z/ibIRAC8D5/g6uEbZcAQAA6IYQCwCczvYsAIcJrgAAAPCJEAsAXM/2LEAvBFcAAAA4kRALAMzj6/ZshEALUIPhr//yhisAAABcRIgFAJZngxagBLZbAQAAYEZCLABQDlu0AFMTWwEAACCJEAsAlO8j0EaItABfia0AAABQICEWAKjb4S3aCJEWaMfXN1sjxFYAAAAonBALALRNqAXqYKsVAAAAGiPEAgB9E2qB+dloBQAAgA4JsQAAxxwOtXexDytiLXA4skYIrQAAANA5IRYA4Frfb9VGiLVQq48fWzgZDAAAAFxEiAUAWMrxM8g2bGEZw5f/RWAFAAAAZiDEAgCU5iPYRny3ZRsh2sKH7zdXPwisAAAAQAIhFgCgdn+G24hjJ5Jt3VK6r9uqEcIqAAAAUCUhFgCgV6cF3A9CLj/5upn6p88xNUJQBQAAAJomxAIAcLnPMffD8agb8XfYFXiX9xFLvw+nEft4ehP/iqgAAAAA5xNiAQAo2/PuNh5Wr3/9e40/w+LH36f8GxEX/33s388zXeLz/z8iKQAAAAAAAAAAAAAAAAAAAAAAAAAAAAAAAAAAAAAAAAAAAAAAAAAAAAAAAAAAAAAAAAAAAAAAAAAAAAAAAAAAAAAAAAAAAAAAAAAAAAAAAAAAAAAAAAAAAAAAAAAAAAAAAAAAAAAAAAAAAAAAAAAAAAAAAAAAAAAAAAAAAAAAAAAAAAAAAAAAAAAAAAAAAAAAAAAAAAAAAAAAAAAAAAAAAAAAAAAAAAAAAAAAAAAAAAAAAAAAAAAAAAAAAAAAAAAAAAAAAAAAAAAAAAAAAAAAAAAAAAAAAAAAAAAAAAAAAAAAAAAAAAAAAAAAAAAAAAAAAAAAAAAAAAAAAAAAAAAAAAAAAAAAAAAAAAAAAAAAAAAAAAAAAAAAAAAAAAAAAAAAAAAAAAAAAAAAAAAAAAAAAAAAAAAAAAAAAAAAAAAAAAAAAAAAAAAAAAAAAAAAAAAAAAAAAAAAAAAAAAAAAAAAAAAAAAAAAAAAAAAAAAAAAAAAAAAAAAAAAAAAAAAAAAAAAAAAAAAAAAAAAAAAAAAAAAAAAAAAAAAAAAAAAAAAAAAAAAAAAAAAAAAAAAAAAAAAAAAAAAAAAAAAAAAAAAAAAAAAAAAAAAAAAAAAAAAAAAAAAAAAAAAAAAAAAAAAAAAAAAAAAAAAAAAAAAAAAAAAAAAAAAAAAAAAAAAAAAAAAAAAAAAAAAAAAAAAAAAAAAAAAAAAAAAAAAAAAAAAAAAAAAAAAAAAAAAAAAAAAAAAAAAAAAAAAAAAAAAAAAAAAAAAAAAAAAAAAAAAAAAAAAAAAAAAAAAAAAAAAAAAAAAAAAAAAAAAAAAAAAAAAAAAAAAAAAAAAAAAAAAAAAAAAAAAAAAAAAAAAAAAAAAAAAAAAAAAAAAAAAAAAAAAAAAAAAAAAAAAAAAAAAAAAAAAAAAAAAAAAAAAAAAAAAAAAAAAAAAAAAAAAAAAAAAAAAAAAAAAAAAAAAAAAAAAAAAAAAAAAAAAAAAAAAAAAAAAAAAAAAAAAAAAAAAAAAAAAAAAAAAAAAAAAAAAAAAAAAAAAAAAAAAAAAAAAAAAAAAAAAAAAAAAAAAAAAAAAAAAAAAAAAAAAAAAAAAAAAAAAAAAAAAAAAAAAAAAAAAAAAAAAAAAAAAAAAAAAAAAAAAAAAAAAAAAAAAAAAAAAAAAAAAAAAAAAAAAAABX+j/xxMF2980YjgAAAABJRU5ErkJggg==;" vertex="1" parent="1">
          <mxGeometry x="240" y="510" width="230" height="180.72" as="geometry" />
        </mxCell>
        <mxCell id="JW3iJgfV2uW1eodX8U2l-28" value="Cloudformation &lt;br&gt;Stack" style="outlineConnect=0;dashed=0;verticalLabelPosition=bottom;verticalAlign=top;align=center;html=1;shape=mxgraph.aws3.stack_aws_cloudformation;fillColor=#759C3E;gradientColor=none;" vertex="1" parent="1">
          <mxGeometry x="516" y="510" width="137" height="109.04" as="geometry" />
        </mxCell>
        <mxCell id="JW3iJgfV2uW1eodX8U2l-29" value="" style="shape=image;verticalLabelPosition=bottom;labelBackgroundColor=default;verticalAlign=top;aspect=fixed;imageAspect=0;image=data:image/png,iVBORw0KGgoAAAANSUhEUgAAB4MAAAS6AQMAAABqUl3QAAAABlBMVEVHcEwNl02hnzbyAAAAAXRSTlMAQObYZgAAGdNJREFUeNrsnU2SpDgWBhNjoSVH0FE4GtxsOApHYGwWzQKD6e6qmgkUej8SkJlt5b7r6gyQS0/6JIKq/PgAAAAAAAAAAAAAAAAAAAAAAAAAAAAAAAAAAAAAAAAAAAAAAAAAAAAAAAAAAAAAAAAAAAAAAAAAAAAAAAAAAAAAAAAAAAAAAAAAAAAAAAAAAAAAAAAAAAAAAAAAAAAAAAAAAAAAAAAAAAAAAAAAAAAAAAAAAAAAAAAAAAAAAAAAAAAAAAAAAAAAAAAAAAAAAAAAAAAAAAAAAAAAAAAAAAAAAAAAAAAAAAAAAAAAAAAAAAAAAAAAAAAAAAAAAAAAAAAAAAAA+E70x/J7CbfHsf9ext1xHONvZTz8aTz/VsZ/Ch/rt2hJY/f8sN8yjY9ju7z4jbbO7uh74zLxelM/PsJfxsfla2x2p1gj2NnF9ldTp6vG8W/j8dT+1W7+lNhYDWnsShoOa5BDfgb+XaZ5xnzfn9vb2M3vkqpwLAWdqfOj3bM5OrswaFkWqWdfb9TZo5F8os035P02s9knescN+XHrZeNNaP2pL5zFtaVtnayiPvS93Y927+ZF3vttKDL+eZU1+YPZbtuY/Pdir4+bVTh6X7dCpcrCuQ5s0r4IdnGlXT3YOtEcwF/Lz2x12/uNFONDvNGWtG2z27Ymd9ztGagNYHccVl93+Rs1ZcYhvUp/WAGdfqS16/FXoyarCtS+jnmLVjMepeYfBaMRk4sFux4dJTvIo5KuyeMl4y69jz0aQ/IjnZJ9/h9RNw35Gyc9nmUyB6zxt20pr8fVrAKtr498pajGs2ncmm3730KxJsW222WxWYuD1teNYNGVGfdJzwbTOKRZ55iBh9kp/2/2ahovBcaLadyZo9GlK/9g1mNjG0d1Y3gu/NW9rc4ZD8nox4K2jcmaM9uT1FyHlTuHGuPVbexp25RsABa7LEYznOQ7B6EKes14E++0pB+3g/NnLzX2DIy2sXGmPfXbNeNDMna0bUlKdvOWhW48Wca7++iUmyOpsbkMNekcae0ZOJhTvVED5RHj1WvcphUT7Hq0bVrjucV5bviPTu+z8207YdZWSPsvmPXY2Daturyqxo1uPLqNzdr6defOHMHWNg4O4/4R48Y0jorxYup4jDfTeHQfnd7rTjZezPv+vHM0R6ezx6/Tn9Q8Ybx5jQfFeDPLwmN8lBkH3XiWptiWdthiB+eP/ovm6PQlq5K85A9VxovbeLWD84dxb47OYM/ReNhbkCH/A91nGs/Zia2Vxecbr1eNW9V4sjppc6yHUkwIxvGacbCMg2o8W53kMl7uNN6uGndvTeuttoai5JFvLRj3uvF+1Ti+GQ9WW7tS481KiWeMN2/5DVZb47PGw1F0lAj3Gu/WR1zGe5Hx8bDx8DbhBmu7NJQaH0VnTst4vGh86Maj8RGf8Vhg3FjG0zXjxjCejI/sjt26tAX5GuPWMJ6Nj9xv3FrG8zXjYBgvxkd8xvM/yHg19iw+46XAOFjGyzXjzjDejD2Lz3i903jVvzazjKNhvNdFbWK8FRh3Dxv37y0bjCgdyo33O423a8aDZTzqCX6/cXzY+LCMJz3BfcZHgXFvGe8PG896gjuNxxuNj0vGjWm86HnmNJ78xsOzxm3GuNeDpasxnu80Hq8YB9N40/PsfuPjWePONN4deWYbL3caT1eMo2l81Owt3oxXt3FjG88PG4/26m4bb9/GuM80LKrLbFNlvLuNW9t4uWI82Mazurqv/zTjwzZe1NXdaXy4jYNtvF4wbnLGnerU1RmPNxpvF4xbh/GmrnVe48lr3H298a6udYvTePYaR9t4v2AccsZBnYJDnfHyTYw7j/GorXXz3cb20SkZgzLj6DGetLXOa7zeaTzWG/c541aTaiuNN6/x8Kzx4DFetJk/OY33O42neuPsut9oBdlVGh9e4+MbGG/azB+9xuONxnO1cZPPdq0g+4eNG4/xUm3cuoyP0v1y1nj6FsYhb6ztiY9a49ln3HqM12rjzmc8yfNgdxsvPuPwrHHMG/fy8LSOmM0brzcab3cbR3l4wtPGncd4rzbufcarPA9Wt/H2LYyFZnVyY6PjgJC/9O4zjvZ3D8n/KTI+fMa7XBV+46PYeJVbW2vcCMZBbqznoC8Yjy7jXu7NPn+tEuNWMG7lxjr2FZLxVGo8y+vsdLNxIza2edx4kD/QXTcOXuNZ7KPRbzyXGo+y8Vxp3EnRLu6XgneTmTFeXMZKb4brxlEyFh/ZdN5NZsZ4LTVWSnKpNO4l414K5OjdcmWMN49xoxi3+d4rMRZbFaWh7J82bpX6aT7R+Ch5Qilde7/ReKs0Fg8lnbQkH94tV+4Bncc4+Gqi0rgRjYOQpc3h3XLljMf7jPc641Y0bgWz1r0ByRlPDuNOmzFDtl4KjINo3AjVG9wbkJzxXGa8aNlSZ9zJDxeELO3cG5Ba4+g0HquMo2w8FKaWy3gpM561HdPtxn1ezR/HOePVYdxrxvmjRIFxLxsLgeyP45zxVmY8acZzlbHSKCGQ/XGcu/juMB4043DVWHksmg/kgjjOfkXoMFZzIOiPV82/GdIoxvlALojjR4zbi8atYpwP5II4zhqPpnGjJl/+KHGPcT6QC+I4azzdZ7zVGAfNOBvIBXGcNZ5N49b7UkGVcacZZwO5II6zxkuJsf4F/15jHDXjbCAXxHHWeDWNw+F8baXKuNeMs4FcEMfXjVf91aQa40EzzgVySRzrVxeNO7fxeLdxLpBL4jh79b3EeNFfuKsxVr+KzgVySRznX8syjaNunD1KuI0b/cv3zBwsieO88VhgPN9u3OrGmUAuieNK4143Dup7FJZx0I0zgVwSx3njyTIe9EUie5RwG3e6cSaQS+I4bzxfNG6fNM4Eckkc540Xy9hYFrNHCbdx1I3fA7kojvPG65ca97rxeyAXxXHeeDOMGysI1LGxjI0mvQdyURxfNt6Nq+7lxofRpLeKLIrjvPFuGLdPGjeW8Vsg9yVxLLwK7zc2/2WLYuPWMs7Oc3ccC8ajbhy+1DhaxmuF8eQ2zl89d5TwPr0NlnFnGS8VxrNu3FnGuY211/hV6F/q4yOJ2Wn8h984Wv15xfi1aGPuZ8yX2Sen8X/Euig3DtqX7IbxyxqwZ43Nv7AwOo3/Lc79t+b3VgVdMR4s49J/0lA0XsT1vdw4d5SoMN7yxoMuvLuNB+lDb36DNWdyG2uv8Wup5Y37K3EsGB9u4/Fu49dZuuSN45U4fjXu3cb2KqE9dtWNX1fiOW/cXYnjV+MoiWjG5mVLjYNtHK7E8atxJ0VaerGmxHgvND61Im/cXonjV+Mg9ZNi7PinVguNT5WWN26uxPGrsfgLU1Lj9rOMpV+3dSWOJeNVMw52EmSOEk7j1y2XZDxciONX4+ZG467a+HUDIhn3F+L41Vj81QSpcWdnX+Yo4TQ+HMbxQhyfjKVNV4VxUL6BVZ8InAst2ut5aRyfjKUtSNr6aF++Vd4rUI3Py2e0M7s0jk/G0hZEMZ6fNJ4l4/ZCHFcZ944OzZRB8gfB3E9NknFzIY5PxtKmSzG2OlQhmHvmUfz1lxfi+GQsbbrSPx0eNI4u46E+jk/G0qZLMR7vNj6vntF+MlQaxydjaQuSGh8PGp8TMjqe/hXGsWi8ycZNwaS5YrzJxl19HJ+MP76B8Xm0YtFTfFccn42FTVdyubZgmSg1bs6jFYu+qfGtpSdjYdP1icatz7ipj+OzsbAFSYxDwcJYapwEZCz6jtk3z07GwhZENl7vNk5aEIveI/BVnWg8i8bdg8ZJlcWid0V8VXcyDqXGy5PGH4pxrI7js7Gw6UqM44PGvdO4q47js7Gw6ZKN57uNk3wUjUN1HJ+NP6yXa2bvYbHWOGmAaNxWx3FinN+CJIb3HJ2yxmmRicZNdRzLxsdXGKcLiWj8UR3HiXHvMb7n6GQaz6rxUBvHiXF+0/V5xsFt3NfGcWKc33SdW3HT0SlrnN5fNv4ve3eQJCuOgwEYwguWPoKP4qOZo3EUjsCSBUP2RHS9epO2pF8STqomAu+6X2XCZ4xkYRKSNx1XYnoKworP3uJ6jPHi6E3HgnhjxOGD4jqO8OLJm44rcbCJj97iOjvy4uBNx5WYnnS9i6d7xIcsHr3puBLTky5WvPcWv9TiwZuOazE56XoXx8+JmyEmiIszHddicgrC5chLpRMlbsKIIM7OdCyJ59vFTXIUxMmZjmtxwuJOpRMlbiZAgjg603EtJiddrHjpLG76WxBPznRci8lJ1/v/Kr9DHJzpuBaTUxBWPHcWN3FTEI/OdCyJd1rMbCBb+4AQN7lREA/OdFyLycU2Vqxb0WUG2yRtqHlCt+Z5i7p5fiUeoJguFid8p+RY7VYrbue4kjj70nEjpiZdnPhUHuJ/x3qozpZW3AYRSZx86bgRU5OuNzFZLAbFnZL4Xh+bOPrScSOmpiBvYrJ0igoxvoOtTY2SePKlY1G8qMXijZJfYwGL2+mPJA6+dNyIqcU2TrwrFjcJMXtfZju+JPHoS8eNeEJiap0N3OJ9KMVtDJHEgy8dN2Jq0gXFUx9xmydEcXGl40ZMXffhxKsycO1K8csmzq50LIoPrTh1Fx8KcXKl40ZMdDQrXnTzjzpCcGJieIni6ErHrZhYbIPiVxcxEUJE8eRKx60428Xo57GrTkykiVvExKSLE899xcT1l1tGNbFdbgYy62bVX18Dxcko7hW5iEkXJ1506dgjnu/LTtRiG1c7Lbp0/LX7UExEkDtmIFTE5MSrUjzoxERpfscsk8qK3BWBVTcB0YqJ8XlHJUFtmBNvOvGpE1Pz2zuqRWpwcVf2NlV1rBUHo7jXFQFq0sVdr9514kMnpu5PuOOqD7XYhsSlu3hViHtd2aPSIrfudOjEu05MLXndcfWW2jISv7qIqWuKd1yhp0YXt358WkonKKauG9+wCkNGEHbFvKu42MS9VtrILMHeB6ITrzoxNTpvWE0lr/uw4llVLC5m8aEQ91oxJzfN3t3UU0zeSnbDXRHkpOtd3BRPSDyrxORa/Q13vpBB8xYxeT+GIM7CZOeKeG7FTfGExINKHI3iIkzhreLm6sstYmqJ7467FMneZv9z04hPu3jG4m53opJnFPufe0cxNeW64W5j+rpPJS428aETU7dj3HBHOX0xghUfHcVkxOXFUZzRXhAfhDjbxLtKPBrFSd6YTdzMcCtxXTx1EdMPB+PFWR5QRnFdxVwTbyox/ZsUXlzkMGkUZ1lcF0+jqnQyiFeFGCR/o7hOjXeII5liWHG3X2rSk65q7+viaVSVTkBMTkBu+DUuPenixYviioBOnG3ibr+4pq/7VN8XbOJZJS7kuciKI4qTNnGdKSrxyF/584vpeMuKE8qFNvFoFBdN6aQXHwpxRjM8m7jePH9Mt15i5pkNrLigusUvPq+KdU/6ZZ7LwYpxB9vEVRjhR/GOV9p04skm7vYkI+a6zyWx7vnVkU4wnLjb06qYKUi9M1lYMeKDpyhO9D5z4m5PJBvoxTZefPYS0xOQzz91jpl01eK6eIqa0kkvHrA4KXrYJK7iSC2uS4npurjQ+YUTZ0XcMImrSdcl8aoSv2ziosgNJnF1Cabe/bp4CpfF3HMrObFmxmMSV12OxKOmdBLF3APhGXG3J/2So+YUn7yPiyeVmJmAfPxpztykC4qLpsu14hWLuz2xm5t0CQtNK5x0qcSROUaMWJcOTeL3KZAg3uAUZNCIk02sm/KYxO9TkGbE1OKoSRaSmJlyffztCvSJskpvO9pRJNGJC5NdGLGuPDWJ38tVKB41PS6JuR1mxKr1ar94l95adqBOV4m5CQgj7vYmnIGbdGFxUsQRpXjH4m5vOxq4SVcjrosnIUGqxMEm7vZGKy42KMSDIjsKYm7KxYijbmnPJs6iODZhIl0SR+4IJVBfeBKyQjxL4hkc5FUj5iYgjDjrbkqwid/2odn/CQXGbBNzExBGLF8fN7xhkpu5ro04oMCYiH9Xigcsfr2uJGRG/BZL7OJMHDJBXEzibm+K3bgKdG/EI0oFRjE7JElxt7cBb9xVhsMuLsQh48X/YcMOKe72xmeDeEDJzybmUwspjki8ecRvky67mBqkOvGGxQmJd5e4iOOlyN8++sUrFmckPlzirBQfsvj4gLg+GEc2JeQCxxO1P1kWB794weJmECdTQubEURQnuT8DNeh14hmKm3S8RVNC/oh4EsWHJB6guEnH62RKyJxYPsuiPIKiuHwniU8sbn3BlJA5cegjXo3iA4vbMTyaEjInHkUxKJ7SJ8VEnDIlZE489BEvRvGOxUQuKpaE7BOD4im7xRsWEzxTQmbF5YK4UCNAJV6xmBgWpoTMirO0Q6B48osXKKbClCkhFzygqEMgx0Wys1XiGYqpVGRKyKw4/lIxpTMlZFYsn2Zi8USWTjrxAMXUCDYl5E+Ig1t8YjEZpSwJmRUHUSwWT0FeOxHEBxaTmciSkFnx6BdPbvGOxSTOkpBZ8SCKxeKJLJ1U4g2LyU6yJGReXNziKN93cElMBylLQubFWRKLxVNyi1cophORJSE7xWIpQZZOKvECxbTNkpCLYkRZxdktnqGYHr+WhMyLoyQWSwmydFKJByhmYpQhIfPiyS0uXvGJxUweMiRkXhwksVg80aO0j5ihGRIyLx7vFx9YzAxfQ0J2iqXiaaS3qxDvdvEmBTSjeLhfvEHxyOyRISEL4iKJheKJLp004hWKAyMzJGRBnKVdEkoJupDQiBconpjRa0jIRTOkfo84chFKn5AFcZTEQikR6c0qxDMUJy4Llf9P8QDFmctnWT0FEcRiaImaqeFmE59YzB7KpJ6CCOLgFGev+MBiNkBF9RSkqPJqKxaKJ7p0Uoh3u3hlB+TsEA9OcfmceGSje1BPQSRxEcRC8USXTgrxBsWBPZLjx8Uj/90vr3iF4ok/W9WTLkmcdeKVPf1nm3gxi4W3AW4ecZKOwktxoXuwiWcojnx0zz3E0SUObvEAxYmPdUk76ZLE4pnGFk9M6fQR8cYfnsMjDi7x5BWfWJz5/Zk+LmaLp8j8AxQfdvHC7+zpEY86seKuM5V4x+LCx7qxh3iQxIk7/zJDgOINi6UzXzuxFsVFEEcujxaveDWLT2lnXeKsE3Nt6y0epTM/K0uJohtUODZeFy9m8S7t7E+IV5t4huIgdWlUlhKiOAqG0F08mMWrNF9yiadr4sUkPrFYRAVl8SSKpeveIxbPJvFhF8/S7MElHn+5WJw9bB6xWGZj8WAS71gcxfOgfFpcOos3s1h+aqhPXK6IT5t4NYt3MZfuLrFQneEf0xnFCxYn8SjGHuJ0RXzYxLNZvIq51CeOgjj9uHgRc+nhEk9XxLtNPGBxFvto/LQ49hWfdrGcWXzicEW8mcSHWXzKmcUnlmZu1p/zA/FuFoOXXJ0u8SAgQl/xZhbvcmZxissF8WISr2YxuKnBKc78bo33i4v8iekD4sUink3ixSxe5DjrFEs5v694NotnOc46xfGCeDCJB1m8t2IQZ51iaegVmziI4tMsPkGcdYqDX3yaxIdZfICo4xSPgjj/rHgHUccpHgRxMpVOQLybxehq8/3i3STezOIVRB2vWEiBsad4NYsXEHW84uwWbybxYhbPIOp4xYnfr6mneDaL0TmIxfS4ivx+GR/GWouDYrVXEJ/oHPSKhSMRflR8oHPwfvFiEZ9m8Y7OQa846Je2gHiUxMwlmvgeFTJKZ7GDeBTii6l0asSj4uKyIF7RiPSKB/1i3hXxZhYvaERy4ozW1IWMUCyl01/hTohXs3hGI/LwinMv8VCPYMUtDNN7l2QY3HuIhfCXLaWTLJ5V4gTHbPlB8QHFBd9uFljxAUckt9KWUDcLAT/ZxKWKUgVHmfB+PBL0pA7iiVckS+nUijMegeO7OBqCOyuOSBx4cewm3qF4rja4wuOzQTHcqHDvuKJ0+itc2yHC7d3wLp5gcA/4OyckHu4QL3Dj9QZnuLcrEivuwK4VujfSNeKlPSlmuPF6g3hvVxQNWXFiFUZxqsQT3v/vXjqrDZ6DN9s2NZwY/lZ5dRlcxknVAVXs//dn6p8tHvj4LCgwsb8P4sOFURwr8QhD9d/P1O+R2gZv7mlnQlL4mwd98TSzXdd+nN3/789s1SdWfHxgbOC3qr3VBK2cTfUQLjBUf3f3qv1E0McGttf+bgbcaoLEof6WDA/H9zheqg3O8Pjg2LDAPkG3mqC1wrH+lgR37hswU6FbPD4HjA0z/Iv2VHeJ27d6KZ5uSYZu8fjsMDYM8FxqT/VkKZ3+HK+tGbKrIE5v3xZh0FH8SYDjZGQDpFFc6m8paHj9AWzV4RH6CP/JqB5Z7akeLaXTnwG31D0mPl87vH0mwFOwjnW8Z4Mjixj4RnGq9zbATX/tXs0Z8PGZ0am+wH4mBupkKZ3+dFCz7VkUp7fuKyhwfYcueKaIW+UOW7AUEl8ddNZDELw6b3zrk4xHRYSdEmCvfQ3H5ap4bPttwm9an/53wxEOyK+d2tERXAf8JWjBAq8H47MW8+GA/Hfkr+gIgg1lZlezYQLy9efLJfH4wudBgsFhxO/+HnCnaFq8/jUFd1p44Zcg39VG/M5tRaedil7Zfon4v8N6ufoVigEZugzIpz3taU972tOe9rSnPe1pT3va0572tKc97WlPe9rTnva0pz3taU972tOe9rSnPe1pT3va0572tH/agwMSAAAAAEH/X7cjUAEAAAAAAAAAAAAAAAAAAAAAAAAAAAAAAAAAAAAAAAAAAAAAAAAAAAAAAAAAAAAAAAAAAAAAAAAAAAAAAAAAAAAAAAAAAAAAAAAAAAAAAAAAAAAAAAAAAADgJ27a8OllRTAtAAAAAElFTkSuQmCC;" vertex="1" parent="1">
          <mxGeometry x="840" y="449.99999999999994" width="286" height="179.96" as="geometry" />
        </mxCell>
        <mxCell id="JW3iJgfV2uW1eodX8U2l-30" value="" style="shape=image;verticalLabelPosition=bottom;labelBackgroundColor=default;verticalAlign=top;aspect=fixed;imageAspect=0;image=data:image/png,iVBORw0KGgoAAAANSUhEUgAABZUAAAODBAMAAAA2vPIlAAAAJFBMVEVHcEx5upEcf0Ks5sFYp3Y6kVwOl0n///8SlEgWhkPJ9tt5uJCICpj3AAAABnRSTlMAdN80mr0B3wi8AAAgAElEQVR42uydzXIbxxVGxcjeu2hnkV2sWCnOzmTIRXYJvNIuVjbBVouu5hOoStmxKrcuolUYGTUoPYCqqAdwJL5cpucHBAiAwoAzPd0959iWtHAlMHhwcfvr2z1PngAAAAAAAAAAAAAAAAAAAAAAAAAAAAAAAAAAAAAAAAAAAAAAAAAAAAAAAAAAAAAAAAAAAAAAAAAAAADACHn69McfeRcgfpFPv3uxWLz767foDHGb/N10sdCZ5ovF85+wGeLlT88WagpUjLGLZ8gMsXI6zUuVS6zOrr/lPYE4Vc7mlcYizuXib2SGKDnKXGthKo3rP1x/w/sC8S37MjEb2Gt6ZohO5Ze6YbIUTfMvyAyRqXwssqUuG6PfIzNExXG+xWNblGo7Q2aIiYu86CfsNpeNzv7A+wPxqJyp3dphlEJfIzPEwmlmdqNKzAyxcJTpQy6LUWJmiCPCmEoTwW1D1BpLMgcxqDzJlwV4F3b2AzJD8CzTOLvT5OIfkjmIQOUHO4zlBOjse94rCJrzXMyXcHGd6Own3i0IWeW72bitWYbe/arXyAzhcpTddclbl36uJNv632EAFAJWeSq7V3ybTbT+gswQJk8n86aL2A9LMgdhqlxGGNpCZmbmIEyqYFnt/jKrIZmDADmr07gWdVmNXjEzB6FxfrJ1ffflNoNkDsLiNGul8MqkEQOgEBRH2Upw3KYsczQbAoswnrWJL9Zktka5mwvCUXmyskdi2/tMzAyhqHy8OlCk7RtnYmYIhLNc7N24xQHdhnA0G4LgIl+vyW1dLi/N+DvvIwzOMliWQ/oLdy2X++WKmBmG5igrGgw9sFF2Fte7hQyAwtDrvkxch1ymywfFcvUnQIiZYWCVX5YuHrbnt75pYp8jMwyosrs/wJoOKGr6JTEzDMdxrmI6ofjf4Wg2DMdFbrpyubwUlGQOBuI860jk5aQoR7NhEI66VLmGZA4SUdkSM8MAEcZUmgjDdthm2HeEGeBZ5cndbJx25LIWf3EDKPjGHbqWg4c8t92W3/zpkmQO/Krs7jeUzjtmS8wMfinHPK1V2/nqzw3bMTMH3jg/0U4XfRthBjKDH1waJ9ViTfqQWbgBFDxFGJnrLZpETrsZLFprMpQBUPCi8kRWTlxb26HLWt+YIRzNBi8q5700FtwACr45zo0Hl0nmoHcufFTlst+Y/cy7DX2qnElfUdzGAOgV08zQH6eZWuMLHgEPPa77MjEeIWaG3lSe5t0Nxe01b8Qj4KEflSd5Ff76wG2ZWGEAFHqhus3Tj8tST2YQM0MfEUbusVOunzWswtFs6F7lzOeqbznfr9fIDN1yenLAQ6IOX/WtdDIkc9Ctypn6LMurITYPmoJOI4ysy7N9+y79qt8sA6DQocqTuWinR65blWglmYOucIeurV+NZaU0W45mQ2cqixkWBkChEy4GV5kbQKETzrPhVeZoNnTAUQAqFy4zMwePV1kDcFkMMsNj07jmKozBC7MxxMzwGJUnGkJZNuUHigFQeEwaNzcmCJUtyRw8TuUqjbNDu9xs0/AIeDgQr2OeD3bLzW+viJnhEMpgWUKoy8v9bEvMDAelcWLCwr0ekjloH2FMtTncJ4HU5bLP4Gg2tE7jchNUXW6yQW4AhfYq+7tAoN2licgM7dI4FROeyOVwPjEztEnjFqomUKwuSOZg/zTO9zGSlvfMkczB/mlcyC5zNBv2XfdlYgKHo9mwl8rTQFd9a2emiJnhyyofBy9yWZm5NBH2SOOshK8zyRx8ibNcRDVwkYUBUPhyGneiETQY1fzejGQOdnOaRdEs13fakszBTpoxTxu60Vo+zoqj2bAzwmiqsg290bDVrbYMgMIOlV/mcXQYxfeGVlHL7DkywxaVj/PVc6LB98ulzJfEzLCJC5ZXjj1L6ElGdRRxQcwM97nIl0c3InB5Zc+EAVBY5zxTEyNMM8NmGidRuiwkc7Cu8lQ1wrqsHM2G+xHGCzEaZVGuwuZ3yAy1yhNtAts4e+YZMkOTxlkZ/qKtwyuzCAOgUKVxC9dfROmyrX9Rkjl4EsazdR4/n8HRbCgfSCKx7F3v7jWUZA6Vs3rZZyOtyE06R8w8+ghjqs2yz8Zcl5WYmTRuLjb6btlt8xRfLcTMo1a5eiBJ/Gu/ajN7xgDoeDnLXVWWFFy2HM0eu8qJFOVSZqu6QOaRBssn2xKBCEOM5uNYLGOJmUfJafx7JLJhNsncSNM4kyDcADpClbNcknRZkXl8wbJJFB40NTKO06zK1TQzA6Bj4iI3abpsywdNMQA6IpUzSbUsW+tm5pB5NGncSbIeGy3nS664AXQcHGXJ9srVnJGbmSNmHkewLBHc5Pk4lxkAHUkaV0YYmqbMdhkzk8ylzySvfthprv6Wn1B7+QM/6+SDZXebp024Y26Y/cxPO2nOXbAsVpON5FZK9IKZuaRVzhIvyFLPflZjRsicdhqXtszl3Gf93yiGAdCEVVYzKrg0I9k07oWYkcHMXKIqJzwbtzOh42h2ommcGV1ZFsMAaIKcLdSa8aFXHM1OLo07MSIjdNmaK5K5tDjN1JgxuiyqPAI+rXVflvJs3IN1WcVwmjUllZ+JmtivWD5894Sj2QmpPBljd7EynXFJzJxOGjdSl+9m5kjmEknjch2zx26+1XIDaBJclBPLMtJ2uZ404mh2EsFyVv4w7VhdLs9lF//pDIBGTzMbZ0fbY9SfZG4AjT7CmDYTyzpKja3UfYZwNDt2lV/mY+0ttoQZz5E5YpXdbJwd5d711mUgyVzMwTI1edVlYuaY0zixKHznMjeAxpvG6TjnPHcPMyvJXKRpHEV5c9uEZC7OYJmifL8uczQ71mCZsrzpMjFzfCpPiDB2xcwMgMaWxgkuk8wlEixb2wwjwPp0BjJHFSyfSJnGWZXqKR6w2jKbK2LmWDg90ZWFn9JsbLQZxMzxBMti7hoMXL4/AcoAaDQRxr3bPEmZVwqyNr9zNDsGlV/ev2MZl++1y+VgMwOgMQTLDCw/sIu9/J0bQCNI48Z5P1HLrlm4ZyD8NC5XWor9dFYGQIPmPHNpMoHyPnmGVW4ADTlYzlSUM1F7yizcABpyGifFuo9Rz/2Wge5dIpkLOI0r6w09xr6bJhzNDpTJvIqbKMv7w1OzA03jpEyWUblN0EzMHCC/zesmkA5jn0BumTNfkswFFyxXT3FA5DZb2VaLbzFi5uDSuOonJCs/KdjZYdhm/efeKpK5oHCHrlG0fbtcdhkczQ4qjZvOZf3bE/ZU2lltiZnDUflFXh1kM8QYLdJlqVpmV5k5mh2KysfzlfgfmQ9oNy6ZmQsnWIbHwQBoEJydoGIHMvOgqeE5z5gl6qLVYAA0gGBZuACjE0jmhg+WDdFyN5UZmQcOlptHJcGjtrTLrzYGQIdU2Y150i53tv4jZh4yjTPMxXW4pU0yNxjVoWtc7jDMYGZuoA7DjXmicoel2TKZMRAT9qw7XwPqO7wagK/q/T5yjK5EdmXh1V8wy3+H8ULqL0dc7rLXoDD75+v52hIcHmXwcg2ts7/hlm+m5MqdUr+dan7BLd/d8lzoLrpUuV5Ei7mkY/bM71C5r36DDRPPK78TWoyeVLZXZMxeOeOxqv2NZTCW73flx60u/Q1msPrzydEf8a4XlcvG7dU3GOaP39As95VmOKV/j2E+Uwy8663FMPY/GOYzxUC8HpUmyfDYLs8Rrs8u45KG2V8iR1nuC3VvrSWV89cu62p7B53KTMPslX9Ql/t1+V845mvplwt1uVcuWfx54qsc2/pb+bl/mJXzxddzXUn2odOFXxVksFviiT8zI9dTWW5ctv/FsoR2/dY+L6o6qo+PEmR4YurBK9F7Lo+qo7GMynnC5+XhwTwDxeuQq73CsuRclpLh66S11atwd01bD8cQZoRynuJlr8shO/xz1nQ9Te//9VgCZk8uz700FvWfQtiQsWvNjnj4/6Mu+8HrlFzx5R7IckyaF+Tj24hJuZRclrK9CGij3OO+vTD1mVZdlrVYTmTYC/jtutK4jMstv9XtWsMqQ/cX/i41xeXE+mVZXhg4unlpXE5v7aclQcx/2OJ1eNtJx+VUXF4WYJsvHEFEGTP3ShSXcbn1PltRjgt33t5+/Pjx1mk05KVfVmfVS7l1Oisu43Krujxb5Lc3r2tubm4/LfIBS/Lb5qXc3Hp5HbicUL+8yD8vTXa8efOxsHmQZsPO3n/+cPdKbv7nodPA5VRcFnNXCFd0Lmz2OYFRrTjVzN5/uPepWrhdHMFlXN6jPV28/fB6C29um25VbO8u26ZVfv9h40PlVqO4jMsP70k4Q+zi8+vtFBblTUMtvX85lAH3psruZeQ9vwBcjt3l6vRIofKb17u4+bRsmm3vLjup3m/7hvjguh2Ly7i8W5/yq332drfKqzL3W5jrbZHFr9u7nU/zXseYcTn6ftn5o1sr4apGXuKMyuXLf+94Ff/MtU+ZcTmFtZ9dPKyyL5n/z97ZJbeNK2F0tyhoBcyV3/u2ct9Vkr0AWdYCXM7qLkHJiRP/EQ2QaLJOz+vMRFU5OvrQaDY1wRw//16dDwPtE91qw/IKWI67n13nBOY+Yfz64kPom7EnWIbldxd+8eHUfQ/zTl6bwBN+q6T/MF98iMvhba6GZVh+d1383I2oyzEhNBnLr//j4/OXvw4ynZhhefksf2nCN/U46aiRXo+h33yYx32YzMywvPyMMU7LQ2SemOX47W/ELemkMALLsGzVctc9TTnULOM+zHm6HwdYXjzLY7XcS/Fx4l5G/Ly3/PszHFVgGZY/rsOpGw3zi0yaMjTuvm90wzIsf/Y3eN+Nr8u0M/FxRN45H2AZlj8Z5HnOYPl0E/M0Iz4qm+dvfyS2sAzLH9xLpHrouiwxy3QjRqK7EXnnBZZh+WOi77NYnjIxx6BjvljnPSzD8gcZQ7IixrSJOY7L7nf7ie7SYXnBXk7XbLtTHstbnU7M47L79gjLsPy+CRY1Ly6nn/jhmapJLixGfrGmijmwvGCWY5DMuDz0EdJ3YBqcHsZ+myIsw/K/IxC751yWey3KFCzH0efQy0SPSsHykvsYMeTG5eFJpUmacjKa5f7wh5dh+X1C7TqDmCcaLhrZU+lTDizDsjGhvvuNn2YcYzPyR2LH2Q+WS29K3jbF6ns56mn8DwM9OVj+exrDxPKtLVdfzA/j//wpPgAsL9rLm58Wlp8Ok7ykbPRDAY/TfJdgedksP1tYTj/y0jDw3O3Jy7D8b84wsny3n+Kt6xtYhuXZvZyeINWUWau+ch0vw3LJX9/JxHJ3TovdJFQdylcdG963sAzL1VjeHv5qh9TR8uYXLMPy/Cyf9XUAup6XRwceWIbl9+MYVpavQxmhbsiAZVhu4OXUlot1IwYsw3IblrcTPCsFy7DcImP8XuwGy5QHlqWA5dvj0FLzw8AyLLfIy93TQULNcTWFZVhuxPIweSmwTC0/YwybMlQElqnFezmtMKo6EQ/LsNzIy93jAZapVXi5+sZNWIblVl6+DmXAMrV8L9+GMgSWqaV7+dqWi9VGP3NYFliG5ZpefrMpQ/AytWiW657+YBmWm8wWvW6qEFim1uDl21BGpTf6kpdhuSHLtz2J87OMl2G5Nst3ScwRlqnls5yGMiJ5mVp8fzkNZeyl1vmPvAzLLb2cFtjqtSeCl6lle/l1KEPxMrVwL/enP/IytQov/96UAcvU0r2cnpVSWKbW4OXtrlJXjrwMy429PLw+BC9TK/DymwW2sEwt28vbPy+vVFVYppbr5WEo49ZlLpnMIC/Dcmsv92LWP18PvEwt2Mu3PYn0MajFe7nSW4XxMiy39/LvtpzAMrVsLw93f31mjrBMLd3L3XVP4nwsk5dheSIvp00ZkbxMrcHL3bF83wssw7IHL3ePQn+ZWoeXb0MZSl6mlu7l2wPZeJlavJfTAtuyNgZehmUfXh7acoKXqRV4uXvchxgDLFPL93LxSD4sw7ITLxc/K0VehmUnXu6eDswWUevwcvciZAxqFV7uLoqXqXV4ebtT8jK1Ci935wNeplbh5cL3SuFlWPbj5bK2HF6GZUdevisRMyzDsiMvF7XlYBmW/Xh5eIiVvEytwsslpz+8DMuevNydFZapVXg5vVU4BtvzJbAMy6683L2oGF9fSV6GZVdeTpsyjKsy8DIs+/Ly9oU+BrUOLw8LbCNeppbvZfsCW1iGZWdeNt/9wTIsO/Py8PqSSF6mVuDl7YvQX6ZW4eXux4GMQa3Cy/3pT2CZWoWX00h+JC9TK/By2pMoeJlag5dtbTm8DMv+vNzd7cnL1Dq8vH0hY1Dr8PLtgWyBZWrpXr4OZUTyMuXPy3e5LBs2ZeBlWJ7Dy3e/DEMZAsuUQy8/TH/6g2VYnsXLx9xknb8pg7wMy3N4+XK8N23KUMHLlDMv7w+n7LachDgVy3gZls15eb/JPf09HTTvncJ4GZbn8XLMPf2lTRlZb/yDZViex8th95zdlqOPQXn0ctjknv663XR32ORlWC7wcsxty23/s8+6xsbLsDyPl/t/+Wd2W46MQTn0cm/Y7NPfeQ/LlMO8HKY+/ZGXYXmmvCzB0JaTYYh53I0JXobl2bwcd7l3fz8Ow21JfZbxMiwXeDmFjOyhjN3rt0bwMuXIyyHkD2Xsw+iHpWAZlufz8njcLG05WIblmbycrj1spz/6GJQ/L1vachEvUw7zctDs0994McMyLM/oZclvyz0O/2WEZcqVl2OIm/vJTn/kZViez8sxnf7yn5Ua2ZXDy7A8l5fFevoLWj1j4GVYtnv59vBeVMOzUiEKeZly4+WbWVWzT39jN2XAMizP2V9OA0b5QxkCy5S7Pkaqo+30R16mnHm5P/39MrXlouJlytG933BfYjn9/fkzYRmW3Xg5TvSsFCzD8sxeDkHtC2wjeRmWHXnZcPq77EeMZOBlWJ7dy8E0lBGlYl7Gy7Bcx8vGoQz9eu0nXoblmb2s5tOffq1TWIblmb2sYn1W6pupDFiG5bm9rJZNGTcxc+9HefKy6fT3tPv26RK8DMszezle70ssmzJgmXLlZRl4Ng1lRM5+lLP+cvqLf9jmn/5EhLwMy676y9Znpb4OGXgZluf1slw7zJq9KWMQM30Myp+X809/lz15mXKYl/uQYXh9iXyVMmAZltt4OX8oY3uW26sr9cPJDFiG5UZejpv805/K6zW4kpdh2Y2XbUMZ+vb2EC/DsgsvW6bl9uRlyp+XxbDA9mlHH4Py5+U0w2l9fYnSX4ZlT3m5x2mTP5QhaWRUBS/Dsisv55/+tmdVwcuw7K2P0dcx9/T31Z5EvAzLrfoYScz5QxmwDMsevWxYYPvFnkRYhuWGXja8VfjzyU/yMiy383K0vVX4k3E5vAzLjbx8baxl3/09HRLLEZZh2Vcfw9KWG4YyPnpYCpZhuWVetm7KiJG8DMvevLyzvVWYOTlY9uZlw1DG8FZh5pdh2ZuXjQts6WPAsj8vG/ckwjIs+/OyZVNGhGVYdujloCXvlSIvw7IjL2cPZWw/npbDy7Dc2su13ioMy7Dc2suWZ6VgGZY9etnwVuGnA3kZlj162XL6Yx4Dlh16WYKqZYEtXoZlf142vL7kAzHjZVhun5cNbxV+PMAyLHv0smWBrcIyLDv0suj/ytty5GVYduDlqNlDGe/v/vAyLHvIy1qhLQfLsOzAyxLzN2Vc/t0uAMuw7MHLQTfFQxnkZVj20McIlk0ZQsaAZU9ejtkovllgi5dh2aOXg2VTRhS8DMue5jHMz0qpkDFg2aGX809/fz8rBcuw7KKPYRzKEPIyLLvzcn8G3PwsOv3hZVj24WUpflYKlmHZS17Of3nl9q+RfFiGZTd5OZatMCIvw7IbL4eQP5Sxfx20w8uw7MbLMZj3JMqwjhkvw7IjL1veKhxf94rjZVh2k5eD4a3CT3/u/mAZlp14ebjDM+1JlOs9OCzDsqO8HGP+UMZeDRmDvAzLE+floGp4fUm8XrXgZVh2lJdFYvZQxvmQ2hiwDMuuvNwf42L+poydKnkZlp15ObUk9MEg5kB/GZa95eW0Jd86lIGXYdlTfzkUvFcKL8OyLy8HzT79paEMzn6w7M/LhqGM69UfLMOyDy/rn5l8zR/KgGVY9uPleO0vJ8PuDNNykbwMy+7ycjBsykjPSglehmVveTkYhjIOfUaBZVj252XLUAZ5GZY9ejl/ge3jXsjLsOzNy9F0+tvhZVj2d+83nP4MbTm8DMv+8rJhge3TAS/Dsr+8nLgwDGXAMix79HLcPWemjMselmHZo5cNry95IS/DskcvGxbYno94GZad9TGuU0b5C2xhGZa9eVlsI/nbMyzDssP+slpeX0JehmWPfQwxrDDCy7DssI8hPcvZQxkdXoZlj32MELOHMjq8DMv+vDzU4QTL1Bq8LPlDGbAMy069nL8pg7wMyw69nG5Mds94mVq+l5M5N/ewTK0gLyeajydYphbv5RjF8PoS8jIsO/SyJt4e8DK1hj6GGDZl4GVYdpiXBzk/4GVqBV4OlgW2sAzLLr0cZYq2HCzD8vxeVsOmDPIyLDvz8u0t1zLB6Q8vw/K8Xr6+6MywKQOWYdljHyMNZZxOsEwtv48xyVAGeRmW23i5/lAGXoblNl7O35SBl2HZpZel/kg+XoblJl7W+iP5sAzLTbwcRWuLGZZhuU1eVo2VN2WQl2G5TR9Dq7fl8DIsN+pjBIl6gmVqBf3lPjNv/nuCZWoFXu7F/EBeptbhZa3alsPLsNzMy6p6j5epNXi5N3PNPYl4GZabebn/o2q25WAZlht6uepQBizDckMvVx3KIC/Dcksv19yUgZdhuamXKw5lwDIsN/VyxaEMWIblpl6u+KwUeRmW23o57H7hZWoVXo7V2nJ4GZYbe7naAlu8DMuN83KsNZQBy7Dc2MshVjr9wTIsN87L1dpy5GVYbutllVp3f3gZltt6Wfp/6pz+YBmWW+dlrTQtB8uw3LqPESsNZZCXYbm1l5Oa7/EyLC/fy1eYT3gZllfh5bB5xsuwvA4v1zj9wTIse/ByjaEMWIZlD14Ou3vyMiyvwss12nJ4GZZdeDmWixmWYdmFl/vT3wmWYXkNXpbythx5GZZ9eLm8LYeXYdmFlyuc/vAyLLvwspSf/vAyLPvwsmjpAltYhmUXXtZQvCkDlmHZSV4u3pNIXoZlH30MLR7KwMuw7MPLsf+nbCQflmG5wMuXmj25oFq0KQOWYdlPXi57fQksw7KTez9Ja19KhjJgGZbdeDmUPSsFy7DsxMvFQxmwDMuevFyyJR+WYdmTl7VgKAOWYdmFl+ON5YIFtrAMy076ywPR/ffoJyzD8rIzhkjp6Q+WYdlTXi4ZyoBlWHZzh30t8+kPlmHZS16Ot5On9VkpWIblApbPEuqL2TqUAcuwXHCTXJXl0vuSO1iGZW8sG09/sAzLBTC9TMKy8VmpCyzD8j+3fhmJdSKWbWL+8X/2zmC3keMIw1bi3A05e8gtdmxAvFmCdMgtUZDDHuPkEF1zGJSeIAB9E5BCMT5FsYWZ5AHWK71AtPtymZ6hKFIixSE13dPd8/0wvAbWWM5SH4vVf1VXwTIsr4LkTmEdWZ7+z7zgs9ddqamfhAeW02VZ3Ganjl/y01J6f3nd+/R3D8uw/Dwuz7qetszL6+/XlHGvhcAyLD9xeTuWK+5u+odH923KmJbEZVh+3uPTsVjy/ka84OOaMt7tUSoxWIblp3G5m8Hs47S1f7fc3U397ArLsPykkNzNSJh5iclS7DXA9r16GcEFy4mz3C0seslQRW2/brl7lx0Rl2F51UYorFNY9FJoE2tPf7sOsJ2WyzkKLMPyA1CdEmYvxYmGZd19gK2nCjYsJ55jSKfK39RPcaKtlpjtOMLIU9UPlpOOy+7w1SVhnn+r+3gCx/KOTRkzWIblDT/BrVFx+pO3F2/i8m4L/+68fbBgOXmW/zNU/8Mi06g+7JZiGHU/WF7L0tYk47b0ybLuZmVM6xRDYBmW12prq9r7m8fSip80YweP2bkYRo4By3uBNPWaYrTuXOcsY3rv7zFgOXmWt33Df3fjGeU6zejsy31XwjIsb7bFXu4hnt5b4R1mmf2zY1jWwmAZljef/t69GAlVvcPcNcu4K8UUlmF5o16sItdhWf2jXHTaLFV/RzQsGyzD8gaUXsiY70oV/3G5foXLDinzTzftdwQsw/ImljdbGbd1ghogx2j8lK0w31Xq0xqE5QxYLopq002l92Xhm2Wzxrw22QLz1Lc5CMsZsKwbj391JHSgqfcMo3mIl2Ge3pcFLMPyNpAcRms4uq20mO+W9BqZFzSVty/cOfSMMixnkWOo2jov49Z3JFz6NM0T9/LDxma9Sgu/tXRYzoFlqWmuPvx9+sKXuoRguQ7R1cd30+ckv5t+rLyfQGE5D5afU/SuicpBLIzVosl/PzxLd6a395X/6iMsZ+FjzClayland9VNMYS0dDSv5jofqyrAhwqWc2HZwVx9f3vbxuS7+6q0YhjVz1F9/HDbRuf6UWqSrTBYhuVdEg2ZVd9/dJrV+MhAKDdFwPoBPra6DxKTYTkrltviW9WoNCsC1fs2FVDKai5TWIblV8Robd2NITCWQmSIj5HCck4sqy190bt+tAGQEn3q06lIIcRlWN6Do5VWiSGy5edWoClnP1je1WaOQbaloALLsLwlIMaCsgxkBsJylme/QJGwe94jxOVs9PPgLLfnvkFjtS79O8CDzL6BszxZHhBhfZ7EhziFXsJyXizLSnYhw2caEizjIS4H0lHozEKisjZC6G9QFkZ/Df31rmNDufgHlIXRr3Sj9Yr6SWb+BWVh9Fsd3Xd+aHv531AWRr9ol9oRl71VGeXXUBZGn94M2oM5ApYplYQz5QjJnlnGkgtmZBCV/R79sDFCGxkc/vyQbNgY4XRCXPbKsv0GxkJpgE65cVlyHP3CHf6O4M1nxfOKo1/ohJl82QvJRZHh/1AAAAnrSURBVEG6HFA/Uyol/limUhI2yXAXOInLPixmLa5Il0PqLU6Gt3KJ/ABfQV05nAx/LP8ZvnAy8kiXcTEC61BJlz04GO4U8gV0hdWn5eMQC6DugWN9WMYy+x10BT/9iS5SPPT6PNnayFz8CFuhdVqqaTvBkLjcQxPGQ0S4/ANsBddFzbHDGfWqHzn5DZAxH9X5XQMzPPcXnq/IlgexMm7muTI5Rn8sY2IM4zFPlLNfz7omwxjo+HekeHL9mBjzt3DGwW+wLKN88PjRq8skbnUWGcag1T/UjyVX8zz7ggxjwJT5vITDfrKMOir/AMpD6uCCyNwXyzjLQ8M8AeZekgy9/hyahjYzgLmXuHyNhQHMeYTlCpRj0JvS7W/U5dwPdYZYGhNjxl2SSMwM08XWaGt/PGgHZ1nt8ivOfZHA7MwMfVLCQi+mx7ZkLBfyNShHA3ObMrd7nxSYd2C5ed9w46Jz5oTmjF1N5eYdu/4MguI0M4B5p8p1UWAsR6azCWjuct6zBctXWBix6aRUYnJnlqVl2QqbMWs5Ph2Wj1EHdTj7iYkpbZ5x2sz0zO106jOtozLGcpwwMzBx58MfbZ6xwlwZNO/WUATKcdvMqKMfh7Ect81MX1H3niLaPOO2mSsiczeWlUvX8TtzROZOLNslblwKNrMaPczbsmWM5SRsZpW2XkK6saGbyI3CwFhO0GbGp1tKLB7eC9o8k3LmbB6XYXnJvJg3rODGJePMYWZsyTSwMBKymYH5pfCMsZySzVxiZKxV8xmv6FhOy5nT1Z8fengvmOaZnjO3SA6J0KvJMm5cajB/q0W7ZQofYyVXnjE/ID2YJ4W4rgO0yjLGcoI6xsxYk2BcYSwn6cwdAfPTqHyFG5emTuhmfhqVuXSdqt6UjBlYOffhxqV7/jssldC8hDLnvpRtZpcyy9hrJtb8w2Da1J05K+aheawo65xl3LjUdTBRkXZMzxgzZ1coUto8c3HmGptZxxmZ5YFlY7dOFjC7C4BjHTDu0itX/MRYzsRmLnXcs/K1EKZ5ZqLD0Q9NZH5APs5cOe5qNpeuM4L5QsfckX+JG5eTM3dhI2VZHMq4cZnZzKMNyxjLWdrMYzQxMJaz01k10oYiLl1naTPT5onyMDMOR8eyFkKbZ54wfzm2XmYRFpLkbDOPoAHU5gakGsZyvs7ckcr8xyx54qwPjZ7uPw03LmN9urQ1WzRLlB+7qOhYztyZO1pMhi8007A871w2lrZn78zNQ1eO50B7hFkK2jyz13wCaJY3puwxMhvG8gjMjPObRddNjp1E81+Z5jkWZ67IdQaMtH8xmeHGjcOZy7nNyLAwRgaz5ZpltMcAjOXx6HSSdfM9S9tHZTNnvTWbNs8xOnMZZsvGpeux6TzLcbbiGotw40ZnM2ue2bKA8vhgztCZMxGjY3mUztxqN46lzbZq/TdQjOWROnPlisecOMuu4idW4caN1Jl7aAC1DNrm3IdS2XQ9WrVXs/PIm5VL1yO3mTPpmWvvyIDyqM2Mt6UWGYRmdyNXmOY5cpgvtD4yZRCWld06OHMTs+QPfs7DoDcONSvgJfGkWZnmiT5pV8C7nWmmyWbNdZLEbh30SXs1W9NOMeSaS9eocebS3s1jirGMFjDfJByYxYyl7WjhzJ0nfM9E6FhGyzAn3ABqDKZFyzqYmKZpyoldf87PDy3J2cwPm4Yt/qr24+MJKKMnOp00kwXnjXORNzPL4vGM+QHomd6UapJUY757RuYHoDVyPXPyUPyLmuXHCiXGMlprZrx1zpykEJFtnmhc4sah9TBfJDQ0w9ku7NZBG2GeJNOZoRjLaJuZocnEZSwM9DLMibAshdDmiV7USZVIwizMD0BbdJjA+a8xlv/EzwptOf+dl9FXSurPGm4c6mJmqFn0LGNhoE4wx85ywTRP1E0HsTtzTPNE3Z25uAMzxjLqrLNS54mpRWZfuIfCWEY7OXP6MHkiFohF2rYnLl2jXWGOsNOzSeNZE4V2NDPOY0uZtRD3SBjLaGeYLxZmRjRUG9M80Z7OXHuBQ4ZnWeZZM9M80Z4wa0w+c1PAAWW0l+Kymd13BMYy2lNnkZkZXLpGGThzIhjL6HXO3E08lhy7ddCrYH4by+lPmOaJXgnzRRwwK/MD0Gt1PDGJISpf4cahV5sZMVzNlmssDNQDzNXgMBtuHOpFJ+VSJVkC9WfI8gdoxpoo1I/mNrMF6zWSYjEJ2v0bYxn1Zmac61JkDtRKtNTriRuH+oN5fps1UK/RPBw3nXGFzL4EZdSfDpyZYUXINcPSLDV2O1VBGfUpZzPr6oHMt3chjbHNmijUt06PVAa4ysqla9S/To402KTxxcvYFW4c6l+HwXrmHj8xuHHIi5kR7Gq2PKLMuQ95gblpAJVwLMsPoIz8KODWbPdCXLpGPmFWVQmUMTPNE/lUwN08wqVr5FVnVajDH22eyLMeJoD6phk3DgWAeZHQmvZsa7g/sa2T48Yh/2ps5qaYLb0fA90f2xwumeaJgsD8cDXbT+nE9ccxzROFkZsAWtTEqRcnrg7OXLpGoXQ88dv+iRuHgunsyPzNszXmB6CQMJfrutqY5okS1KPN3DfK7NZBgc2Mc/VT7uPSNQoO88Rq9nr2MrS45KYqGgBm9dDMjLGMBtDxxENv3Ge8r2gAnR71HZa5dI0G0km/E0CFEYhoMPXbACq4cWi481+Pi6aENk80KMyLRVP7N81JWw2/5NI1GhbmC20w1tew3MyNw41DA8ttzX6dzSyuTQk3Dg0vtzX7tV35ZrR5ohhg7uFq9gyUUQx6U75ymhFrolAscs7cnkZz42EwPwBFY2acl/uxLM19bi5do4hg3n8FvDHNE0Wlg4u9rQz78TPePxQTzBPdK81QjGUUm84mZvskzFdYGCg6mPfpmRPcOBShDnfvZmaaJ4rTzDjcOclgfgCKFOZvd+xmlq+/4V1DccI8eVw0ZesvaevynijaPFG0albAt63MsnaWiz7uPGNNFIpapxNtd2avnZxo89As7NZBCcB81IwyWovyYjN883/Q5oki10m5/faf1L/N/AAUvZqr2bq5lcj9rhrGMkrAzDjUJxvaV29Dtb/Q5olSgPnFnrl2fgDGMkpCzpmzF3Nm3DiUiI5dz5zI5mmen/MeoUR0OmFNFMpETQOorh/sQpsnSkqH62+zGm2eKDkz47x8fvZz07pm3FRFycG81sdgTRRKEOaJrbMwQBmlp4MLXQxY1radmUvXKE0dT+Y5c7s7W80wllG6MDd9GdJeNwFllPIBsCpNXT+R2Kzi2IeSDs1vq6q8qUGuviIoo8RD8/Ev/2j2l9//v506GAAAAGAgBDF/14PYtyCalAEAAAAAAAAAAAAAAAAAAAAAAAAAAAAAAAAAAAAAAAA4Ba9Y6WsMu0syAAAAAElFTkSuQmCC;" vertex="1" parent="1">
          <mxGeometry x="1240" y="12.529999999999973" width="259" height="162.94" as="geometry" />
        </mxCell>
      </root>
    </mxGraphModel>
  </diagram>
</mxfile>
